CISFCamouflageKit.ufo
<glyph name="exclam" format="1">
  <advance width="1063"/>
  <unicode hex="0021"/>
  <outline>
    <contour>
      <point x="704" y="24" type="line"/>
      <point x="582.426" y="87.5195"/>
      <point x="383.618" y="152.806"/>
      <point x="260" y="201" type="curve" smooth="yes"/>
      <point x="232.781" y="211.612"/>
      <point x="184.968" y="150"/>
      <point x="182" y="150" type="curve" smooth="yes"/>
      <point x="162.282" y="150"/>
      <point x="62.6611" y="282.469"/>
      <point x="47" y="300" type="curve"/>
      <point x="227" y="312" type="line"/>
      <point x="243.006" y="497.495"/>
      <point x="318.278" y="636"/>
      <point x="563" y="636" type="curve" smooth="yes"/>
      <point x="752.998" y="636"/>
      <point x="729.146" y="285"/>
      <point x="815" y="285" type="curve" smooth="yes"/>
      <point x="862.695" y="285"/>
      <point x="884.353" y="390"/>
      <point x="917" y="390" type="curve" smooth="yes"/>
      <point x="964.39" y="390"/>
      <point x="1016" y="220.14"/>
      <point x="1016" y="174" type="curve" smooth="yes"/>
      <point x="1016" y="99.7236"/>
      <point x="820.943" y="69.1289"/>
      <point x="770" y="42" type="curve"/>
    </contour>
  </outline>
</glyph>
<glyph name="quotedbl" format="1">
  <advance width="917"/>
  <unicode hex="0022"/>
  <outline>
    <contour>
      <point x="150.156" y="423" type="curve" smooth="yes"/>
      <point x="189.156" y="572"/>
      <point x="279.345" y="643.921"/>
      <point x="429.156" y="669" type="curve" smooth="yes"/>
      <point x="511.638" y="682.808"/>
      <point x="585.053" y="643.962"/>
      <point x="663.156" y="624" type="curve" smooth="yes"/>
      <point x="697.594" y="615.198"/>
      <point x="870.156" y="567.189"/>
      <point x="870.156" y="519" type="curve" smooth="yes"/>
      <point x="870.156" y="481.291"/>
      <point x="542.765" y="447"/>
      <point x="501.156" y="447" type="curve" smooth="yes"/>
      <point x="452.281" y="447"/>
      <point x="439.417" y="522"/>
      <point x="408.156" y="522" type="curve"/>
      <point x="387.086" y="526.671"/>
      <point x="369.919" y="513.315"/>
      <point x="354.156" y="507" type="curve" smooth="yes"/>
      <point x="329.79" y="493.967"/>
      <point x="305.432" y="482.044"/>
      <point x="297.156" y="456" type="curve"/>
      <point x="280.934" y="434.575"/>
      <point x="269.81" y="406.993"/>
      <point x="270.156" y="378" type="curve" smooth="yes"/>
      <point x="270.875" y="317.933"/>
      <point x="289.179" y="180"/>
      <point x="372.156" y="180" type="curve" smooth="yes"/>
      <point x="410.525" y="180"/>
      <point x="442.568" y="225"/>
      <point x="486.156" y="225" type="curve" smooth="yes"/>
      <point x="550.33" y="225"/>
      <point x="615.156" y="192.669"/>
      <point x="615.156" y="123" type="curve" smooth="yes"/>
      <point x="615.156" y="67.5449"/>
      <point x="568.713" y="48"/>
      <point x="522.156" y="48" type="curve" smooth="yes"/>
      <point x="392.791" y="48"/>
      <point x="273.235" y="111"/>
      <point x="159.156" y="111" type="curve" smooth="yes"/>
      <point x="143.535" y="111"/>
      <point x="133.055" y="102"/>
      <point x="120.156" y="102" type="curve" smooth="yes"/>
      <point x="79.3418" y="111.204"/>
      <point x="38.9951" y="153.522"/>
      <point x="48.1562" y="198" type="curve" smooth="yes"/>
      <point x="54.3223" y="227.936"/>
      <point x="49.7832" y="222"/>
      <point x="90.1562" y="222" type="curve" smooth="yes"/>
      <point x="110.57" y="222"/>
      <point x="115.25" y="204"/>
      <point x="132.156" y="204" type="curve" smooth="yes"/>
      <point x="144.371" y="204"/>
      <point x="141.156" y="212.456"/>
      <point x="141.156" y="225" type="curve"/>
      <point x="124.768" y="262.704"/>
      <point x="103.329" y="298.269"/>
      <point x="111.156" y="345" type="curve" smooth="yes"/>
      <point x="116.453" y="376.629"/>
      <point x="99.1562" y="402.981"/>
      <point x="99.1562" y="435" type="curve" smooth="yes"/>
      <point x="99.1562" y="440.438"/>
      <point x="108.004" y="438"/>
      <point x="114.156" y="438" type="curve" smooth="yes"/>
      <point x="132.156" y="438" type="line" smooth="yes"/>
      <point x="146.553" y="438"/>
      <point x="147.821" y="414.081"/>
    </contour>
  </outline>
</glyph>
<glyph name="numbersign" format="1">
  <advance width="725"/>
  <unicode hex="0023"/>
  <outline>
    <contour>
      <point x="488.785" y="639" type="line"/>
      <point x="596.785" y="633"/>
      <point x="660.404" y="479.803"/>
      <point x="656.785" y="396" type="curve" smooth="yes"/>
      <point x="655.046" y="355.738"/>
      <point x="655.155" y="316.423"/>
      <point x="668.785" y="279" type="curve" smooth="yes"/>
      <point x="686.635" y="229.991"/>
      <point x="601.346" y="222"/>
      <point x="569.785" y="222" type="curve" smooth="yes"/>
      <point x="464.143" y="222"/>
      <point x="394.401" y="375"/>
      <point x="326.785" y="375" type="curve" smooth="yes"/>
      <point x="219.657" y="375"/>
      <point x="218.203" y="216"/>
      <point x="131.785" y="216" type="curve" smooth="yes"/>
      <point x="60.9033" y="216"/>
      <point x="53.7852" y="293.282"/>
      <point x="53.7852" y="345" type="curve" smooth="yes"/>
      <point x="58.0684" y="451.045"/>
      <point x="192.85" y="493.18"/>
      <point x="284.785" y="474" type="curve" smooth="yes"/>
      <point x="329.506" y="464.67"/>
      <point x="377.7" y="438"/>
      <point x="422.785" y="438" type="curve" smooth="yes"/>
      <point x="453.162" y="438"/>
      <point x="479.785" y="463.855"/>
      <point x="479.785" y="498" type="curve" smooth="yes"/>
      <point x="480.555" y="512.198"/>
      <point x="477.156" y="527.324"/>
      <point x="467.785" y="537" type="curve" smooth="yes"/>
      <point x="456.262" y="548.897"/>
      <point x="452.785" y="588.766"/>
      <point x="452.785" y="606" type="curve" smooth="yes"/>
      <point x="452.785" y="622.709"/>
      <point x="457.458" y="618.942"/>
      <point x="461.785" y="630" type="curve"/>
    </contour>
  </outline>
</glyph>
<glyph name="dollar" format="1">
  <advance width="892"/>
  <unicode hex="0024"/>
  <outline>
    <contour>
      <point x="170" y="444" type="line"/>
      <point x="215.169" y="581.653"/>
      <point x="340.537" y="640.598"/>
      <point x="485" y="654" type="curve" smooth="yes"/>
      <point x="704.125" y="674.33"/>
      <point x="842.465" y="441.351"/>
      <point x="845" y="249" type="curve" smooth="yes"/>
      <point x="847.704" y="43.7725"/>
      <point x="660.357" y="45"/>
      <point x="497" y="45" type="curve" smooth="yes"/>
      <point x="440.396" y="44.2959"/>
      <point x="399.286" y="91.2949"/>
      <point x="368" y="129" type="curve"/>
      <point x="336.786" y="192.393"/>
      <point x="250.453" y="174.224"/>
      <point x="194" y="168" type="curve" smooth="yes"/>
      <point x="133.897" y="161.374"/>
      <point x="97.2539" y="99"/>
      <point x="68" y="99" type="curve" smooth="yes"/>
      <point x="45.2969" y="99"/>
      <point x="47" y="106.273"/>
      <point x="47" y="126" type="curve" smooth="yes"/>
      <point x="58.9609" y="205.653"/>
      <point x="162.629" y="243"/>
      <point x="239" y="243" type="curve" smooth="yes"/>
      <point x="315.857" y="243"/>
      <point x="394.265" y="232.426"/>
      <point x="458" y="195" type="curve" smooth="yes"/>
      <point x="471.445" y="187.104"/>
      <point x="476.155" y="183"/>
      <point x="494" y="183" type="curve" smooth="yes"/>
      <point x="509.953" y="183"/>
      <point x="521" y="191.663"/>
      <point x="521" y="210" type="curve" smooth="yes"/>
      <point x="521" y="232.341"/>
      <point x="485" y="223.698"/>
      <point x="485" y="255" type="curve" smooth="yes"/>
      <point x="481.641" y="272.727"/>
      <point x="501.342" y="283.617"/>
      <point x="515" y="291" type="curve" smooth="yes"/>
      <point x="530.999" y="299.648"/>
      <point x="532.891" y="306"/>
      <point x="554" y="306" type="curve" smooth="yes"/>
      <point x="609.32" y="305.812"/>
      <point x="641.258" y="252.904"/>
      <point x="674" y="219" type="curve" smooth="yes"/>
      <point x="684.115" y="208.525"/>
      <point x="689.647" y="189"/>
      <point x="707" y="189" type="curve" smooth="yes"/>
      <point x="733.282" y="189.381"/>
      <point x="720.806" y="231.34"/>
      <point x="725" y="252" type="curve" smooth="yes"/>
      <point x="730.642" y="296.99"/>
      <point x="707.48" y="343.449"/>
      <point x="689" y="375" type="curve" smooth="yes"/>
      <point x="631.292" y="473.518"/>
      <point x="654.067" y="507"/>
      <point x="500" y="507" type="curve" smooth="yes"/>
      <point x="440.048" y="507"/>
      <point x="439.668" y="468.229"/>
      <point x="398" y="441" type="curve"/>
      <point x="317" y="441" type="line"/>
    </contour>
  </outline>
</glyph>
<glyph name="percent" format="1">
  <advance width="859"/>
  <unicode hex="0025"/>
  <outline>
    <contour>
      <point x="205.235" y="591" type="line"/>
      <point x="232.235" y="549" type="line"/>
      <point x="274.235" y="495" type="line"/>
      <point x="275.254" y="479.174"/>
      <point x="339.863" y="463.648"/>
      <point x="355.235" y="459" type="curve" smooth="yes"/>
      <point x="435.484" y="434.732"/>
      <point x="522.96" y="433.327"/>
      <point x="610.235" y="435" type="curve" smooth="yes"/>
      <point x="690.325" y="436.289"/>
      <point x="834.08" y="449.085"/>
      <point x="802.235" y="330" type="curve"/>
      <point x="804.957" y="289.131"/>
      <point x="788.47" y="260.657"/>
      <point x="778.235" y="225" type="curve" smooth="yes"/>
      <point x="765.736" y="181.453"/>
      <point x="739.705" y="134.34"/>
      <point x="700.235" y="111" type="curve"/>
      <point x="660.824" y="111"/>
      <point x="631.575" y="153"/>
      <point x="589.235" y="153" type="curve" smooth="yes"/>
      <point x="534.276" y="153"/>
      <point x="499.235" y="128.98"/>
      <point x="499.235" y="75" type="curve" smooth="yes"/>
      <point x="499.235" y="20.0166"/>
      <point x="562.235" y="20.6338"/>
      <point x="562.235" y="-42" type="curve" smooth="yes"/>
      <point x="562.235" y="-101.754"/>
      <point x="504.295" y="-153"/>
      <point x="448.235" y="-153" type="curve" smooth="yes"/>
      <point x="354.139" y="-153"/>
      <point x="208.235" y="-68.5898"/>
      <point x="208.235" y="39" type="curve" smooth="yes"/>
      <point x="208.235" y="96.3145"/>
      <point x="298.235" y="92.7275"/>
      <point x="298.235" y="141" type="curve" smooth="yes"/>
      <point x="298.235" y="244.479"/>
      <point x="52.2354" y="264.868"/>
      <point x="52.2354" y="420" type="curve" smooth="yes"/>
      <point x="52.2354" y="478.321"/>
      <point x="151.235" y="547.254"/>
      <point x="151.235" y="561" type="curve"/>
    </contour>
  </outline>
</glyph>
<glyph name="ampersand" format="1">
  <advance width="930"/>
  <unicode hex="0026"/>
  <outline>
    <contour>
      <point x="285.294" y="447" type="curve"/>
      <point x="294.294" y="456" type="line"/>
      <point x="327.16" y="477.128"/>
      <point x="324.359" y="519"/>
      <point x="393.294" y="519" type="curve" smooth="yes"/>
      <point x="512.868" y="519"/>
      <point x="575.75" y="396"/>
      <point x="678.294" y="396" type="curve" smooth="yes"/>
      <point x="694.556" y="396"/>
      <point x="706.176" y="408"/>
      <point x="720.294" y="408" type="curve" smooth="yes"/>
      <point x="747.294" y="408" type="line" smooth="yes"/>
      <point x="758.161" y="408"/>
      <point x="759.294" y="424.521"/>
      <point x="759.294" y="435" type="curve" smooth="yes"/>
      <point x="759.294" y="659.975"/>
      <point x="177.294" y="548.265"/>
      <point x="177.294" y="681" type="curve" smooth="yes"/>
      <point x="177.294" y="717.203"/>
      <point x="205.285" y="717"/>
      <point x="243.294" y="717" type="curve" smooth="yes"/>
      <point x="342.294" y="717" type="line" smooth="yes"/>
      <point x="474.241" y="717"/>
      <point x="668.518" y="808.146"/>
      <point x="798.294" y="753" type="curve" smooth="yes"/>
      <point x="866.139" y="724.171"/>
      <point x="874.738" y="628.476"/>
      <point x="867.294" y="558" type="curve" smooth="yes"/>
      <point x="848.209" y="423.138"/>
      <point x="912.754" y="225.94"/>
      <point x="807.294" y="132" type="curve"/>
      <point x="734.316" y="132"/>
      <point x="729.613" y="246"/>
      <point x="639.294" y="246" type="curve" smooth="yes"/>
      <point x="531.294" y="246" type="line" smooth="yes"/>
      <point x="443.792" y="246"/>
      <point x="60.2939" y="278.511"/>
      <point x="60.2939" y="399" type="curve" smooth="yes"/>
      <point x="60.2939" y="431.508"/>
      <point x="73.4639" y="525"/>
      <point x="123.294" y="525" type="curve" smooth="yes"/>
      <point x="181.802" y="525"/>
      <point x="226.435" y="465.752"/>
    </contour>
  </outline>
</glyph>
<glyph name="quotesingle" format="1">
  <advance width="950"/>
  <unicode hex="0027"/>
  <outline>
    <contour>
      <point x="470.5" y="681" type="line"/>
      <point x="464.5" y="654" type="line"/>
      <point x="473.677" y="649.142"/>
      <point x="470.449" y="645"/>
      <point x="482.5" y="645" type="curve" smooth="yes"/>
      <point x="510.515" y="645"/>
      <point x="522.312" y="675"/>
      <point x="563.5" y="675" type="curve" smooth="yes"/>
      <point x="643.587" y="675"/>
      <point x="902.5" y="576.026"/>
      <point x="902.5" y="471" type="curve" smooth="yes"/>
      <point x="902.5" y="367.765"/>
      <point x="730.694" y="363"/>
      <point x="665.5" y="363" type="curve" smooth="yes"/>
      <point x="618.812" y="363"/>
      <point x="592.234" y="582"/>
      <point x="473.5" y="582" type="curve" smooth="yes"/>
      <point x="438.896" y="582"/>
      <point x="326.5" y="575.327"/>
      <point x="326.5" y="528" type="curve" smooth="yes"/>
      <point x="326.5" y="487.158"/>
      <point x="470.5" y="402.476"/>
      <point x="470.5" y="363" type="curve" smooth="yes"/>
      <point x="470.5" y="282.06"/>
      <point x="332.5" y="276.975"/>
      <point x="332.5" y="207" type="curve" smooth="yes"/>
      <point x="332.5" y="155.646"/>
      <point x="473.5" y="164.221"/>
      <point x="473.5" y="123" type="curve" smooth="yes"/>
      <point x="473.5" y="103.172"/>
      <point x="467.41" y="96"/>
      <point x="449.5" y="96" type="curve" smooth="yes"/>
      <point x="366.594" y="96"/>
      <point x="119.5" y="131.481"/>
      <point x="119.5" y="258" type="curve" smooth="yes"/>
      <point x="119.5" y="326.026"/>
      <point x="317.5" y="304.916"/>
      <point x="317.5" y="399" type="curve" smooth="yes"/>
      <point x="317.5" y="501.418"/>
      <point x="47.5" y="510.101"/>
      <point x="47.5" y="636" type="curve" smooth="yes"/>
      <point x="47.5" y="706.435"/>
      <point x="286.25" y="681"/>
      <point x="323.5" y="681" type="curve" smooth="yes"/>
    </contour>
  </outline>
</glyph>
<glyph name="parenleft" format="1">
  <advance width="999"/>
  <unicode hex="0028"/>
  <outline>
    <contour>
      <point x="123.224" y="432" type="line"/>
      <point x="192.224" y="459" type="line"/>
      <point x="300.595" y="459"/>
      <point x="409.265" y="507"/>
      <point x="522.224" y="507" type="curve" smooth="yes"/>
      <point x="638.075" y="507"/>
      <point x="688.479" y="321"/>
      <point x="801.224" y="321" type="curve" smooth="yes"/>
      <point x="852.436" y="321"/>
      <point x="945.224" y="354.941"/>
      <point x="945.224" y="315" type="curve" smooth="yes"/>
      <point x="945.224" y="232.168"/>
      <point x="906.714" y="204"/>
      <point x="834.224" y="204" type="curve"/>
      <point x="732.989" y="181.564"/>
      <point x="693.88" y="310.825"/>
      <point x="597.224" y="300" type="curve" smooth="yes"/>
      <point x="577.538" y="297.795"/>
      <point x="551.983" y="306"/>
      <point x="531.224" y="306" type="curve" smooth="yes"/>
      <point x="472.219" y="307.52"/>
      <point x="415.065" y="286.324"/>
      <point x="357.224" y="291" type="curve" smooth="yes"/>
      <point x="322.484" y="293.809"/>
      <point x="267.224" y="295.373"/>
      <point x="267.224" y="342" type="curve" smooth="yes"/>
      <point x="267.224" y="352.262"/>
      <point x="270.224" y="363.464"/>
      <point x="270.224" y="372" type="curve" smooth="yes"/>
      <point x="270.224" y="377.945"/>
      <point x="255.24" y="375"/>
      <point x="252.224" y="375" type="curve" smooth="yes"/>
      <point x="211.793" y="375"/>
      <point x="195.224" y="345.575"/>
      <point x="195.224" y="312" type="curve" smooth="yes"/>
      <point x="195.224" y="279.162"/>
      <point x="177.782" y="273"/>
      <point x="144.224" y="273" type="curve" smooth="yes"/>
      <point x="64.2734" y="277.424"/>
      <point x="50.9365" y="386.314"/>
      <point x="54.2236" y="453" type="curve" smooth="yes"/>
      <point x="56.2607" y="494.322"/>
      <point x="67.8438" y="555"/>
      <point x="120.224" y="555" type="curve"/>
      <point x="137.521" y="559.304"/>
      <point x="142.803" y="538.414"/>
      <point x="153.224" y="528" type="curve" smooth="yes"/>
      <point x="162.185" y="519.046"/>
      <point x="171.224" y="490.809"/>
      <point x="171.224" y="480" type="curve"/>
    </contour>
  </outline>
</glyph>
<glyph name="parenright" format="1">
  <advance width="931"/>
  <unicode hex="0029"/>
  <outline>
    <contour>
      <point x="290.294" y="165" type="curve" smooth="yes"/>
      <point x="272.743" y="160.294"/>
      <point x="251.021" y="157.466"/>
      <point x="230.294" y="159" type="curve" smooth="yes"/>
      <point x="145.262" y="165.292"/>
      <point x="71.2939" y="213.616"/>
      <point x="71.2939" y="306" type="curve" smooth="yes"/>
      <point x="70.0957" y="340.311"/>
      <point x="130.558" y="316.121"/>
      <point x="152.294" y="324" type="curve" smooth="yes"/>
      <point x="170.2" y="330.49"/>
      <point x="182.294" y="307.568"/>
      <point x="182.294" y="330" type="curve" smooth="yes"/>
      <point x="177.316" y="383.147"/>
      <point x="145.765" y="435.456"/>
      <point x="101.294" y="462" type="curve" smooth="yes"/>
      <point x="38.291" y="499.605"/>
      <point x="59.4092" y="595.869"/>
      <point x="53.2939" y="660" type="curve" smooth="yes"/>
      <point x="49.5762" y="698.983"/>
      <point x="57.7451" y="774"/>
      <point x="107.294" y="774" type="curve" smooth="yes"/>
      <point x="252.079" y="774"/>
      <point x="391.18" y="681"/>
      <point x="536.294" y="681" type="curve" smooth="yes"/>
      <point x="577.557" y="681"/>
      <point x="616.105" y="696"/>
      <point x="656.294" y="696" type="curve"/>
      <point x="689.433" y="702.973"/>
      <point x="708.337" y="667.892"/>
      <point x="734.294" y="651" type="curve"/>
      <point x="785.461" y="598.606"/>
      <point x="883.442" y="563.312"/>
      <point x="878.294" y="474" type="curve" smooth="yes"/>
      <point x="873.913" y="398.005"/>
      <point x="853.418" y="411"/>
      <point x="761.294" y="411" type="curve" smooth="yes"/>
      <point x="700.249" y="411"/>
      <point x="646.936" y="438"/>
      <point x="587.294" y="438" type="curve" smooth="yes"/>
      <point x="563.593" y="438"/>
      <point x="542.294" y="429.296"/>
      <point x="542.294" y="405" type="curve" smooth="yes"/>
      <point x="540.956" y="389.665"/>
      <point x="556.207" y="383.615"/>
      <point x="566.294" y="375" type="curve"/>
      <point x="607.172" y="363.472"/>
      <point x="610.405" y="302.13"/>
      <point x="596.294" y="267" type="curve"/>
      <point x="571.465" y="235.03"/>
      <point x="524.685" y="220.783"/>
      <point x="533.294" y="177" type="curve" smooth="yes"/>
      <point x="539.871" y="143.549"/>
      <point x="513.696" y="123"/>
      <point x="485.294" y="123" type="curve" smooth="yes"/>
      <point x="470.948" y="123"/>
      <point x="461.784" y="120.972"/>
      <point x="452.294" y="129" type="curve" smooth="yes"/>
      <point x="416.081" y="159.634"/>
      <point x="381.544" y="189.467"/>
    </contour>
  </outline>
</glyph>
<glyph name="asterisk" format="1">
  <advance width="988"/>
  <unicode hex="002A"/>
  <outline>
    <contour>
      <point x="102.5" y="309" type="line" smooth="yes"/>
      <point x="107.688" y="309"/>
      <point x="134.4" y="273.802"/>
      <point x="141.5" y="273" type="curve" smooth="yes"/>
      <point x="228.389" y="263.182"/>
      <point x="350.202" y="307.925"/>
      <point x="333.5" y="414" type="curve" smooth="yes"/>
      <point x="304.536" y="597.947"/>
      <point x="669.82" y="762"/>
      <point x="822.5" y="762" type="curve" smooth="yes"/>
      <point x="883.533" y="762"/>
      <point x="939.5" y="729.966"/>
      <point x="939.5" y="666" type="curve" smooth="yes"/>
      <point x="939.5" y="624.192"/>
      <point x="898.276" y="594.478"/>
      <point x="858.5" y="591" type="curve" smooth="yes"/>
      <point x="819.012" y="587.548"/>
      <point x="768.5" y="558.801"/>
      <point x="768.5" y="519" type="curve" smooth="yes"/>
      <point x="768.5" y="490.869"/>
      <point x="783.5" y="468.023"/>
      <point x="783.5" y="441" type="curve" smooth="yes"/>
      <point x="793.099" y="347.504"/>
      <point x="713.812" y="282.465"/>
      <point x="696.5" y="198" type="curve" smooth="yes"/>
      <point x="677.348" y="104.559"/>
      <point x="673.12" y="66"/>
      <point x="573.5" y="66" type="curve" smooth="yes"/>
      <point x="519.924" y="66"/>
      <point x="498.179" y="123"/>
      <point x="444.5" y="123" type="curve" smooth="yes"/>
      <point x="393.069" y="125.034"/>
      <point x="355.438" y="93.0137"/>
      <point x="318.5" y="63" type="curve"/>
      <point x="300.884" y="54.916"/>
      <point x="288.275" y="43.6582"/>
      <point x="267.5" y="45" type="curve"/>
      <point x="222.824" y="35.874"/>
      <point x="192.349" y="59.5879"/>
      <point x="156.5" y="72" type="curve" smooth="yes"/>
      <point x="128.005" y="81.8652"/>
      <point x="117.095" y="103.314"/>
      <point x="123.5" y="132" type="curve" smooth="yes"/>
      <point x="136.989" y="192.409"/>
      <point x="48.5" y="200.773"/>
      <point x="48.5" y="258" type="curve" smooth="yes"/>
      <point x="48.5" y="280.605"/>
      <point x="62.4854" y="288.302"/>
      <point x="69.5" y="303" type="curve"/>
    </contour>
  </outline>
</glyph>
<glyph name="plus" format="1">
  <advance width="908"/>
  <unicode hex="002B"/>
  <outline>
    <contour>
      <point x="112" y="213" type="line"/>
      <point x="52" y="291" type="line"/>
      <point x="52" y="318" type="line"/>
      <point x="72.1807" y="329.027"/>
      <point x="55" y="389"/>
      <point x="73" y="429" type="curve" smooth="yes"/>
      <point x="105" y="498"/>
      <point x="103.464" y="582.086"/>
      <point x="178" y="594" type="curve" smooth="yes"/>
      <point x="197.115" y="597.056"/>
      <point x="203.948" y="591.796"/>
      <point x="214" y="576" type="curve" smooth="yes"/>
      <point x="234.067" y="544.466"/>
      <point x="274.058" y="462"/>
      <point x="319" y="462" type="curve" smooth="yes"/>
      <point x="341.722" y="458.598"/>
      <point x="358.97" y="472.51"/>
      <point x="379" y="477" type="curve"/>
      <point x="406.269" y="494.193"/>
      <point x="436.761" y="516.399"/>
      <point x="472" y="528" type="curve" smooth="yes"/>
      <point x="545.72" y="552.27"/>
      <point x="607.106" y="582"/>
      <point x="694" y="582" type="curve" smooth="yes"/>
      <point x="767.681" y="582"/>
      <point x="856" y="543.149"/>
      <point x="856" y="462" type="curve"/>
      <point x="845.818" y="420.409"/>
      <point x="773.425" y="449.057"/>
      <point x="742" y="444" type="curve" smooth="yes"/>
      <point x="675.474" y="433.295"/>
      <point x="603.014" y="459"/>
      <point x="538" y="459" type="curve" smooth="yes"/>
      <point x="518.539" y="459"/>
      <point x="514" y="447.967"/>
      <point x="514" y="429" type="curve" smooth="yes"/>
      <point x="512.717" y="402.586"/>
      <point x="546.958" y="393.354"/>
      <point x="559" y="372" type="curve" smooth="yes"/>
      <point x="593.275" y="306.579"/>
      <point x="695.165" y="321.755"/>
      <point x="724" y="252" type="curve" smooth="yes"/>
      <point x="733.096" y="229.997"/>
      <point x="742" y="222.675"/>
      <point x="742" y="201" type="curve" smooth="yes"/>
      <point x="742" y="173.977"/>
      <point x="718.776" y="156"/>
      <point x="694" y="156" type="curve" smooth="yes"/>
      <point x="641.487" y="156"/>
      <point x="604.612" y="273"/>
      <point x="535" y="273" type="curve" smooth="yes"/>
      <point x="420.872" y="273"/>
      <point x="319.414" y="171"/>
      <point x="193" y="171" type="curve" smooth="yes"/>
      <point x="156.835" y="171"/>
      <point x="151" y="207.481"/>
      <point x="151" y="237" type="curve" smooth="yes"/>
      <point x="151" y="252.357"/>
      <point x="162.152" y="264"/>
      <point x="178" y="264" type="curve" smooth="yes"/>
      <point x="226" y="264" type="line" smooth="yes"/>
      <point x="266.133" y="264"/>
      <point x="298" y="285.794"/>
      <point x="298" y="330" type="curve"/>
      <point x="308.079" y="372.499"/>
      <point x="265.058" y="376.998"/>
      <point x="238" y="387" type="curve" smooth="yes"/>
      <point x="214.815" y="395.57"/>
      <point x="187" y="382.344"/>
      <point x="187" y="414" type="curve" smooth="yes"/>
      <point x="187" y="431.786"/>
      <point x="205" y="437.887"/>
      <point x="205" y="453" type="curve" smooth="yes"/>
      <point x="205" y="471.795"/>
      <point x="184.932" y="486"/>
      <point x="169" y="486" type="curve" smooth="yes"/>
      <point x="153.523" y="486"/>
      <point x="106" y="420.179"/>
      <point x="106" y="402" type="curve"/>
      <point x="114.758" y="391.041"/>
      <point x="134.77" y="390.404"/>
      <point x="151" y="384" type="curve" smooth="yes"/>
      <point x="170.845" y="376.17"/>
      <point x="196" y="374.569"/>
      <point x="196" y="348" type="curve" smooth="yes"/>
      <point x="196" y="322.989"/>
      <point x="165.517" y="315.064"/>
      <point x="154" y="303" type="curve" smooth="yes"/>
      <point x="109" y="255" type="line"/>
    </contour>
  </outline>
</glyph>
<glyph name="comma" format="1">
  <advance width="757"/>
  <unicode hex="002C"/>
  <outline>
    <contour>
      <point x="615.5" y="591" type="curve"/>
      <point x="636.5" y="594" type="line"/>
      <point x="642.085" y="604.705"/>
      <point x="648.5" y="606.126"/>
      <point x="648.5" y="618" type="curve" smooth="yes"/>
      <point x="648.5" y="658.282"/>
      <point x="540.091" y="694.521"/>
      <point x="501.5" y="687" type="curve" smooth="yes"/>
      <point x="448.515" y="676.674"/>
      <point x="408.268" y="704.91"/>
      <point x="363.5" y="708" type="curve" smooth="yes"/>
      <point x="271.79" y="712.191"/>
      <point x="191.267" y="690.679"/>
      <point x="114.5" y="666" type="curve" smooth="yes"/>
      <point x="105.888" y="666"/>
      <point x="45.5" y="659.28"/>
      <point x="45.5" y="672" type="curve" smooth="yes"/>
      <point x="45.5" y="765.2"/>
      <point x="177.442" y="768"/>
      <point x="252.5" y="768" type="curve" smooth="yes"/>
      <point x="282.5" y="768" type="line" smooth="yes"/>
      <point x="316.566" y="768"/>
      <point x="369.085" y="783"/>
      <point x="408.5" y="783" type="curve" smooth="yes"/>
      <point x="491.394" y="783"/>
      <point x="711.5" y="775.125"/>
      <point x="711.5" y="648" type="curve" smooth="yes"/>
      <point x="711.5" y="553.921"/>
      <point x="687.188" y="533.741"/>
      <point x="603.5" y="537" type="curve" smooth="yes"/>
      <point x="549.652" y="539.097"/>
      <point x="500.902" y="562.336"/>
      <point x="447.5" y="555" type="curve" smooth="yes"/>
      <point x="441.44" y="555"/>
      <point x="408.5" y="555.158"/>
      <point x="408.5" y="552" type="curve" smooth="yes"/>
      <point x="408.5" y="518.464"/>
      <point x="528.5" y="499.471"/>
      <point x="528.5" y="450" type="curve" smooth="yes"/>
      <point x="528.5" y="404.002"/>
      <point x="443.474" y="294"/>
      <point x="393.5" y="294" type="curve" smooth="yes"/>
      <point x="377.335" y="294"/>
      <point x="314.897" y="424.651"/>
      <point x="306.5" y="447" type="curve" smooth="yes"/>
      <point x="289.596" y="491.989"/>
      <point x="247.65" y="527.016"/>
      <point x="243.5" y="576" type="curve"/>
      <point x="243.5" y="546.388"/>
      <point x="264.5" y="524.3"/>
      <point x="264.5" y="489" type="curve" smooth="yes"/>
      <point x="264.5" y="402.686"/>
      <point x="213.5" y="359.837"/>
      <point x="213.5" y="276" type="curve" smooth="yes"/>
      <point x="213.5" y="213.608"/>
      <point x="273.5" y="178.887"/>
      <point x="273.5" y="126" type="curve" smooth="yes"/>
      <point x="273.5" y="94.2461"/>
      <point x="249.774" y="54"/>
      <point x="216.5" y="54" type="curve" smooth="yes"/>
      <point x="153.286" y="54"/>
      <point x="105.5" y="113.923"/>
      <point x="105.5" y="174" type="curve" smooth="yes"/>
      <point x="105.5" y="268.302"/>
      <point x="186.5" y="337.977"/>
      <point x="186.5" y="417" type="curve" smooth="yes"/>
      <point x="186.5" y="464.325"/>
      <point x="159.5" y="505.536"/>
      <point x="159.5" y="555" type="curve" smooth="yes"/>
      <point x="159.5" y="625.352"/>
      <point x="163.096" y="663"/>
      <point x="249.5" y="663" type="curve" smooth="yes"/>
      <point x="364.5" y="663"/>
      <point x="507.764" y="635.424"/>
    </contour>
  </outline>
</glyph>
<glyph name="hyphen" format="1">
  <advance width="996"/>
  <unicode hex="002D"/>
  <outline>
    <contour>
      <point x="835.495" y="471" type="curve" smooth="yes"/>
      <point x="916.495" y="441" type="line"/>
      <point x="943.274" y="424.053"/>
      <point x="945.736" y="410.03"/>
      <point x="946.495" y="375" type="curve" smooth="yes"/>
      <point x="947.527" y="327.329"/>
      <point x="868.259" y="320.178"/>
      <point x="892.495" y="258" type="curve"/>
      <point x="892.495" y="230.567"/>
      <point x="895.435" y="203.767"/>
      <point x="901.495" y="177" type="curve" smooth="yes"/>
      <point x="912.562" y="128.123"/>
      <point x="878.373" y="81.8711"/>
      <point x="826.495" y="99" type="curve"/>
      <point x="765.619" y="99"/>
      <point x="729.868" y="165"/>
      <point x="652.495" y="165" type="curve" smooth="yes"/>
      <point x="520.566" y="165"/>
      <point x="413.972" y="98.6396"/>
      <point x="280.495" y="111" type="curve" smooth="yes"/>
      <point x="246.631" y="114.136"/>
      <point x="181.557" y="95.1484"/>
      <point x="184.495" y="147" type="curve" smooth="yes"/>
      <point x="184.495" y="242.237"/>
      <point x="370.495" y="175.459"/>
      <point x="370.495" y="282" type="curve" smooth="yes"/>
      <point x="370.495" y="289.497"/>
      <point x="362.94" y="318"/>
      <point x="352.495" y="318" type="curve" smooth="yes"/>
      <point x="316.495" y="318" type="line" smooth="yes"/>
      <point x="274.516" y="318"/>
      <point x="49.4951" y="370.221"/>
      <point x="49.4951" y="420" type="curve" smooth="yes"/>
      <point x="49.4951" y="474.979"/>
      <point x="98.667" y="515.441"/>
      <point x="154.495" y="516" type="curve" smooth="yes"/>
      <point x="235.339" y="516.809"/>
      <point x="247.518" y="660.623"/>
      <point x="355.495" y="621" type="curve"/>
      <point x="431.67" y="621"/>
      <point x="464.663" y="513"/>
      <point x="556.495" y="513" type="curve" smooth="yes"/>
      <point x="605.005" y="513"/>
      <point x="593.836" y="627"/>
      <point x="688.495" y="627" type="curve" smooth="yes"/>
      <point x="755.217" y="627"/>
      <point x="767.616" y="496.141"/>
    </contour>
  </outline>
</glyph>
<glyph name="period" format="1">
  <advance width="962"/>
  <unicode hex="002E"/>
  <outline>
    <contour>
      <point x="56.9863" y="398.908" type="line"/>
      <point x="119.022" y="426.365"/>
      <point x="307.885" y="639"/>
      <point x="481" y="639" type="curve" smooth="yes"/>
      <point x="578.212" y="639"/>
      <point x="916" y="450.885"/>
      <point x="916" y="330" type="curve" smooth="yes"/>
      <point x="916" y="241.375"/>
      <point x="834.586" y="276"/>
      <point x="760" y="276" type="curve" smooth="yes"/>
      <point x="697.136" y="276"/>
      <point x="642.373" y="300"/>
      <point x="583" y="300" type="curve"/>
      <point x="520.674" y="236.023"/>
      <point x="480.609" y="143.351"/>
      <point x="361" y="165" type="curve" smooth="yes"/>
      <point x="252.734" y="184.597"/>
      <point x="106" y="123.106"/>
      <point x="106" y="315" type="curve" smooth="yes"/>
      <point x="106" y="337.378"/>
      <point x="149.22" y="351"/>
      <point x="169" y="351" type="curve" smooth="yes"/>
      <point x="210.136" y="347.014"/>
      <point x="249.431" y="359.708"/>
      <point x="292" y="360" type="curve" smooth="yes"/>
      <point x="313.59" y="360.148"/>
      <point x="337.304" y="363"/>
      <point x="361" y="363" type="curve" smooth="yes"/>
      <point x="379.957" y="363"/>
      <point x="409" y="385.444"/>
      <point x="409" y="405" type="curve" smooth="yes"/>
      <point x="409" y="415.809"/>
      <point x="379.606" y="447"/>
      <point x="367" y="447" type="curve" smooth="yes"/>
      <point x="349" y="447" type="line" smooth="yes"/>
      <point x="329.668" y="447"/>
      <point x="298" y="471.406"/>
      <point x="298" y="486" type="curve" smooth="yes"/>
      <point x="297.457" y="524.859"/>
      <point x="353.322" y="499.812"/>
      <point x="379" y="507" type="curve" smooth="yes"/>
      <point x="444.263" y="525.269"/>
      <point x="468" y="453"/>
      <point x="532" y="450" type="curve" smooth="yes"/>
      <point x="572" y="448"/>
      <point x="645.659" y="489.463"/>
      <point x="625" y="495" type="curve" smooth="yes"/>
      <point x="560.887" y="512.183"/>
      <point x="502.677" y="565.16"/>
      <point x="436" y="564" type="curve" smooth="yes"/>
      <point x="283.364" y="561.344"/>
      <point x="256.936" y="491.828"/>
      <point x="148" y="423" type="curve"/>
    </contour>
    <contour>
      <point x="56.9863" y="398.908" type="line" smooth="yes"/>
      <point x="52.7041" y="397.013"/>
      <point x="49.0264" y="396"/>
      <point x="46" y="396" type="curve" smooth="yes"/>
    </contour>
  </outline>
</glyph>
<glyph name="slash" format="1">
  <advance width="1286"/>
  <unicode hex="002F"/>
  <outline>
    <contour>
      <point x="223.758" y="483" type="line"/>
      <point x="298.758" y="507" type="line"/>
      <point x="409.701" y="577.887"/>
      <point x="508.349" y="654.743"/>
      <point x="655.758" y="621" type="curve"/>
      <point x="921.136" y="683.43"/>
      <point x="1089.99" y="537.44"/>
      <point x="1213.76" y="333" type="curve" smooth="yes"/>
      <point x="1228.56" y="308.544"/>
      <point x="1237.76" y="309.64"/>
      <point x="1237.76" y="279" type="curve" smooth="yes"/>
      <point x="1237.76" y="215.927"/>
      <point x="1130.18" y="159"/>
      <point x="1075.76" y="159" type="curve" smooth="yes"/>
      <point x="972.739" y="159"/>
      <point x="913.166" y="303"/>
      <point x="790.758" y="303" type="curve" smooth="yes"/>
      <point x="647.054" y="303"/>
      <point x="525.992" y="207"/>
      <point x="382.758" y="207" type="curve" smooth="yes"/>
      <point x="336.945" y="207"/>
      <point x="343.758" y="272.895"/>
      <point x="343.758" y="306" type="curve" smooth="yes"/>
      <point x="343.758" y="395.372"/>
      <point x="431.528" y="414"/>
      <point x="505.758" y="414" type="curve" smooth="yes"/>
      <point x="624.42" y="414"/>
      <point x="740.829" y="380.105"/>
      <point x="862.758" y="390" type="curve" smooth="yes"/>
      <point x="878.746" y="391.298"/>
      <point x="964.758" y="379.6"/>
      <point x="964.758" y="399" type="curve" smooth="yes"/>
      <point x="964.758" y="472.237"/>
      <point x="681.238" y="474"/>
      <point x="628.758" y="474" type="curve" smooth="yes"/>
      <point x="595.021" y="474"/>
      <point x="298.758" y="488.65"/>
      <point x="298.758" y="429" type="curve" smooth="yes"/>
      <point x="295.268" y="399.231"/>
      <point x="317.161" y="376.852"/>
      <point x="310.758" y="345" type="curve" smooth="yes"/>
      <point x="307.175" y="327.176"/>
      <point x="317.053" y="291"/>
      <point x="292.758" y="291" type="curve" smooth="yes"/>
      <point x="205.253" y="280.548"/>
      <point x="119.499" y="364.828"/>
      <point x="124.758" y="450" type="curve" smooth="yes"/>
      <point x="128.875" y="516.681"/>
      <point x="25.7549" y="528.303"/>
      <point x="52.7578" y="609" type="curve" smooth="yes"/>
      <point x="59.8262" y="630.124"/>
      <point x="41.0635" y="645"/>
      <point x="73.7578" y="645" type="curve" smooth="yes"/>
      <point x="149.097" y="645"/>
      <point x="161.528" y="604.326"/>
      <point x="202.758" y="585" type="curve"/>
      <point x="211.758" y="510" type="line"/>
    </contour>
  </outline>
</glyph>
<glyph name="zero" format="1">
  <advance width="725"/>
  <unicode hex="0030"/>
  <outline>
    <contour>
      <point x="457.229" y="244.538" type="curve"/>
      <point x="430.653" y="167.392"/>
      <point x="387.748" y="116.428"/>
      <point x="339.014" y="114.084" type="curve" smooth="yes"/>
      <point x="329.165" y="110.096"/>
      <point x="318.959" y="108"/>
      <point x="308.5" y="108" type="curve" smooth="yes"/>
      <point x="276.97" y="108"/>
      <point x="247.748" y="127.049"/>
      <point x="223.632" y="159.556" type="curve"/>
      <point x="128.626" y="167.783"/>
      <point x="53.5" y="266.439"/>
      <point x="53.5" y="388" type="curve" smooth="yes"/>
      <point x="53.5" y="487.632"/>
      <point x="103.966" y="572.492"/>
      <point x="174.481" y="604.44" type="curve"/>
      <point x="185.296" y="653.774"/>
      <point x="216.998" y="689.853"/>
      <point x="255.396" y="692.805" type="curve"/>
      <point x="278.555" y="723.336"/>
      <point x="306.019" y="741"/>
      <point x="335.5" y="741" type="curve" smooth="yes"/>
      <point x="374.592" y="741"/>
      <point x="410.135" y="709.943"/>
      <point x="436.8" y="659.011" type="curve"/>
      <point x="444.254" y="659.665"/>
      <point x="451.828" y="660"/>
      <point x="459.5" y="660" type="curve" smooth="yes"/>
      <point x="576.5" y="660"/>
      <point x="671.5" y="582"/>
      <point x="671.5" y="486" type="curve" smooth="yes"/>
      <point x="671.5" y="439.414"/>
      <point x="649.129" y="397.066"/>
      <point x="612.729" y="365.814" type="curve" smooth="yes"/>
      <point x="607.71" y="357.397"/>
      <point x="601.928" y="349.286"/>
      <point x="595.446" y="341.533" type="curve"/>
      <point x="587.096" y="292.419"/>
      <point x="530.036" y="252.7"/>
    </contour>
  </outline>
</glyph>
<glyph name="one" format="1">
  <advance width="1367"/>
  <unicode hex="0031"/>
  <outline>
    <contour>
      <point x="221.5" y="642" type="curve"/>
      <point x="208.833" y="652.667"/>
      <point x="214.833" y="660.667"/>
      <point x="239.5" y="666" type="curve" smooth="yes"/>
      <point x="239.592" y="666.02"/>
      <point x="251.5" y="668.323"/>
      <point x="251.5" y="672" type="curve" smooth="yes"/>
      <point x="251.5" y="683.099"/>
      <point x="232.332" y="678"/>
      <point x="224.5" y="678" type="curve" smooth="yes"/>
      <point x="203.226" y="678"/>
      <point x="110.5" y="664.458"/>
      <point x="110.5" y="693" type="curve" smooth="yes"/>
      <point x="110.5" y="711.821"/>
      <point x="118.873" y="735"/>
      <point x="140.5" y="735" type="curve" smooth="yes"/>
      <point x="226.224" y="735"/>
      <point x="312.233" y="718.051"/>
      <point x="404.5" y="723" type="curve" smooth="yes"/>
      <point x="652.574" y="736.307"/>
      <point x="371.679" y="687.798"/>
      <point x="275.5" y="681" type="curve"/>
      <point x="275.5" y="644.038"/>
      <point x="755.5" y="628.572"/>
      <point x="755.5" y="525" type="curve" smooth="yes"/>
      <point x="755.5" y="459.437"/>
      <point x="521.5" y="492.948"/>
      <point x="521.5" y="462" type="curve" smooth="yes"/>
      <point x="521.5" y="447.462"/>
      <point x="560.5" y="448.765"/>
      <point x="560.5" y="435" type="curve" smooth="yes"/>
      <point x="560.5" y="429.799"/>
      <point x="554.5" y="432.939"/>
      <point x="554.5" y="426" type="curve" smooth="yes"/>
      <point x="554.5" y="373.247"/>
      <point x="1220.27" y="177"/>
      <point x="1292.5" y="177" type="curve" smooth="yes"/>
      <point x="1322.5" y="177" type="line" smooth="yes"/>
      <point x="1322.42" y="177"/>
      <point x="1322.71" y="168"/>
      <point x="956.5" y="168" type="curve" smooth="yes"/>
      <point x="887.499" y="168"/>
      <point x="407.5" y="199.857"/>
      <point x="407.5" y="237" type="curve" smooth="yes"/>
      <point x="407.5" y="381.284"/>
      <point x="44.5" y="348.465"/>
      <point x="44.5" y="519" type="curve" smooth="yes"/>
      <point x="44.5" y="598.332"/>
      <point x="227.5" y="620.424"/>
      <point x="227.5" y="636" type="curve" smooth="yes"/>
      <point x="227.5" y="643.007"/>
      <point x="220.687" y="635.465"/>
    </contour>
  </outline>
</glyph>
<glyph name="two" format="1">
  <advance width="918"/>
  <unicode hex="0032"/>
  <outline>
    <contour>
      <point x="154.879" y="690" type="line"/>
      <point x="217.364" y="690"/>
      <point x="255.749" y="642"/>
      <point x="319.879" y="642" type="curve" smooth="yes"/>
      <point x="406.202" y="642"/>
      <point x="769.879" y="548.119"/>
      <point x="769.879" y="450" type="curve" smooth="yes"/>
      <point x="769.879" y="423" type="line" smooth="yes"/>
      <point x="769.879" y="416.468"/>
      <point x="871.879" y="350.567"/>
      <point x="871.879" y="285" type="curve" smooth="yes"/>
      <point x="871.879" y="250.715"/>
      <point x="796.34" y="286.295"/>
      <point x="772.879" y="273" type="curve" smooth="yes"/>
      <point x="717.069" y="241.374"/>
      <point x="622.879" y="315.255"/>
      <point x="622.879" y="198" type="curve" smooth="yes"/>
      <point x="622.879" y="177" type="line" smooth="yes"/>
      <point x="622.879" y="145.296"/>
      <point x="433.361" y="150"/>
      <point x="412.879" y="150" type="curve" smooth="yes"/>
      <point x="374.049" y="150"/>
      <point x="358.879" y="217.377"/>
      <point x="358.879" y="252" type="curve" smooth="yes"/>
      <point x="358.879" y="286.345"/>
      <point x="505.879" y="272.955"/>
      <point x="505.879" y="309" type="curve" smooth="yes"/>
      <point x="505.879" y="324.326"/>
      <point x="325.618" y="354"/>
      <point x="292.879" y="354" type="curve" smooth="yes"/>
      <point x="250.352" y="354"/>
      <point x="262.869" y="294"/>
      <point x="232.879" y="294" type="curve" smooth="yes"/>
      <point x="160.828" y="294"/>
      <point x="109.879" y="357.997"/>
      <point x="109.879" y="426" type="curve" smooth="yes"/>
      <point x="109.879" y="509.608"/>
      <point x="203.321" y="462.083"/>
      <point x="247.879" y="474" type="curve" smooth="yes"/>
      <point x="268.778" y="479.59"/>
      <point x="316.879" y="462.027"/>
      <point x="316.879" y="501" type="curve"/>
      <point x="298.187" y="537.682"/>
      <point x="236.089" y="524.113"/>
      <point x="202.879" y="546" type="curve" smooth="yes"/>
      <point x="188.439" y="555.517"/>
      <point x="171.684" y="564"/>
      <point x="151.879" y="564" type="curve"/>
      <point x="103.305" y="552.693"/>
      <point x="38.376" y="586.951"/>
      <point x="46.8789" y="642" type="curve" smooth="yes"/>
      <point x="50.0742" y="662.69"/>
      <point x="49.1953" y="732"/>
      <point x="82.8789" y="732" type="curve" smooth="yes"/>
      <point x="95.6943" y="732"/>
      <point x="114.214" y="700.866"/>
      <point x="121.879" y="693" type="curve"/>
    </contour>
  </outline>
</glyph>
<glyph name="three" format="1">
  <advance width="727"/>
  <unicode hex="0033"/>
  <outline>
    <contour>
      <point x="438.5" y="561" type="line"/>
      <point x="480.5" y="564" type="line"/>
      <point x="462.998" y="591.934"/>
      <point x="505.672" y="590.385"/>
      <point x="522.5" y="585" type="curve" smooth="yes"/>
      <point x="591.494" y="562.923"/>
      <point x="553.969" y="660"/>
      <point x="624.5" y="660" type="curve" smooth="yes"/>
      <point x="648.643" y="660"/>
      <point x="681.5" y="666.582"/>
      <point x="681.5" y="633" type="curve" smooth="yes"/>
      <point x="681.5" y="590.356"/>
      <point x="618.5" y="591.577"/>
      <point x="618.5" y="564" type="curve" smooth="yes"/>
      <point x="618.5" y="552.246"/>
      <point x="630.5" y="544.908"/>
      <point x="630.5" y="531" type="curve" smooth="yes"/>
      <point x="630.5" y="400.974"/>
      <point x="441.5" y="377.666"/>
      <point x="441.5" y="276" type="curve" smooth="yes"/>
      <point x="441.5" y="238.3"/>
      <point x="534.5" y="227.584"/>
      <point x="534.5" y="171" type="curve" smooth="yes"/>
      <point x="534.5" y="122.479"/>
      <point x="510.642" y="99"/>
      <point x="462.5" y="99" type="curve" smooth="yes"/>
      <point x="455.938" y="99"/>
      <point x="447.5" y="97.375"/>
      <point x="447.5" y="105" type="curve" smooth="yes"/>
      <point x="447.5" y="116.331"/>
      <point x="465.5" y="132.34"/>
      <point x="465.5" y="150" type="curve" smooth="yes"/>
      <point x="465.5" y="171.066"/>
      <point x="435.811" y="177"/>
      <point x="417.5" y="177" type="curve" smooth="yes"/>
      <point x="330.5" y="177" type="line" smooth="yes"/>
      <point x="280.553" y="177"/>
      <point x="120.5" y="173.707"/>
      <point x="120.5" y="258" type="curve" smooth="yes"/>
      <point x="120.5" y="330.672"/>
      <point x="261.5" y="297.946"/>
      <point x="261.5" y="399" type="curve" smooth="yes"/>
      <point x="261.5" y="403.973"/>
      <point x="279.5" y="416.532"/>
      <point x="279.5" y="429" type="curve" smooth="yes"/>
      <point x="279.5" y="560.048"/>
      <point x="45.5" y="511.376"/>
      <point x="45.5" y="591" type="curve" smooth="yes"/>
      <point x="45.5" y="609.25"/>
      <point x="60.3115" y="603"/>
      <point x="78.5" y="603" type="curve" smooth="yes"/>
      <point x="192.793" y="603"/>
      <point x="306.157" y="585"/>
      <point x="420.5" y="585" type="curve"/>
    </contour>
  </outline>
</glyph>
<glyph name="four" format="1">
  <advance width="786"/>
  <unicode hex="0034"/>
  <outline>
    <contour>
      <point x="225" y="657" type="curve"/>
      <point x="249" y="660" type="line"/>
      <point x="293.491" y="678.599"/>
      <point x="322.125" y="711"/>
      <point x="372" y="711" type="curve" smooth="yes"/>
      <point x="410.848" y="711"/>
      <point x="417.426" y="664.325"/>
      <point x="435" y="645" type="curve" smooth="yes"/>
      <point x="444.91" y="634.103"/>
      <point x="443.878" y="608.368"/>
      <point x="465" y="606" type="curve" smooth="yes"/>
      <point x="471.639" y="606"/>
      <point x="474.278" y="609"/>
      <point x="483" y="609" type="curve" smooth="yes"/>
      <point x="513.726" y="609"/>
      <point x="540.325" y="591"/>
      <point x="573" y="591" type="curve" smooth="yes"/>
      <point x="593.187" y="591"/>
      <point x="615.818" y="615"/>
      <point x="645" y="615" type="curve" smooth="yes"/>
      <point x="691.759" y="615"/>
      <point x="735" y="618.494"/>
      <point x="735" y="564" type="curve" smooth="yes"/>
      <point x="735" y="460.286"/>
      <point x="633" y="371.134"/>
      <point x="633" y="288" type="curve" smooth="yes"/>
      <point x="633" y="236.575"/>
      <point x="738" y="239.581"/>
      <point x="738" y="198" type="curve" smooth="yes"/>
      <point x="738" y="180.776"/>
      <point x="723.584" y="156"/>
      <point x="708" y="156" type="curve" smooth="yes"/>
      <point x="640.225" y="156"/>
      <point x="588.99" y="204"/>
      <point x="531" y="204" type="curve" smooth="yes"/>
      <point x="450.162" y="204"/>
      <point x="419.618" y="108"/>
      <point x="327" y="108" type="curve" smooth="yes"/>
      <point x="263.937" y="108"/>
      <point x="48" y="65.5732"/>
      <point x="48" y="159" type="curve" smooth="yes"/>
      <point x="48" y="203.666"/>
      <point x="109.013" y="233.453"/>
      <point x="105" y="279" type="curve" smooth="yes"/>
      <point x="93.7852" y="406.279"/>
      <point x="191.615" y="438.456"/>
      <point x="276" y="504" type="curve"/>
      <point x="276" y="583.281"/>
      <point x="69" y="582.662"/>
      <point x="69" y="654" type="curve" smooth="yes"/>
      <point x="69" y="670.47"/>
      <point x="134.526" y="675"/>
      <point x="144" y="675" type="curve" smooth="yes"/>
      <point x="156.208" y="675"/>
      <point x="190" y="689"/>
    </contour>
  </outline>
</glyph>
<glyph name="five" format="1">
  <advance width="914"/>
  <unicode hex="0035"/>
  <outline>
    <contour>
      <point x="382" y="621" type="curve"/>
      <point x="388" y="600" type="line"/>
      <point x="388" y="585" type="line" smooth="yes"/>
      <point x="388" y="574.687"/>
      <point x="371.866" y="535.556"/>
      <point x="350.88" y="490.611" type="curve"/>
      <point x="360.188" y="495.134"/>
      <point x="368.824" y="496.026"/>
      <point x="376" y="492" type="curve"/>
      <point x="376" y="461.531"/>
      <point x="355" y="434.135"/>
      <point x="355" y="402" type="curve" smooth="yes"/>
      <point x="355" y="379.233"/>
      <point x="357.771" y="363"/>
      <point x="385" y="363" type="curve" smooth="yes"/>
      <point x="482.94" y="363"/>
      <point x="499" y="455.44"/>
      <point x="499" y="534" type="curve" smooth="yes"/>
      <point x="499" y="654" type="line" smooth="yes"/>
      <point x="499" y="686.652"/>
      <point x="493.836" y="732"/>
      <point x="529" y="732" type="curve" smooth="yes"/>
      <point x="584.529" y="732"/>
      <point x="736" y="685.713"/>
      <point x="736" y="618" type="curve" smooth="yes"/>
      <point x="736" y="519.632"/>
      <point x="556" y="503.876"/>
      <point x="556" y="417" type="curve" smooth="yes"/>
      <point x="556" y="370.016"/>
      <point x="865" y="343.762"/>
      <point x="865" y="168" type="curve" smooth="yes"/>
      <point x="865" y="156.457"/>
      <point x="863.837" y="39"/>
      <point x="859" y="39" type="curve" smooth="yes"/>
      <point x="829.042" y="39"/>
      <point x="807.833" y="180"/>
      <point x="736" y="180" type="curve" smooth="yes"/>
      <point x="653.564" y="180"/>
      <point x="598.453" y="48"/>
      <point x="478" y="48" type="curve" smooth="yes"/>
      <point x="268.514" y="48"/>
      <point x="49" y="106.604"/>
      <point x="49" y="354" type="curve" smooth="yes"/>
      <point x="49" y="439.816"/>
      <point x="289" y="364.129"/>
      <point x="289" y="468" type="curve" smooth="yes"/>
      <point x="289" y="538.211"/>
      <point x="178" y="561.421"/>
      <point x="178" y="636" type="curve" smooth="yes"/>
      <point x="178" y="666.136"/>
      <point x="191.922" y="660"/>
      <point x="220" y="660" type="curve" smooth="yes"/>
      <point x="270.933" y="660"/>
      <point x="333.779" y="641.828"/>
    </contour>
  </outline>
</glyph>
<glyph name="six" format="1">
  <advance width="501"/>
  <unicode hex="0036"/>
  <outline>
    <contour>
      <point x="131.809" y="627" type="line"/>
      <point x="138.363" y="623.333"/>
      <point x="126.662" y="630"/>
      <point x="140.809" y="630" type="curve" smooth="yes"/>
      <point x="186.292" y="630"/>
      <point x="395.809" y="619.116"/>
      <point x="395.809" y="561" type="curve" smooth="yes"/>
      <point x="395.809" y="519.991"/>
      <point x="383.809" y="481.926"/>
      <point x="383.809" y="441" type="curve" smooth="yes"/>
      <point x="383.809" y="403.812"/>
      <point x="452.809" y="399.356"/>
      <point x="452.809" y="387" type="curve" smooth="yes"/>
      <point x="452.809" y="380.34"/>
      <point x="407.809" y="384.707"/>
      <point x="407.809" y="378" type="curve" smooth="yes"/>
      <point x="407.809" y="357" type="line" smooth="yes"/>
      <point x="407.809" y="334.851"/>
      <point x="362.809" y="352.649"/>
      <point x="362.809" y="333" type="curve" smooth="yes"/>
      <point x="362.809" y="284.489"/>
      <point x="452.809" y="244.061"/>
      <point x="452.809" y="207" type="curve" smooth="yes"/>
      <point x="452.809" y="164.274"/>
      <point x="370.87" y="153"/>
      <point x="338.809" y="153" type="curve"/>
      <point x="281.715" y="164.784"/>
      <point x="239.687" y="233.655"/>
      <point x="251.809" y="291" type="curve" smooth="yes"/>
      <point x="265.786" y="357.13"/>
      <point x="215.809" y="396.979"/>
      <point x="215.809" y="453" type="curve" smooth="yes"/>
      <point x="215.809" y="480.355"/>
      <point x="287.809" y="493.763"/>
      <point x="287.809" y="510" type="curve"/>
      <point x="247.338" y="524.312"/>
      <point x="199.867" y="550.279"/>
      <point x="161.809" y="558" type="curve" smooth="yes"/>
      <point x="144.086" y="561.596"/>
      <point x="130.731" y="567"/>
      <point x="113.809" y="567" type="curve" smooth="yes"/>
      <point x="96.9434" y="567"/>
      <point x="93.1807" y="582"/>
      <point x="80.8086" y="582" type="curve" smooth="yes"/>
      <point x="68.9766" y="582"/>
      <point x="74.4131" y="567"/>
      <point x="62.8086" y="567" type="curve" smooth="yes"/>
      <point x="43.8926" y="562.818"/>
      <point x="52.1934" y="590.119"/>
      <point x="50.8086" y="600" type="curve" smooth="yes"/>
      <point x="44.3936" y="645.759"/>
      <point x="46.4541" y="660"/>
      <point x="95.8086" y="660" type="curve" smooth="yes"/>
      <point x="116.809" y="660" type="line"/>
    </contour>
  </outline>
</glyph>
<glyph name="seven" format="1">
  <advance width="1011"/>
  <unicode hex="0037"/>
  <outline>
    <contour>
      <point x="634.5" y="624" type="curve"/>
      <point x="643.5" y="615" type="line"/>
      <point x="658.536" y="612.121"/>
      <point x="672.992" y="606"/>
      <point x="691.5" y="606" type="curve" smooth="yes"/>
      <point x="721.903" y="606"/>
      <point x="727.5" y="626.122"/>
      <point x="727.5" y="654" type="curve" smooth="yes"/>
      <point x="727.5" y="694.903"/>
      <point x="703.909" y="698.43"/>
      <point x="664.5" y="693" type="curve" smooth="yes"/>
      <point x="645.157" y="690.335"/>
      <point x="561.764" y="693.899"/>
      <point x="513.525" y="694.312" type="curve"/>
      <point x="568.779" y="710.262"/>
      <point x="616.493" y="765"/>
      <point x="676.5" y="765" type="curve"/>
      <point x="676.5" y="765"/>
      <point x="775.5" y="776.646"/>
      <point x="775.5" y="756" type="curve" smooth="yes"/>
      <point x="775.5" y="748.19"/>
      <point x="769.5" y="737.047"/>
      <point x="769.5" y="726" type="curve" smooth="yes"/>
      <point x="769.5" y="650.966"/>
      <point x="934.5" y="639.559"/>
      <point x="934.5" y="540" type="curve" smooth="yes"/>
      <point x="934.5" y="515.033"/>
      <point x="919.5" y="494.521"/>
      <point x="919.5" y="471" type="curve" smooth="yes"/>
      <point x="919.5" y="454.36"/>
      <point x="958.5" y="445.635"/>
      <point x="958.5" y="414" type="curve" smooth="yes"/>
      <point x="958.5" y="398.714"/>
      <point x="940.5" y="393.104"/>
      <point x="940.5" y="387" type="curve" smooth="yes"/>
      <point x="940.5" y="373.458"/>
      <point x="951.629" y="297"/>
      <point x="937.5" y="297" type="curve" smooth="yes"/>
      <point x="924.483" y="297"/>
      <point x="923.41" y="324"/>
      <point x="919.5" y="324" type="curve" smooth="yes"/>
      <point x="883.66" y="324"/>
      <point x="676.5" y="247.144"/>
      <point x="676.5" y="243" type="curve" smooth="yes"/>
      <point x="676.5" y="182.725"/>
      <point x="841.5" y="158.84"/>
      <point x="841.5" y="84" type="curve" smooth="yes"/>
      <point x="841.5" y="56.873"/>
      <point x="798.798" y="51"/>
      <point x="778.5" y="51" type="curve" smooth="yes"/>
      <point x="744.723" y="51"/>
      <point x="740.603" y="90"/>
      <point x="718.5" y="90" type="curve" smooth="yes"/>
      <point x="692.571" y="90"/>
      <point x="667.043" y="87"/>
      <point x="643.5" y="87" type="curve" smooth="yes"/>
      <point x="605.701" y="87"/>
      <point x="490.294" y="24"/>
      <point x="421.5" y="24" type="curve" smooth="yes"/>
      <point x="402.815" y="24"/>
      <point x="214.5" y="90.5176"/>
      <point x="214.5" y="120" type="curve" smooth="yes"/>
      <point x="214.5" y="148.862"/>
      <point x="265.5" y="135.473"/>
      <point x="265.5" y="165" type="curve" smooth="yes"/>
      <point x="265.5" y="271.177"/>
      <point x="55.5" y="258.075"/>
      <point x="55.5" y="408" type="curve"/>
      <point x="55.5" y="408"/>
      <point x="49.2393" y="474"/>
      <point x="61.5" y="474" type="curve" smooth="yes"/>
      <point x="117.08" y="474"/>
      <point x="169.378" y="441"/>
      <point x="223.5" y="441" type="curve" smooth="yes"/>
      <point x="232.67" y="441"/>
      <point x="256.5" y="448.613"/>
      <point x="256.5" y="462" type="curve"/>
      <point x="256.5" y="430.516"/>
      <point x="232.5" y="404.628"/>
      <point x="232.5" y="372" type="curve" smooth="yes"/>
      <point x="232.5" y="326.651"/>
      <point x="250.5" y="282.728"/>
      <point x="250.5" y="240" type="curve" smooth="yes"/>
      <point x="250.5" y="215.775"/>
      <point x="416.179" y="206"/>
      <point x="392.5" y="206" type="curve"/>
      <point x="417.852" y="206"/>
      <point x="631.5" y="213.329"/>
      <point x="631.5" y="318" type="curve" smooth="yes"/>
      <point x="631.5" y="346.928"/>
      <point x="508.5" y="345.073"/>
      <point x="508.5" y="366" type="curve"/>
      <point x="508.5" y="366"/>
      <point x="526.5" y="371.351"/>
      <point x="526.5" y="384" type="curve" smooth="yes"/>
      <point x="526.5" y="396.414"/>
      <point x="511.5" y="398.586"/>
      <point x="511.5" y="411" type="curve" smooth="yes"/>
      <point x="511.5" y="433.125"/>
      <point x="748.5" y="396.764"/>
      <point x="748.5" y="423" type="curve" smooth="yes"/>
      <point x="748.5" y="529.112"/>
      <point x="52.5" y="461.25"/>
      <point x="52.5" y="642" type="curve" smooth="yes"/>
      <point x="52.5" y="661.781"/>
      <point x="364.5" y="651"/>
      <point x="364.5" y="651" type="curve" smooth="yes"/>
      <point x="526.5" y="658"/>
      <point x="559.046" y="639.031"/>
    </contour>
    <contour>
      <point x="513.525" y="694.312" type="curve"/>
      <point x="504.103" y="691.592"/>
      <point x="494.46" y="690"/>
      <point x="484.5" y="690" type="curve" smooth="yes"/>
      <point x="469.338" y="693.728"/>
      <point x="485.498" y="694.552"/>
    </contour>
  </outline>
</glyph>
<glyph name="eight" format="1">
  <advance width="770"/>
  <unicode hex="0038"/>
  <outline>
    <contour>
      <point x="170.5" y="639" type="curve"/>
      <point x="212.541" y="649.581"/>
      <point x="233.078" y="672.198"/>
      <point x="251.5" y="696" type="curve"/>
      <point x="251.5" y="702" type="line" smooth="yes"/>
      <point x="251.5" y="709.919"/>
      <point x="236.5" y="712.988"/>
      <point x="236.5" y="723" type="curve" smooth="yes"/>
      <point x="236.5" y="759.357"/>
      <point x="249.56" y="759.195"/>
      <point x="281.5" y="762" type="curve" smooth="yes"/>
      <point x="312.159" y="764.692"/>
      <point x="341.464" y="750.672"/>
      <point x="368.5" y="735" type="curve"/>
      <point x="368.5" y="691.569"/>
      <point x="302.5" y="662.038"/>
      <point x="302.5" y="630" type="curve" smooth="yes"/>
      <point x="302.5" y="551.047"/>
      <point x="584.5" y="550.368"/>
      <point x="584.5" y="474" type="curve"/>
      <point x="584.5" y="533.673"/>
      <point x="530.5" y="588.233"/>
      <point x="530.5" y="648" type="curve" smooth="yes"/>
      <point x="530.5" y="655.861"/>
      <point x="646.979" y="714"/>
      <point x="671.5" y="714" type="curve" smooth="yes"/>
      <point x="707.445" y="714"/>
      <point x="719.5" y="564"/>
      <point x="719.5" y="564" type="curve"/>
      <point x="719.5" y="492.303"/>
      <point x="670.486" y="162"/>
      <point x="518.5" y="162" type="curve" smooth="yes"/>
      <point x="497.465" y="162"/>
      <point x="484.323" y="180"/>
      <point x="470.5" y="180" type="curve" smooth="yes"/>
      <point x="418.458" y="180"/>
      <point x="364.428" y="150"/>
      <point x="320.5" y="150" type="curve" smooth="yes"/>
      <point x="277.224" y="150"/>
      <point x="89.5" y="262.563"/>
      <point x="89.5" y="306" type="curve" smooth="yes"/>
      <point x="89.5" y="316.689"/>
      <point x="107.5" y="306.355"/>
      <point x="107.5" y="321" type="curve" smooth="yes"/>
      <point x="107.5" y="334.342"/>
      <point x="83.5" y="334.001"/>
      <point x="83.5" y="351" type="curve" smooth="yes"/>
      <point x="83.5" y="424.775"/>
      <point x="317.5" y="409.835"/>
      <point x="317.5" y="456" type="curve" smooth="yes"/>
      <point x="317.5" y="533.23"/>
      <point x="50.5" y="534.446"/>
      <point x="50.5" y="612" type="curve" smooth="yes"/>
      <point x="50.5" y="674.655"/>
      <point x="118.108" y="612.852"/>
    </contour>
  </outline>
</glyph>
<glyph name="nine" format="1">
  <advance width="947"/>
  <unicode hex="0039"/>
  <outline>
    <contour>
      <point x="887.5" y="636" type="curve"/>
      <point x="875.5" y="588" type="line"/>
      <point x="875.5" y="564" type="line" smooth="yes"/>
      <point x="875.5" y="537.443"/>
      <point x="896.5" y="535.524"/>
      <point x="896.5" y="507" type="curve" smooth="yes"/>
      <point x="896.5" y="459.998"/>
      <point x="806.5" y="456.092"/>
      <point x="806.5" y="414" type="curve" smooth="yes"/>
      <point x="806.5" y="359.475"/>
      <point x="872.5" y="338.77"/>
      <point x="872.5" y="285" type="curve" smooth="yes"/>
      <point x="872.5" y="209.303"/>
      <point x="721.121" y="195"/>
      <point x="677.5" y="195" type="curve" smooth="yes"/>
      <point x="623.011" y="195"/>
      <point x="587.304" y="294"/>
      <point x="557.5" y="294" type="curve" smooth="yes"/>
      <point x="462.907" y="294"/>
      <point x="363.134" y="174"/>
      <point x="245.5" y="174" type="curve" smooth="yes"/>
      <point x="150.154" y="174"/>
      <point x="50.5" y="255.89"/>
      <point x="50.5" y="363" type="curve" smooth="yes"/>
      <point x="50.5" y="419.314"/>
      <point x="333.086" y="709.073"/>
      <point x="395.5" y="696" type="curve" smooth="yes"/>
      <point x="540.239" y="665.683"/>
      <point x="689.896" y="630"/>
      <point x="839.5" y="630" type="curve" smooth="yes"/>
      <point x="843.277" y="630"/>
      <point x="882.389" y="636"/>
    </contour>
  </outline>
</glyph>
<glyph name="colon" format="1">
  <advance width="1026"/>
  <unicode hex="003A"/>
  <outline>
    <contour>
      <point x="259.463" y="693" type="curve"/>
      <point x="277.463" y="699" type="line" smooth="yes"/>
      <point x="283.767" y="699.945"/>
      <point x="290.188" y="702"/>
      <point x="298.463" y="702" type="curve" smooth="yes"/>
      <point x="357.25" y="702"/>
      <point x="377.37" y="636"/>
      <point x="457.463" y="636" type="curve" smooth="yes"/>
      <point x="509.452" y="636"/>
      <point x="543.283" y="744"/>
      <point x="625.463" y="744" type="curve" smooth="yes"/>
      <point x="673.833" y="744"/>
      <point x="817.463" y="735.451"/>
      <point x="817.463" y="669" type="curve" smooth="yes"/>
      <point x="817.463" y="628.973"/>
      <point x="736.611" y="624.529"/>
      <point x="709.463" y="612" type="curve" smooth="yes"/>
      <point x="678.497" y="597.709"/>
      <point x="610.716" y="601.725"/>
      <point x="622.463" y="549" type="curve"/>
      <point x="622.463" y="435.071"/>
      <point x="715.83" y="418.866"/>
      <point x="796.463" y="381" type="curve" smooth="yes"/>
      <point x="856.916" y="352.61"/>
      <point x="976.938" y="357.189"/>
      <point x="973.463" y="264" type="curve" smooth="yes"/>
      <point x="973.463" y="203.714"/>
      <point x="922.822" y="218.388"/>
      <point x="889.463" y="189" type="curve"/>
      <point x="778.463" y="189" type="line"/>
      <point x="733.463" y="117" type="line"/>
      <point x="695.153" y="106.112"/>
      <point x="679.505" y="90"/>
      <point x="637.463" y="90" type="curve" smooth="yes"/>
      <point x="505.955" y="90"/>
      <point x="439.832" y="162"/>
      <point x="319.463" y="162" type="curve" smooth="yes"/>
      <point x="291.089" y="162"/>
      <point x="266.237" y="135"/>
      <point x="232.463" y="135" type="curve" smooth="yes"/>
      <point x="114.842" y="135"/>
      <point x="52.4629" y="274.799"/>
      <point x="52.4629" y="384" type="curve" smooth="yes"/>
      <point x="52.4629" y="461.056"/>
      <point x="142.463" y="497.356"/>
      <point x="142.463" y="549" type="curve" smooth="yes"/>
      <point x="142.463" y="591.738"/>
      <point x="52.4629" y="575.085"/>
      <point x="52.4629" y="636" type="curve" smooth="yes"/>
      <point x="52.4629" y="670.253"/>
      <point x="148.348" y="696"/>
      <point x="172.463" y="696" type="curve" smooth="yes"/>
      <point x="172.606" y="696"/>
      <point x="259.463" y="693"/>
    </contour>
  </outline>
</glyph>
<glyph name="semicolon" format="1">
  <advance width="910"/>
  <unicode hex="003B"/>
  <outline>
    <contour>
      <point x="479" y="591" type="curve"/>
      <point x="485" y="582" type="line"/>
      <point x="497" y="582" type="line" smooth="yes"/>
      <point x="514.546" y="582"/>
      <point x="524" y="588.224"/>
      <point x="524" y="606" type="curve" smooth="yes"/>
      <point x="524" y="648.801"/>
      <point x="467" y="645.746"/>
      <point x="467" y="672" type="curve" smooth="yes"/>
      <point x="467" y="698.098"/>
      <point x="473.422" y="691.044"/>
      <point x="491" y="708" type="curve" smooth="yes"/>
      <point x="507.96" y="724.36"/>
      <point x="528.538" y="734.879"/>
      <point x="554" y="735" type="curve" smooth="yes"/>
      <point x="654.216" y="735"/>
      <point x="857" y="645.56"/>
      <point x="857" y="525" type="curve" smooth="yes"/>
      <point x="857" y="485.773"/>
      <point x="847.921" y="357"/>
      <point x="797" y="357" type="curve" smooth="yes"/>
      <point x="707.13" y="357"/>
      <point x="640.51" y="426"/>
      <point x="548" y="426" type="curve" smooth="yes"/>
      <point x="489.827" y="426"/>
      <point x="242" y="417.597"/>
      <point x="242" y="309" type="curve" smooth="yes"/>
      <point x="242" y="285.632"/>
      <point x="240.964" y="210"/>
      <point x="275" y="210" type="curve" smooth="yes"/>
      <point x="319.566" y="210"/>
      <point x="369.047" y="266.771"/>
      <point x="431" y="264" type="curve" smooth="yes"/>
      <point x="478.916" y="261.856"/>
      <point x="522.363" y="276"/>
      <point x="569" y="276" type="curve" smooth="yes"/>
      <point x="613.556" y="276"/>
      <point x="767" y="263.361"/>
      <point x="767" y="204" type="curve" smooth="yes"/>
      <point x="767" y="191.342"/>
      <point x="764.051" y="141"/>
      <point x="752" y="141" type="curve" smooth="yes"/>
      <point x="693.88" y="141"/>
      <point x="643.758" y="204"/>
      <point x="581" y="204" type="curve" smooth="yes"/>
      <point x="506.656" y="204"/>
      <point x="412.825" y="57"/>
      <point x="281" y="57" type="curve" smooth="yes"/>
      <point x="193.267" y="57"/>
      <point x="53" y="152.061"/>
      <point x="53" y="249" type="curve" smooth="yes"/>
      <point x="53" y="316.241"/>
      <point x="203" y="320.758"/>
      <point x="203" y="372" type="curve" smooth="yes"/>
      <point x="203" y="422.25"/>
      <point x="116" y="455.515"/>
      <point x="116" y="519" type="curve" smooth="yes"/>
      <point x="116" y="546.999"/>
      <point x="128.531" y="568.428"/>
      <point x="131" y="594" type="curve" smooth="yes"/>
      <point x="134.298" y="628.158"/>
      <point x="154.99" y="673.649"/>
      <point x="197" y="675" type="curve" smooth="yes"/>
      <point x="286.101" y="677.864"/>
      <point x="396.852" y="614.723"/>
    </contour>
  </outline>
</glyph>
<glyph name="less" format="1">
  <advance width="866"/>
  <unicode hex="003C"/>
  <outline>
    <contour>
      <point x="84" y="561" type="line"/>
      <point x="115" y="570" type="line"/>
      <point x="149.826" y="570"/>
      <point x="184.142" y="594"/>
      <point x="223" y="594" type="curve" smooth="yes"/>
      <point x="318.222" y="594"/>
      <point x="470.543" y="516"/>
      <point x="595" y="516" type="curve" smooth="yes"/>
      <point x="626.604" y="515.221"/>
      <point x="659.279" y="521.729"/>
      <point x="688" y="504" type="curve" smooth="yes"/>
      <point x="755.431" y="462.375"/>
      <point x="814" y="467.529"/>
      <point x="814" y="369" type="curve" smooth="yes"/>
      <point x="814" y="329.418"/>
      <point x="760.535" y="358.743"/>
      <point x="742" y="342" type="curve" smooth="yes"/>
      <point x="731.651" y="332.651"/>
      <point x="668.738" y="342"/>
      <point x="652" y="342" type="curve" smooth="yes"/>
      <point x="590.213" y="342"/>
      <point x="567.361" y="300"/>
      <point x="502" y="300" type="curve" smooth="yes"/>
      <point x="457.136" y="300"/>
      <point x="429.194" y="328.896"/>
      <point x="394" y="345" type="curve" smooth="yes"/>
      <point x="354.477" y="363.086"/>
      <point x="323.146" y="399"/>
      <point x="280" y="399" type="curve" smooth="yes"/>
      <point x="248.973" y="397.565"/>
      <point x="227.786" y="410.387"/>
      <point x="199" y="417" type="curve" smooth="yes"/>
      <point x="126.332" y="433.695"/>
      <point x="52" y="437.173"/>
      <point x="52" y="531" type="curve" smooth="yes"/>
      <point x="52" y="541.906"/>
      <point x="53.083" y="533.985"/>
      <point x="58" y="543" type="curve"/>
    </contour>
  </outline>
</glyph>
<glyph name="equal" format="1">
  <advance width="795"/>
  <unicode hex="003D"/>
  <outline>
    <contour>
      <point x="622.5" y="438" type="curve" smooth="yes"/>
      <point x="574.114" y="438"/>
      <point x="546.012" y="495.783"/>
      <point x="499.5" y="495" type="curve"/>
      <point x="478.488" y="499.215"/>
      <point x="460.845" y="504"/>
      <point x="439.5" y="504" type="curve" smooth="yes"/>
      <point x="389.26" y="504"/>
      <point x="341.401" y="489"/>
      <point x="292.5" y="489" type="curve" smooth="yes"/>
      <point x="253.5" y="489" type="line" smooth="yes"/>
      <point x="238.51" y="489"/>
      <point x="220.5" y="479.564"/>
      <point x="220.5" y="465" type="curve" smooth="yes"/>
      <point x="220.5" y="182.1"/>
      <point x="745.5" y="388.866"/>
      <point x="745.5" y="255" type="curve" smooth="yes"/>
      <point x="745.5" y="178.442"/>
      <point x="644.938" y="183"/>
      <point x="595.5" y="183" type="curve" smooth="yes"/>
      <point x="410.387" y="183"/>
      <point x="49.5" y="158.082"/>
      <point x="49.5" y="432" type="curve" smooth="yes"/>
      <point x="49.5" y="639.681"/>
      <point x="313.584" y="645"/>
      <point x="469.5" y="645" type="curve" smooth="yes"/>
      <point x="483.831" y="645"/>
      <point x="528.394" y="645.089"/>
      <point x="541.5" y="636" type="curve"/>
      <point x="547.5" y="618" type="line"/>
      <point x="567.306" y="596.727"/>
      <point x="655.5" y="538.905"/>
      <point x="655.5" y="501" type="curve" smooth="yes"/>
      <point x="655.5" y="472.64"/>
      <point x="653.351" y="438"/>
    </contour>
  </outline>
</glyph>
<glyph name="greater" format="1">
  <advance width="581"/>
  <unicode hex="003E"/>
  <outline>
    <contour>
      <point x="263.5" y="716" type="line"/>
      <point x="242.813" y="754.498"/>
      <point x="234.479" y="768.111"/>
      <point x="260.5" y="756" type="curve" smooth="yes"/>
      <point x="268.566" y="752.245"/>
      <point x="292.514" y="738.456"/>
      <point x="302.5" y="738" type="curve" smooth="yes"/>
      <point x="316.222" y="737.374"/>
      <point x="324.997" y="732.525"/>
      <point x="338.5" y="726" type="curve"/>
      <point x="347.9" y="726"/>
      <point x="371.5" y="731.929"/>
      <point x="371.5" y="717" type="curve" smooth="yes"/>
      <point x="371.5" y="692.56"/>
      <point x="307.538" y="684.083"/>
      <point x="290.5" y="678" type="curve" smooth="yes"/>
      <point x="269.861" y="670.632"/>
      <point x="236.544" y="657.839"/>
      <point x="242.5" y="630" type="curve" smooth="yes"/>
      <point x="242.5" y="612.548"/>
      <point x="234.503" y="591"/>
      <point x="257.5" y="591" type="curve" smooth="yes"/>
      <point x="325.666" y="591"/>
      <point x="396.83" y="669"/>
      <point x="485.5" y="669" type="curve" smooth="yes"/>
      <point x="524.187" y="669"/>
      <point x="533.5" y="629.301"/>
      <point x="533.5" y="597" type="curve" smooth="yes"/>
      <point x="533.5" y="475.192"/>
      <point x="341.5" y="391.401"/>
      <point x="341.5" y="276" type="curve" smooth="yes"/>
      <point x="341.5" y="174.666"/>
      <point x="464.5" y="143.662"/>
      <point x="464.5" y="69" type="curve" smooth="yes"/>
      <point x="464.5" y="3.70117"/>
      <point x="437.772" y="-12"/>
      <point x="374.5" y="-12" type="curve" smooth="yes"/>
      <point x="274.429" y="-12"/>
      <point x="110.5" y="117.095"/>
      <point x="110.5" y="228" type="curve" smooth="yes"/>
      <point x="110.5" y="304.176"/>
      <point x="182.5" y="368.237"/>
      <point x="182.5" y="432" type="curve" smooth="yes"/>
      <point x="182.5" y="505.269"/>
      <point x="47.5" y="535.51"/>
      <point x="47.5" y="621" type="curve" smooth="yes"/>
      <point x="47.5" y="688.792"/>
      <point x="170.901" y="708"/>
      <point x="224.5" y="708" type="curve"/>
    </contour>
  </outline>
</glyph>
<glyph name="question" format="1">
  <advance width="949"/>
  <unicode hex="003F"/>
  <outline>
    <contour>
      <point x="552.5" y="591" type="curve"/>
      <point x="534.5" y="588" type="line"/>
      <point x="530.899" y="577.797"/>
      <point x="528.5" y="580.802"/>
      <point x="528.5" y="570" type="curve" smooth="yes"/>
      <point x="528.5" y="531.527"/>
      <point x="571.228" y="529.912"/>
      <point x="606.5" y="528" type="curve" smooth="yes"/>
      <point x="656.923" y="525.267"/>
      <point x="670.722" y="580.356"/>
      <point x="696.5" y="612" type="curve"/>
      <point x="707.635" y="633.312"/>
      <point x="718.4" y="657.088"/>
      <point x="747.5" y="654" type="curve" smooth="yes"/>
      <point x="784.637" y="654"/>
      <point x="864.5" y="655.29"/>
      <point x="864.5" y="606" type="curve" smooth="yes"/>
      <point x="864.5" y="452.428"/>
      <point x="660.5" y="451.871"/>
      <point x="660.5" y="357" type="curve" smooth="yes"/>
      <point x="660.5" y="224.376"/>
      <point x="900.5" y="334.608"/>
      <point x="900.5" y="156" type="curve" smooth="yes"/>
      <point x="900.5" y="133.101"/>
      <point x="897.889" y="102"/>
      <point x="870.5" y="102" type="curve" smooth="yes"/>
      <point x="763.544" y="102"/>
      <point x="702.332" y="204"/>
      <point x="594.5" y="204" type="curve" smooth="yes"/>
      <point x="495.773" y="204"/>
      <point x="433.921" y="105"/>
      <point x="318.5" y="105" type="curve" smooth="yes"/>
      <point x="203.803" y="105"/>
      <point x="48.5" y="99.2002"/>
      <point x="48.5" y="252" type="curve" smooth="yes"/>
      <point x="48.5" y="289.511"/>
      <point x="74.8652" y="336"/>
      <point x="120.5" y="336" type="curve" smooth="yes"/>
      <point x="141.5" y="336" type="line" smooth="yes"/>
      <point x="180.755" y="336"/>
      <point x="357.5" y="365.208"/>
      <point x="357.5" y="408" type="curve" smooth="yes"/>
      <point x="357.5" y="449.905"/>
      <point x="318.5" y="479.658"/>
      <point x="318.5" y="525" type="curve" smooth="yes"/>
      <point x="318.5" y="605.748"/>
      <point x="326.36" y="628.392"/>
      <point x="408.5" y="630" type="curve" smooth="yes"/>
      <point x="454.032" y="630.892"/>
      <point x="534.5" y="663"/>
    </contour>
  </outline>
</glyph>
<glyph name="at" format="1">
  <advance width="1232"/>
  <unicode hex="0040"/>
  <outline>
    <contour>
      <point x="719.5" y="564" type="curve"/>
      <point x="731.5" y="600" type="line"/>
      <point x="740.5" y="600" type="line" smooth="yes"/>
      <point x="759.125" y="600"/>
      <point x="770.908" y="555"/>
      <point x="812.5" y="555" type="curve" smooth="yes"/>
      <point x="926.355" y="555"/>
      <point x="876.706" y="720"/>
      <point x="974.5" y="720" type="curve" smooth="yes"/>
      <point x="1076.5" y="720"/>
      <point x="1175.5" y="633.514"/>
      <point x="1175.5" y="528" type="curve" smooth="yes"/>
      <point x="1175.5" y="463.587"/>
      <point x="1161.75" y="414"/>
      <point x="1085.5" y="414" type="curve" smooth="yes"/>
      <point x="1040.5" y="414" type="line" smooth="yes"/>
      <point x="981.63" y="414"/>
      <point x="920.5" y="352.089"/>
      <point x="920.5" y="297" type="curve" smooth="yes"/>
      <point x="920.5" y="178.056"/>
      <point x="1169.5" y="241.248"/>
      <point x="1169.5" y="84" type="curve" smooth="yes"/>
      <point x="1169.5" y="59.834"/>
      <point x="1162.61" y="-15"/>
      <point x="1130.5" y="-15" type="curve" smooth="yes"/>
      <point x="1026.8" y="-15"/>
      <point x="941.07" y="81"/>
      <point x="866.5" y="81" type="curve" smooth="yes"/>
      <point x="721.729" y="81"/>
      <point x="579.766" y="60"/>
      <point x="437.5" y="60" type="curve" smooth="yes"/>
      <point x="276.871" y="60"/>
      <point x="56.5" y="129.923"/>
      <point x="56.5" y="324" type="curve" smooth="yes"/>
      <point x="56.5" y="501.971"/>
      <point x="131.844" y="750"/>
      <point x="329.5" y="750" type="curve" smooth="yes"/>
      <point x="379.044" y="750"/>
      <point x="509.5" y="767.463"/>
      <point x="509.5" y="690" type="curve" smooth="yes"/>
      <point x="509.5" y="528.747"/>
      <point x="293.5" y="513.965"/>
      <point x="293.5" y="309" type="curve" smooth="yes"/>
      <point x="293.5" y="268.18"/>
      <point x="303.972" y="195"/>
      <point x="356.5" y="195" type="curve" smooth="yes"/>
      <point x="434.81" y="195"/>
      <point x="686.5" y="193.892"/>
      <point x="686.5" y="327" type="curve" smooth="yes"/>
      <point x="686.5" y="406.311"/>
      <point x="566.5" y="404.084"/>
      <point x="566.5" y="501" type="curve" smooth="yes"/>
      <point x="566.5" y="544.288"/>
      <point x="584.75" y="558"/>
      <point x="629.5" y="558" type="curve" smooth="yes"/>
      <point x="657.179" y="558"/>
      <point x="755.342" y="444.84"/>
      <point x="782.5" y="444" type="curve" smooth="yes"/>
      <point x="820.5" y="443"/>
      <point x="890.5" y="449"/>
      <point x="872.5" y="483" type="curve" smooth="yes"/>
      <point x="841.5" y="543"/>
      <point x="719.5" y="564"/>
    </contour>
  </outline>
</glyph>
<glyph name="A" format="1">
  <advance width="981"/>
  <unicode hex="0041"/>
  <outline>
    <contour>
      <point x="560.666" y="555" type="curve"/>
      <point x="629.666" y="507" type="line"/>
      <point x="677.666" y="465" type="line"/>
      <point x="693.979" y="463.471"/>
      <point x="696.504" y="462"/>
      <point x="710.666" y="462" type="curve" smooth="yes"/>
      <point x="732.99" y="462"/>
      <point x="758.666" y="473.256"/>
      <point x="758.666" y="498" type="curve" smooth="yes"/>
      <point x="758.666" y="614.968"/>
      <point x="523.238" y="654"/>
      <point x="443.666" y="654" type="curve" smooth="yes"/>
      <point x="408.052" y="654"/>
      <point x="375.938" y="645"/>
      <point x="341.666" y="645" type="curve" smooth="yes"/>
      <point x="317.086" y="645"/>
      <point x="275.666" y="634.611"/>
      <point x="275.666" y="669" type="curve" smooth="yes"/>
      <point x="275.666" y="789.782"/>
      <point x="483.556" y="789"/>
      <point x="560.666" y="789" type="curve" smooth="yes"/>
      <point x="761.443" y="789"/>
      <point x="926.666" y="743.027"/>
      <point x="926.666" y="513" type="curve" smooth="yes"/>
      <point x="926.666" y="488.311"/>
      <point x="941.446" y="354"/>
      <point x="911.666" y="354" type="curve" smooth="yes"/>
      <point x="834.43" y="354"/>
      <point x="766.446" y="405.304"/>
      <point x="683.666" y="387" type="curve" smooth="yes"/>
      <point x="607.473" y="370.152"/>
      <point x="452.05" y="429.934"/>
      <point x="428.666" y="333" type="curve"/>
      <point x="428.666" y="288.399"/>
      <point x="481.345" y="315.158"/>
      <point x="515.666" y="309" type="curve" smooth="yes"/>
      <point x="627.179" y="288.992"/>
      <point x="868.162" y="365.892"/>
      <point x="902.666" y="213" type="curve"/>
      <point x="902.666" y="182.394"/>
      <point x="891.12" y="120"/>
      <point x="854.666" y="120" type="curve" smooth="yes"/>
      <point x="756.392" y="120"/>
      <point x="700.463" y="216"/>
      <point x="599.666" y="216" type="curve" smooth="yes"/>
      <point x="481.656" y="216"/>
      <point x="392.737" y="90"/>
      <point x="245.666" y="90" type="curve" smooth="yes"/>
      <point x="204.282" y="90"/>
      <point x="50.666" y="72.9482"/>
      <point x="50.666" y="129" type="curve" smooth="yes"/>
      <point x="50.666" y="195.346"/>
      <point x="242.666" y="221.583"/>
      <point x="242.666" y="312" type="curve" smooth="yes"/>
      <point x="242.666" y="392.988"/>
      <point x="101.666" y="373.601"/>
      <point x="101.666" y="435" type="curve" smooth="yes"/>
      <point x="101.666" y="477.618"/>
      <point x="100.156" y="582"/>
      <point x="161.666" y="582" type="curve" smooth="yes"/>
      <point x="293.411" y="582"/>
      <point x="431.734" y="585.152"/>
    </contour>
  </outline>
</glyph>
<glyph name="B" format="1">
  <advance width="886"/>
  <unicode hex="0042"/>
  <outline>
    <contour>
      <point x="125" y="690" type="line"/>
      <point x="146" y="693" type="line"/>
      <point x="140.394" y="701.176"/>
      <point x="199.615" y="708.974"/>
      <point x="209" y="708" type="curve" smooth="yes"/>
      <point x="287.904" y="699.814"/>
      <point x="328.267" y="814.124"/>
      <point x="416" y="777" type="curve" smooth="yes"/>
      <point x="428.977" y="770.359"/>
      <point x="445.126" y="775.585"/>
      <point x="461" y="774" type="curve" smooth="yes"/>
      <point x="514.17" y="774"/>
      <point x="587.931" y="846.375"/>
      <point x="659" y="852" type="curve" smooth="yes"/>
      <point x="754.743" y="859.578"/>
      <point x="847.013" y="758.823"/>
      <point x="809" y="663" type="curve"/>
      <point x="809" y="599.448"/>
      <point x="839" y="549.308"/>
      <point x="839" y="495" type="curve" smooth="yes"/>
      <point x="839" y="449.259"/>
      <point x="820.536" y="396"/>
      <point x="767" y="396" type="curve" smooth="yes"/>
      <point x="735.368" y="396"/>
      <point x="680" y="393.465"/>
      <point x="680" y="438" type="curve" smooth="yes"/>
      <point x="680" y="496.647"/>
      <point x="779" y="502.493"/>
      <point x="779" y="564" type="curve" smooth="yes"/>
      <point x="779" y="586.132"/>
      <point x="764.998" y="741"/>
      <point x="746" y="741" type="curve" smooth="yes"/>
      <point x="695.237" y="741"/>
      <point x="425" y="721.587"/>
      <point x="425" y="645" type="curve" smooth="yes"/>
      <point x="425" y="546.198"/>
      <point x="530" y="530.249"/>
      <point x="530" y="435" type="curve" smooth="yes"/>
      <point x="530" y="384.609"/>
      <point x="487.792" y="349.353"/>
      <point x="485" y="294" type="curve" smooth="yes"/>
      <point x="481.906" y="232.668"/>
      <point x="468.451" y="119.606"/>
      <point x="383" y="156" type="curve"/>
      <point x="347.574" y="156"/>
      <point x="95" y="128.725"/>
      <point x="95" y="228" type="curve" smooth="yes"/>
      <point x="95" y="292.946"/>
      <point x="374" y="329.904"/>
      <point x="374" y="396" type="curve" smooth="yes"/>
      <point x="374" y="531.308"/>
      <point x="47" y="640.073"/>
      <point x="47" y="648" type="curve" smooth="yes"/>
      <point x="47" y="661.463"/>
      <point x="53.1895" y="690"/>
      <point x="71" y="690" type="curve" smooth="yes"/>
    </contour>
  </outline>
</glyph>
<glyph name="C" format="1">
  <advance width="696"/>
  <unicode hex="0043"/>
  <outline>
    <contour>
      <point x="280.5" y="624" type="curve"/>
      <point x="313.5" y="621" type="line"/>
      <point x="317.782" y="616.004"/>
      <point x="325.5" y="615.485"/>
      <point x="325.5" y="606" type="curve" smooth="yes"/>
      <point x="325.5" y="584.276"/>
      <point x="294.593" y="581.076"/>
      <point x="277.5" y="576" type="curve" smooth="yes"/>
      <point x="243.884" y="566.017"/>
      <point x="192.736" y="569.742"/>
      <point x="175.5" y="540" type="curve"/>
      <point x="175.5" y="520.938"/>
      <point x="225.979" y="525"/>
      <point x="238.5" y="525" type="curve" smooth="yes"/>
      <point x="268.674" y="525"/>
      <point x="306.193" y="558"/>
      <point x="322.5" y="558" type="curve" smooth="yes"/>
      <point x="358.908" y="558"/>
      <point x="392.142" y="499.592"/>
      <point x="376.5" y="462" type="curve" smooth="yes"/>
      <point x="333.138" y="357.785"/>
      <point x="488.555" y="419.947"/>
      <point x="469.5" y="495" type="curve"/>
      <point x="469.5" y="561.312"/>
      <point x="421.5" y="633.745"/>
      <point x="421.5" y="708" type="curve" smooth="yes"/>
      <point x="421.5" y="726.341"/>
      <point x="422.115" y="750"/>
      <point x="445.5" y="750" type="curve" smooth="yes"/>
      <point x="518.8" y="750"/>
      <point x="649.5" y="683.787"/>
      <point x="649.5" y="600" type="curve" smooth="yes"/>
      <point x="649.5" y="537.194"/>
      <point x="517.5" y="507.022"/>
      <point x="517.5" y="432" type="curve" smooth="yes"/>
      <point x="517.5" y="400.264"/>
      <point x="637.5" y="395.938"/>
      <point x="637.5" y="330" type="curve" smooth="yes"/>
      <point x="637.5" y="264.344"/>
      <point x="574.5" y="121.294"/>
      <point x="574.5" y="102" type="curve"/>
      <point x="574.5" y="140.107"/>
      <point x="586.5" y="175.448"/>
      <point x="586.5" y="213" type="curve" smooth="yes"/>
      <point x="586.5" y="239.439"/>
      <point x="494.24" y="291"/>
      <point x="472.5" y="291" type="curve" smooth="yes"/>
      <point x="406.504" y="291"/>
      <point x="365.826" y="192"/>
      <point x="295.5" y="192" type="curve" smooth="yes"/>
      <point x="223.51" y="192"/>
      <point x="187.5" y="177.709"/>
      <point x="187.5" y="249" type="curve" smooth="yes"/>
      <point x="187.5" y="300.193"/>
      <point x="262.5" y="342.49"/>
      <point x="262.5" y="396" type="curve" smooth="yes"/>
      <point x="262.5" y="463.458"/>
      <point x="46.5" y="459.624"/>
      <point x="46.5" y="531" type="curve" smooth="yes"/>
      <point x="46.5" y="607.65"/>
      <point x="211.405" y="608.399"/>
    </contour>
  </outline>
</glyph>
<glyph name="D" format="1">
  <advance width="747"/>
  <unicode hex="0044"/>
  <outline>
    <contour>
      <point x="388.5" y="687" type="curve"/>
      <point x="409.5" y="705" type="line"/>
      <point x="415.5" y="705" type="line" smooth="yes"/>
      <point x="442.654" y="705"/>
      <point x="452.226" y="683.619"/>
      <point x="448.5" y="657" type="curve" smooth="yes"/>
      <point x="445.384" y="634.735"/>
      <point x="450.027" y="605.307"/>
      <point x="475.5" y="609" type="curve" smooth="yes"/>
      <point x="558.292" y="609"/>
      <point x="516.168" y="753"/>
      <point x="628.5" y="753" type="curve" smooth="yes"/>
      <point x="639.594" y="753"/>
      <point x="703.5" y="758.074"/>
      <point x="703.5" y="741" type="curve" smooth="yes"/>
      <point x="703.5" y="590.075"/>
      <point x="403.5" y="539.428"/>
      <point x="403.5" y="501" type="curve"/>
      <point x="403.5" y="501"/>
      <point x="685.5" y="435.107"/>
      <point x="685.5" y="240" type="curve" smooth="yes"/>
      <point x="685.5" y="55.6016"/>
      <point x="588.258" y="222"/>
      <point x="441.5" y="222" type="curve" smooth="yes"/>
      <point x="368.861" y="222"/>
      <point x="43.5" y="39.4199"/>
      <point x="43.5" y="168" type="curve" smooth="yes"/>
      <point x="43.5" y="271.077"/>
      <point x="394.5" y="269.8"/>
      <point x="394.5" y="381" type="curve" smooth="yes"/>
      <point x="394.5" y="459.743"/>
      <point x="133.5" y="468.115"/>
      <point x="133.5" y="615" type="curve" smooth="yes"/>
      <point x="133.5" y="648.424"/>
      <point x="143.011" y="681"/>
      <point x="181.5" y="681" type="curve" smooth="yes"/>
      <point x="249.632" y="681"/>
      <point x="322.504" y="704"/>
    </contour>
  </outline>
</glyph>
<glyph name="E" format="1">
  <advance width="894"/>
  <unicode hex="0045"/>
  <outline>
    <contour>
      <point x="213" y="-135" type="line"/>
      <point x="249" y="-120" type="line"/>
      <point x="249" y="27.7295"/>
      <point x="513" y="77.6592"/>
      <point x="513" y="249" type="curve" smooth="yes"/>
      <point x="513" y="413.017"/>
      <point x="123" y="421.548"/>
      <point x="123" y="528" type="curve" smooth="yes"/>
      <point x="123" y="605.349"/>
      <point x="246.761" y="623.609"/>
      <point x="297" y="681" type="curve" smooth="yes"/>
      <point x="336.802" y="726.467"/>
      <point x="555" y="809.494"/>
      <point x="555" y="873" type="curve" smooth="yes"/>
      <point x="555" y="888.819"/>
      <point x="440.688" y="893.896"/>
      <point x="450" y="897" type="curve" smooth="yes"/>
      <point x="579" y="940"/>
      <point x="855" y="801.884"/>
      <point x="855" y="753" type="curve" smooth="yes"/>
      <point x="855" y="635.31"/>
      <point x="560.185" y="579"/>
      <point x="480" y="579" type="curve" smooth="yes"/>
      <point x="408" y="579" type="line" smooth="yes"/>
      <point x="390.788" y="579"/>
      <point x="186" y="570.014"/>
      <point x="186" y="555" type="curve"/>
      <point x="431.725" y="587.75"/>
      <point x="729.178" y="469.025"/>
      <point x="750" y="195" type="curve" smooth="yes"/>
      <point x="753.895" y="143.751"/>
      <point x="750" y="91.875"/>
      <point x="750" y="42" type="curve" smooth="yes"/>
      <point x="750" y="-18.6904"/>
      <point x="507" y="-18.4961"/>
      <point x="507" y="-45" type="curve" smooth="yes"/>
      <point x="507" y="-93.252"/>
      <point x="549.595" y="-77.5859"/>
      <point x="444.948" y="-75.2646" type="curve"/>
      <point x="482.012" y="-79.4346"/>
      <point x="651" y="-131.963"/>
      <point x="651" y="-171" type="curve"/>
      <point x="615.466" y="-200.521"/>
      <point x="539.099" y="-175.3"/>
      <point x="492" y="-186" type="curve" smooth="yes"/>
      <point x="434.673" y="-199.024"/>
      <point x="401.53" y="-140.651"/>
      <point x="351" y="-144" type="curve" smooth="yes"/>
      <point x="296.023" y="-147.644"/>
      <point x="273.875" y="-186"/>
      <point x="216" y="-186" type="curve" smooth="yes"/>
      <point x="118.085" y="-186"/>
      <point x="39" y="-171.732"/>
      <point x="39" y="-75" type="curve" smooth="yes"/>
      <point x="39" y="-64.9062"/>
      <point x="45.7061" y="-69"/>
      <point x="57" y="-69" type="curve" smooth="yes"/>
      <point x="73.6787" y="-69"/>
      <point x="81.7168" y="-74.2061"/>
      <point x="99" y="-78" type="curve"/>
      <point x="168" y="-129" type="line"/>
    </contour>
  </outline>
</glyph>
<glyph name="F" format="1">
  <advance width="1410"/>
  <unicode hex="0046"/>
  <outline>
    <contour>
      <point x="1029" y="618" type="curve"/>
      <point x="1032" y="627" type="line"/>
      <point x="1060.93" y="649.529"/>
      <point x="1088.84" y="656.782"/>
      <point x="1128" y="651" type="curve" smooth="yes"/>
      <point x="1182.8" y="642.908"/>
      <point x="1278.53" y="673.063"/>
      <point x="1308" y="621" type="curve"/>
      <point x="1308" y="601.162"/>
      <point x="1267.32" y="567"/>
      <point x="1248" y="567" type="curve" smooth="yes"/>
      <point x="1224" y="567" type="line" smooth="yes"/>
      <point x="1121.37" y="567"/>
      <point x="561" y="509.508"/>
      <point x="561" y="444" type="curve"/>
      <point x="561" y="455.307"/>
      <point x="693.357" y="486"/>
      <point x="720" y="486" type="curve" smooth="yes"/>
      <point x="868.339" y="486"/>
      <point x="1365" y="499.037"/>
      <point x="1365" y="246" type="curve" smooth="yes"/>
      <point x="1365" y="157.203"/>
      <point x="1260.83" y="78"/>
      <point x="1176" y="78" type="curve" smooth="yes"/>
      <point x="1145.84" y="78"/>
      <point x="1068" y="67.8701"/>
      <point x="1068" y="111" type="curve" smooth="yes"/>
      <point x="1068" y="167.77"/>
      <point x="1164" y="194.012"/>
      <point x="1164" y="237" type="curve" smooth="yes"/>
      <point x="1164" y="292.824"/>
      <point x="957.78" y="254.445"/>
      <point x="918" y="255" type="curve" smooth="yes"/>
      <point x="618.517" y="259.177"/>
      <point x="185.967" y="214.652"/>
      <point x="45" y="483" type="curve"/>
      <point x="45" y="634.133"/>
      <point x="747.144" y="618"/>
      <point x="834" y="618" type="curve" smooth="yes"/>
      <point x="884.078" y="618"/>
      <point x="984.608" y="640.407"/>
    </contour>
  </outline>
</glyph>
<glyph name="G" format="1">
  <advance width="637"/>
  <unicode hex="0047"/>
  <outline>
    <contour>
      <point x="215" y="522" type="curve"/>
      <point x="257" y="462" type="line"/>
      <point x="272" y="462" type="line" smooth="yes"/>
      <point x="281.45" y="462"/>
      <point x="290" y="465.447"/>
      <point x="290" y="477" type="curve" smooth="yes"/>
      <point x="290" y="498" type="line" smooth="yes"/>
      <point x="290" y="527.375"/>
      <point x="323.915" y="558"/>
      <point x="353" y="558" type="curve" smooth="yes"/>
      <point x="379.339" y="558"/>
      <point x="360.363" y="519"/>
      <point x="386" y="519" type="curve" smooth="yes"/>
      <point x="431.976" y="519"/>
      <point x="448.421" y="585"/>
      <point x="476" y="585" type="curve" smooth="yes"/>
      <point x="488.097" y="585"/>
      <point x="521" y="577.86"/>
      <point x="521" y="564" type="curve" smooth="yes"/>
      <point x="521" y="517.457"/>
      <point x="437" y="497.136"/>
      <point x="437" y="468" type="curve" smooth="yes"/>
      <point x="437" y="450.886"/>
      <point x="460.245" y="449.01"/>
      <point x="479" y="453" type="curve" smooth="yes"/>
      <point x="553.806" y="468.916"/>
      <point x="566.954" y="404.222"/>
      <point x="590" y="354" type="curve"/>
      <point x="590" y="340.133"/>
      <point x="558.113" y="300.751"/>
      <point x="548" y="291" type="curve" smooth="yes"/>
      <point x="520.772" y="264.748"/>
      <point x="521.484" y="210.933"/>
      <point x="485" y="195" type="curve"/>
      <point x="429.764" y="195"/>
      <point x="351.671" y="304.596"/>
      <point x="311" y="288" type="curve" smooth="yes"/>
      <point x="183.287" y="235.888"/>
      <point x="130.59" y="340.871"/>
      <point x="47" y="390" type="curve"/>
      <point x="47" y="434.51"/>
      <point x="158" y="426.153"/>
      <point x="158" y="471" type="curve" smooth="yes"/>
      <point x="158" y="502.674"/>
      <point x="83" y="489.253"/>
      <point x="83" y="537" type="curve" smooth="yes"/>
      <point x="83" y="550.397"/>
      <point x="95.292" y="546"/>
      <point x="107" y="546" type="curve" smooth="yes"/>
      <point x="142.897" y="546"/>
      <point x="177.387" y="526.801"/>
    </contour>
  </outline>
</glyph>
<glyph name="H" format="1">
  <advance width="983"/>
  <unicode hex="0048"/>
  <outline>
    <contour>
      <point x="446.5" y="594" type="curve"/>
      <point x="458.5" y="615" type="line" smooth="yes"/>
      <point x="461.22" y="625.576"/>
      <point x="467.5" y="635.131"/>
      <point x="467.5" y="651" type="curve" smooth="yes"/>
      <point x="467.5" y="658.556"/>
      <point x="482.812" y="675"/>
      <point x="497.5" y="675" type="curve" smooth="yes"/>
      <point x="515.382" y="675"/>
      <point x="537.404" y="654"/>
      <point x="566.5" y="654" type="curve" smooth="yes"/>
      <point x="635.831" y="654"/>
      <point x="626.731" y="762.529"/>
      <point x="710.5" y="750" type="curve" smooth="yes"/>
      <point x="768.112" y="741.383"/>
      <point x="899.5" y="780.794"/>
      <point x="899.5" y="699" type="curve" smooth="yes"/>
      <point x="899.5" y="632.501"/>
      <point x="695.5" y="679.206"/>
      <point x="695.5" y="582" type="curve" smooth="yes"/>
      <point x="695.5" y="556.461"/>
      <point x="695.804" y="492"/>
      <point x="734.5" y="492" type="curve" smooth="yes"/>
      <point x="755.248" y="492"/>
      <point x="781.675" y="507"/>
      <point x="809.5" y="507" type="curve" smooth="yes"/>
      <point x="862.417" y="507"/>
      <point x="932.5" y="475.681"/>
      <point x="932.5" y="411" type="curve" smooth="yes"/>
      <point x="932.5" y="355.508"/>
      <point x="844.538" y="159"/>
      <point x="794.5" y="159" type="curve" smooth="yes"/>
      <point x="709.501" y="159"/>
      <point x="650.693" y="213"/>
      <point x="557.5" y="213" type="curve" smooth="yes"/>
      <point x="463.783" y="213"/>
      <point x="426.361" y="114"/>
      <point x="356.5" y="114" type="curve" smooth="yes"/>
      <point x="278.824" y="114"/>
      <point x="50.5" y="135.663"/>
      <point x="50.5" y="234" type="curve" smooth="yes"/>
      <point x="50.5" y="248.166"/>
      <point x="100.953" y="504"/>
      <point x="137.5" y="504" type="curve" smooth="yes"/>
      <point x="205.582" y="504"/>
      <point x="238.899" y="348"/>
      <point x="335.5" y="348" type="curve" smooth="yes"/>
      <point x="358.382" y="348"/>
      <point x="509.5" y="420"/>
      <point x="509.5" y="420" type="curve"/>
      <point x="509.5" y="420"/>
      <point x="201.021" y="633.844"/>
      <point x="239.5" y="630" type="curve" smooth="yes"/>
      <point x="290.225" y="624.933"/>
      <point x="414.21" y="629.731"/>
    </contour>
  </outline>
</glyph>
<glyph name="I" format="1">
  <advance width="945"/>
  <unicode hex="0049"/>
  <outline>
    <contour>
      <point x="207" y="708" type="curve" smooth="yes"/>
      <point x="273" y="711" type="line"/>
      <point x="307.147" y="704.113"/>
      <point x="352.965" y="687"/>
      <point x="393" y="687" type="curve" smooth="yes"/>
      <point x="469.291" y="687"/>
      <point x="547.175" y="750"/>
      <point x="642" y="750" type="curve" smooth="yes"/>
      <point x="682.023" y="750"/>
      <point x="774" y="757.359"/>
      <point x="774" y="696" type="curve" smooth="yes"/>
      <point x="774" y="685.812"/>
      <point x="775.833" y="660"/>
      <point x="759" y="660" type="curve" smooth="yes"/>
      <point x="714.326" y="660"/>
      <point x="672.472" y="682.195"/>
      <point x="627" y="681" type="curve" smooth="yes"/>
      <point x="563.501" y="679.331"/>
      <point x="465" y="646.398"/>
      <point x="465" y="573" type="curve" smooth="yes"/>
      <point x="465" y="502.324"/>
      <point x="511.176" y="426"/>
      <point x="582" y="426" type="curve" smooth="yes"/>
      <point x="649.261" y="426"/>
      <point x="719.435" y="561"/>
      <point x="801" y="561" type="curve" smooth="yes"/>
      <point x="838.493" y="561"/>
      <point x="900" y="529.516"/>
      <point x="900" y="486" type="curve" smooth="yes"/>
      <point x="900" y="364.027"/>
      <point x="720" y="342.286"/>
      <point x="720" y="231" type="curve" smooth="yes"/>
      <point x="720" y="205.349"/>
      <point x="849" y="156.972"/>
      <point x="849" y="102" type="curve" smooth="yes"/>
      <point x="849" y="72.1191"/>
      <point x="811.938" y="76.4893"/>
      <point x="789" y="78" type="curve" smooth="yes"/>
      <point x="709.116" y="83.2627"/>
      <point x="632.253" y="47.5508"/>
      <point x="555" y="54" type="curve" smooth="yes"/>
      <point x="466.112" y="61.4209"/>
      <point x="308.666" y="24.3867"/>
      <point x="261" y="102" type="curve"/>
      <point x="261" y="139.6"/>
      <point x="357" y="125.034"/>
      <point x="357" y="168" type="curve" smooth="yes"/>
      <point x="357" y="247.325"/>
      <point x="210" y="256.402"/>
      <point x="210" y="330" type="curve" smooth="yes"/>
      <point x="210" y="367.431"/>
      <point x="246" y="394.433"/>
      <point x="246" y="429" type="curve" smooth="yes"/>
      <point x="246" y="544.529"/>
      <point x="45" y="604.781"/>
      <point x="45" y="669" type="curve" smooth="yes"/>
      <point x="45" y="711.789"/>
      <point x="90.9521" y="714"/>
      <point x="126" y="714" type="curve" smooth="yes"/>
      <point x="141.988" y="714"/>
      <point x="190.184" y="708"/>
    </contour>
  </outline>
</glyph>
<glyph name="J" format="1">
  <advance width="982"/>
  <unicode hex="004A"/>
  <outline>
    <contour>
      <point x="891.5" y="528" type="line"/>
      <point x="918.5" y="525" type="line"/>
      <point x="926.765" y="510.307"/>
      <point x="936.5" y="514.536"/>
      <point x="936.5" y="492" type="curve" smooth="yes"/>
      <point x="936.5" y="442.228"/>
      <point x="915.5" y="395.961"/>
      <point x="915.5" y="345" type="curve" smooth="yes"/>
      <point x="915.5" y="369" type="line" smooth="yes"/>
      <point x="915.5" y="405.576"/>
      <point x="890.328" y="423.944"/>
      <point x="870.5" y="450" type="curve" smooth="yes"/>
      <point x="816.69" y="520.708"/>
      <point x="720.292" y="502.834"/>
      <point x="642.5" y="507" type="curve" smooth="yes"/>
      <point x="607.679" y="507"/>
      <point x="534.792" y="480"/>
      <point x="522.5" y="480" type="curve" smooth="yes"/>
      <point x="603.5" y="480" type="line" smooth="yes"/>
      <point x="654.763" y="480"/>
      <point x="855.5" y="419.216"/>
      <point x="855.5" y="354" type="curve" smooth="yes"/>
      <point x="855.5" y="342.867"/>
      <point x="831.232" y="312"/>
      <point x="819.5" y="312" type="curve" smooth="yes"/>
      <point x="783.5" y="312" type="line" smooth="yes"/>
      <point x="758.144" y="312"/>
      <point x="747.711" y="252"/>
      <point x="717.5" y="252" type="curve" smooth="yes"/>
      <point x="680.678" y="252"/>
      <point x="631.379" y="253.368"/>
      <point x="603.5" y="279" type="curve" smooth="yes"/>
      <point x="538.231" y="339.007"/>
      <point x="423.384" y="305.287"/>
      <point x="423.5" y="210" type="curve" smooth="yes"/>
      <point x="423.5" y="190.088"/>
      <point x="438.745" y="138"/>
      <point x="462.5" y="138" type="curve" smooth="yes"/>
      <point x="499.105" y="138"/>
      <point x="552.519" y="160.955"/>
      <point x="597.5" y="162" type="curve" smooth="yes"/>
      <point x="719.586" y="164.835"/>
      <point x="894.86" y="175.569"/>
      <point x="921.5" y="18" type="curve" smooth="yes"/>
      <point x="921.5" y="4.3877"/>
      <point x="926.376" y="-9"/>
      <point x="912.5" y="-9" type="curve" smooth="yes"/>
      <point x="799.956" y="-9"/>
      <point x="688.441" y="9.87402"/>
      <point x="573.5" y="6" type="curve" smooth="yes"/>
      <point x="392.414" y="-0.103516"/>
      <point x="188.208" y="13.9043"/>
      <point x="45.5" y="129" type="curve"/>
      <point x="45.5" y="129"/>
      <point x="107.397" y="102"/>
      <point x="111.5" y="102" type="curve" smooth="yes"/>
      <point x="121.269" y="102"/>
      <point x="219.5" y="95.6807"/>
      <point x="219.5" y="123" type="curve" smooth="yes"/>
      <point x="219.5" y="148.204"/>
      <point x="201.974" y="182.489"/>
      <point x="213.5" y="207" type="curve" smooth="yes"/>
      <point x="251.241" y="287.256"/>
      <point x="137.038" y="305.585"/>
      <point x="111.5" y="366" type="curve"/>
      <point x="111.5" y="419.021"/>
      <point x="216.5" y="483.133"/>
      <point x="216.5" y="522" type="curve" smooth="yes"/>
      <point x="216.5" y="555" type="line" smooth="yes"/>
      <point x="216.5" y="623.737"/>
      <point x="328.628" y="720"/>
      <point x="390.5" y="720" type="curve" smooth="yes"/>
      <point x="557.555" y="720"/>
      <point x="708.79" y="552"/>
      <point x="843.5" y="552" type="curve"/>
    </contour>
  </outline>
</glyph>
<glyph name="K" format="1">
  <advance width="989"/>
  <unicode hex="004B"/>
  <outline>
    <contour>
      <point x="64.251" y="636" type="line"/>
      <point x="64.251" y="636"/>
      <point x="-6.73438" y="690.843"/>
      <point x="109.251" y="654" type="curve" smooth="yes"/>
      <point x="194.251" y="627"/>
      <point x="364.234" y="693"/>
      <point x="496.251" y="693" type="curve" smooth="yes"/>
      <point x="570.692" y="693"/>
      <point x="946.251" y="242.565"/>
      <point x="946.251" y="138" type="curve" smooth="yes"/>
      <point x="946.251" y="105.788"/>
      <point x="716.04" y="111"/>
      <point x="691.251" y="111" type="curve" smooth="yes"/>
      <point x="608.397" y="111"/>
      <point x="586.883" y="276"/>
      <point x="457.251" y="276" type="curve" smooth="yes"/>
      <point x="370.74" y="276"/>
      <point x="299.602" y="201"/>
      <point x="220.251" y="201" type="curve" smooth="yes"/>
      <point x="146.896" y="201"/>
      <point x="85.251" y="269.955"/>
      <point x="85.251" y="342" type="curve" smooth="yes"/>
      <point x="85.251" y="388.441"/>
      <point x="119.032" y="431.978"/>
      <point x="160.251" y="447" type="curve" smooth="yes"/>
      <point x="175.562" y="452.58"/>
      <point x="199.251" y="457.611"/>
      <point x="199.251" y="477" type="curve" smooth="yes"/>
      <point x="200.443" y="502.25"/>
      <point x="171.684" y="516.092"/>
      <point x="166.251" y="540" type="curve" smooth="yes"/>
      <point x="163.795" y="550.81"/>
      <point x="134.04" y="585.944"/>
      <point x="124.251" y="594" type="curve" smooth="yes"/>
      <point x="73.251" y="630" type="line"/>
    </contour>
  </outline>
</glyph>
<glyph name="L" format="1">
  <advance width="953"/>
  <unicode hex="004C"/>
  <outline>
    <contour>
      <point x="328" y="693" type="curve"/>
      <point x="340" y="717" type="line" smooth="yes"/>
      <point x="343.892" y="718.65"/>
      <point x="373" y="730.151"/>
      <point x="373" y="732" type="curve" smooth="yes"/>
      <point x="373" y="756" type="line" smooth="yes"/>
      <point x="373" y="778.636"/>
      <point x="387.214" y="822"/>
      <point x="409" y="822" type="curve" smooth="yes"/>
      <point x="444.264" y="822"/>
      <point x="631" y="783"/>
      <point x="631" y="783" type="curve"/>
      <point x="631" y="621.447"/>
      <point x="307" y="683.535"/>
      <point x="307" y="600" type="curve" smooth="yes"/>
      <point x="307" y="548.322"/>
      <point x="362.819" y="465"/>
      <point x="424" y="465" type="curve" smooth="yes"/>
      <point x="462.362" y="465"/>
      <point x="410.668" y="633"/>
      <point x="493" y="633" type="curve" smooth="yes"/>
      <point x="538.477" y="633"/>
      <point x="874" y="637.883"/>
      <point x="874" y="612" type="curve" smooth="yes"/>
      <point x="874" y="552.9"/>
      <point x="790" y="532.036"/>
      <point x="790" y="480" type="curve" smooth="yes"/>
      <point x="790" y="448.4"/>
      <point x="862" y="452.051"/>
      <point x="862" y="402" type="curve" smooth="yes"/>
      <point x="862" y="375.505"/>
      <point x="823" y="353.465"/>
      <point x="823" y="345" type="curve" smooth="yes"/>
      <point x="823" y="281.069"/>
      <point x="910" y="204.03"/>
      <point x="910" y="129" type="curve" smooth="yes"/>
      <point x="910" y="105.853"/>
      <point x="788.919" y="15"/>
      <point x="784" y="15" type="curve" smooth="yes"/>
      <point x="732.674" y="15"/>
      <point x="436" y="12.3486"/>
      <point x="436" y="108" type="curve" smooth="yes"/>
      <point x="436" y="119.411"/>
      <point x="458.375" y="126"/>
      <point x="466" y="126" type="curve" smooth="yes"/>
      <point x="619" y="126" type="line" smooth="yes"/>
      <point x="633.573" y="126"/>
      <point x="754" y="115.94"/>
      <point x="754" y="150" type="curve" smooth="yes"/>
      <point x="754" y="187.712"/>
      <point x="704.012" y="252"/>
      <point x="667" y="252" type="curve" smooth="yes"/>
      <point x="645.003" y="252"/>
      <point x="645.444" y="216"/>
      <point x="625" y="216" type="curve" smooth="yes"/>
      <point x="559.285" y="216"/>
      <point x="545.597" y="294"/>
      <point x="478" y="294" type="curve" smooth="yes"/>
      <point x="433" y="294" type="line" smooth="yes"/>
      <point x="420.9" y="294"/>
      <point x="418" y="293.8"/>
      <point x="418" y="294" type="curve" smooth="yes"/>
      <point x="418" y="307.903"/>
      <point x="427" y="319.972"/>
      <point x="427" y="333" type="curve"/>
      <point x="427" y="314.961"/>
      <point x="376" y="323.038"/>
      <point x="376" y="321" type="curve" smooth="yes"/>
      <point x="376" y="279.502"/>
      <point x="309.192" y="240"/>
      <point x="271" y="240" type="curve" smooth="yes"/>
      <point x="227.608" y="240"/>
      <point x="115" y="283.197"/>
      <point x="115" y="333" type="curve" smooth="yes"/>
      <point x="115" y="358.181"/>
      <point x="201.547" y="431.614"/>
      <point x="199" y="504" type="curve" smooth="yes"/>
      <point x="196.027" y="588.489"/>
      <point x="43.6025" y="573.541"/>
      <point x="43" y="660" type="curve" smooth="yes"/>
      <point x="43" y="717.264"/>
      <point x="134.665" y="702"/>
      <point x="169" y="702" type="curve" smooth="yes"/>
      <point x="203.4" y="702"/>
      <point x="298.463" y="699.831"/>
    </contour>
  </outline>
</glyph>
<glyph name="M" format="1">
  <advance width="909"/>
  <unicode hex="004D"/>
  <outline>
    <contour>
      <point x="321" y="665" type="curve" smooth="yes"/>
      <point x="321.614" y="685.058"/>
      <point x="308.999" y="698.595"/>
      <point x="288" y="708" type="curve" smooth="yes"/>
      <point x="269.838" y="716.135"/>
      <point x="236.302" y="734.009"/>
      <point x="216" y="747" type="curve" smooth="yes"/>
      <point x="185.859" y="766.287"/>
      <point x="129.265" y="764.988"/>
      <point x="126" y="807" type="curve" smooth="yes"/>
      <point x="126" y="821.918"/>
      <point x="123.485" y="828"/>
      <point x="141" y="828" type="curve" smooth="yes"/>
      <point x="358.935" y="828"/>
      <point x="279.185" y="769.272"/>
      <point x="384" y="642" type="curve" smooth="yes"/>
      <point x="392.373" y="631.833"/>
      <point x="393.127" y="619.188"/>
      <point x="393" y="606" type="curve" smooth="yes"/>
      <point x="393" y="592.597"/>
      <point x="390.019" y="577.135"/>
      <point x="393" y="564" type="curve" smooth="yes"/>
      <point x="399.056" y="537.326"/>
      <point x="386.802" y="485.324"/>
      <point x="420" y="477" type="curve"/>
      <point x="445.812" y="477"/>
      <point x="597" y="483.345"/>
      <point x="597" y="525" type="curve" smooth="yes"/>
      <point x="597" y="580.949"/>
      <point x="531" y="632.947"/>
      <point x="531" y="702" type="curve" smooth="yes"/>
      <point x="531" y="747.284"/>
      <point x="545.661" y="819"/>
      <point x="606" y="819" type="curve" smooth="yes"/>
      <point x="648.082" y="819"/>
      <point x="753" y="809.02"/>
      <point x="753" y="750" type="curve" smooth="yes"/>
      <point x="753" y="681.071"/>
      <point x="666" y="656.277"/>
      <point x="666" y="600" type="curve" smooth="yes"/>
      <point x="666" y="492.236"/>
      <point x="864" y="488.703"/>
      <point x="864" y="330" type="curve" smooth="yes"/>
      <point x="864" y="167.491"/>
      <point x="747.108" y="72"/>
      <point x="582" y="72" type="curve" smooth="yes"/>
      <point x="532.398" y="72"/>
      <point x="45" y="40.9746"/>
      <point x="45" y="153" type="curve" smooth="yes"/>
      <point x="45" y="201.309"/>
      <point x="501" y="148.052"/>
      <point x="501" y="261" type="curve" smooth="yes"/>
      <point x="501" y="349.109"/>
      <point x="69" y="441.262"/>
      <point x="69" y="597" type="curve" smooth="yes"/>
      <point x="69" y="650.854"/>
      <point x="127.41" y="660"/>
      <point x="174" y="660" type="curve"/>
      <point x="174" y="660"/>
      <point x="270.967" y="651.398"/>
      <point x="285" y="648" type="curve" smooth="yes"/>
      <point x="316.276" y="640.426"/>
      <point x="318.317" y="652.933"/>
    </contour>
  </outline>
</glyph>
<glyph name="N" format="1">
  <advance width="1396"/>
  <unicode hex="004E"/>
  <outline>
    <contour>
      <point x="232.455" y="711" type="line"/>
      <point x="291.455" y="510"/>
      <point x="396.428" y="666.346"/>
      <point x="490.455" y="663" type="curve" smooth="yes"/>
      <point x="541.081" y="661.199"/>
      <point x="850.455" y="588.4"/>
      <point x="850.455" y="579" type="curve" smooth="yes"/>
      <point x="850.455" y="566.265"/>
      <point x="847.455" y="555.622"/>
      <point x="847.455" y="543" type="curve" smooth="yes"/>
      <point x="847.455" y="410.055"/>
      <point x="1348.46" y="587.419"/>
      <point x="1348.46" y="366" type="curve" smooth="yes"/>
      <point x="1348.46" y="285.048"/>
      <point x="1363.42" y="255"/>
      <point x="1282.46" y="255" type="curve" smooth="yes"/>
      <point x="1220.48" y="255"/>
      <point x="1159.86" y="237"/>
      <point x="1102.46" y="237" type="curve" smooth="yes"/>
      <point x="1073.14" y="237"/>
      <point x="1048.79" y="246"/>
      <point x="1021.46" y="246" type="curve" smooth="yes"/>
      <point x="928.327" y="246"/>
      <point x="844.622" y="174"/>
      <point x="733.455" y="174" type="curve" smooth="yes"/>
      <point x="657.36" y="174.839"/>
      <point x="579.695" y="171.487"/>
      <point x="505.455" y="177" type="curve" smooth="yes"/>
      <point x="417.905" y="183.501"/>
      <point x="391.455" y="227.148"/>
      <point x="391.455" y="321" type="curve" smooth="yes"/>
      <point x="391.455" y="360.481"/>
      <point x="460.455" y="361.349"/>
      <point x="460.455" y="405" type="curve"/>
      <point x="422.334" y="484.379"/>
      <point x="283.845" y="466.112"/>
      <point x="199.455" y="480" type="curve" smooth="yes"/>
      <point x="124.236" y="492.379"/>
      <point x="46.4551" y="457.121"/>
      <point x="46.4551" y="567" type="curve" smooth="yes"/>
      <point x="46.4551" y="598.213"/>
      <point x="64.9404" y="609"/>
      <point x="100.455" y="609" type="curve" smooth="yes"/>
      <point x="123.198" y="612.686"/>
      <point x="143.592" y="602.991"/>
      <point x="163.455" y="594" type="curve" smooth="yes"/>
      <point x="178.059" y="587.39"/>
      <point x="181.501" y="576"/>
      <point x="199.455" y="576" type="curve" smooth="yes"/>
      <point x="203.801" y="576"/>
      <point x="205.455" y="591.389"/>
      <point x="205.455" y="597" type="curve" smooth="yes"/>
      <point x="208.467" y="615.795"/>
      <point x="186.366" y="627.029"/>
      <point x="178.455" y="636" type="curve" smooth="yes"/>
      <point x="165.969" y="650.158"/>
      <point x="148.455" y="660.094"/>
      <point x="148.455" y="687" type="curve" smooth="yes"/>
      <point x="145.267" y="704.288"/>
      <point x="158.748" y="715.596"/>
      <point x="163.455" y="732" type="curve" smooth="yes"/>
      <point x="165.416" y="738.835"/>
      <point x="176.854" y="774"/>
      <point x="187.455" y="774" type="curve" smooth="yes"/>
      <point x="200.78" y="774"/>
      <point x="216.569" y="765.771"/>
      <point x="229.455" y="762" type="curve"/>
    </contour>
  </outline>
</glyph>
<glyph name="O" format="1">
  <advance width="1068"/>
  <unicode hex="004F"/>
  <outline>
    <contour>
      <point x="310.5" y="573" type="curve" smooth="yes"/>
      <point x="340.5" y="570" type="line"/>
      <point x="358.386" y="560.867"/>
      <point x="365.39" y="546"/>
      <point x="388.5" y="546" type="curve" smooth="yes"/>
      <point x="399.657" y="546"/>
      <point x="411.726" y="546.122"/>
      <point x="424.5" y="546" type="curve" smooth="yes"/>
      <point x="496.682" y="545.312"/>
      <point x="582.354" y="574.362"/>
      <point x="607.5" y="645" type="curve" smooth="yes"/>
      <point x="627.394" y="700.886"/>
      <point x="683.628" y="730.787"/>
      <point x="742.5" y="720" type="curve" smooth="yes"/>
      <point x="761.927" y="720"/>
      <point x="844.5" y="730.975"/>
      <point x="844.5" y="702" type="curve" smooth="yes"/>
      <point x="844.5" y="567.65"/>
      <point x="622.5" y="574.146"/>
      <point x="622.5" y="447" type="curve" smooth="yes"/>
      <point x="622.5" y="394.872"/>
      <point x="1021.5" y="427.935"/>
      <point x="1021.5" y="261" type="curve" smooth="yes"/>
      <point x="1021.5" y="190.896"/>
      <point x="1017.43" y="144"/>
      <point x="940.5" y="144" type="curve" smooth="yes"/>
      <point x="794.078" y="144"/>
      <point x="677.966" y="240"/>
      <point x="526.5" y="240" type="curve" smooth="yes"/>
      <point x="395.439" y="240"/>
      <point x="304.534" y="105"/>
      <point x="181.5" y="105" type="curve" smooth="yes"/>
      <point x="138.564" y="105"/>
      <point x="46.5" y="93.8379"/>
      <point x="46.5" y="156" type="curve" smooth="yes"/>
      <point x="46.5" y="308.541"/>
      <point x="271.5" y="293.498"/>
      <point x="271.5" y="426" type="curve" smooth="yes"/>
      <point x="271.5" y="475.59"/>
      <point x="103.5" y="464.688"/>
      <point x="103.5" y="537" type="curve" smooth="yes"/>
      <point x="103.5" y="580.172"/>
      <point x="184.678" y="579"/>
      <point x="214.5" y="579" type="curve" smooth="yes"/>
      <point x="235.449" y="579"/>
      <point x="288.481" y="575.202"/>
    </contour>
  </outline>
</glyph>
<glyph name="P" format="1">
  <advance width="1129"/>
  <unicode hex="0050"/>
  <outline>
    <contour>
      <point x="174.5" y="579" type="line"/>
      <point x="143.5" y="651"/>
      <point x="302.936" y="669"/>
      <point x="369.5" y="669" type="curve" smooth="yes"/>
      <point x="411.99" y="669"/>
      <point x="422.771" y="501"/>
      <point x="474.5" y="501" type="curve" smooth="yes"/>
      <point x="516.075" y="501"/>
      <point x="590.479" y="723"/>
      <point x="681.5" y="723" type="curve"/>
      <point x="774.701" y="576.451"/>
      <point x="1044.22" y="514.76"/>
      <point x="972.5" y="297" type="curve" smooth="yes"/>
      <point x="918.941" y="134.371"/>
      <point x="1086.5" y="179.806"/>
      <point x="1086.5" y="60" type="curve" smooth="yes"/>
      <point x="1086.5" y="27.3584"/>
      <point x="1030.46" y="39"/>
      <point x="1011.5" y="39" type="curve" smooth="yes"/>
      <point x="929.915" y="39"/>
      <point x="762.5" y="103.961"/>
      <point x="762.5" y="201" type="curve" smooth="yes"/>
      <point x="762.5" y="231.227"/>
      <point x="846.5" y="223.278"/>
      <point x="846.5" y="258" type="curve" smooth="yes"/>
      <point x="846.5" y="311.553"/>
      <point x="743.867" y="369"/>
      <point x="696.5" y="369" type="curve" smooth="yes"/>
      <point x="662.591" y="369"/>
      <point x="648.5" y="341.854"/>
      <point x="648.5" y="315" type="curve" smooth="yes"/>
      <point x="648.5" y="270.086"/>
      <point x="654.5" y="223.761"/>
      <point x="654.5" y="180" type="curve" smooth="yes"/>
      <point x="654.5" y="173.372"/>
      <point x="587.298" y="177"/>
      <point x="582.5" y="177" type="curve" smooth="yes"/>
      <point x="342.201" y="177"/>
      <point x="318.157" y="444"/>
      <point x="105.5" y="444" type="curve" smooth="yes"/>
      <point x="71.0898" y="444"/>
      <point x="42.5" y="491.008"/>
      <point x="42.5" y="522" type="curve" smooth="yes"/>
      <point x="42.5" y="545.759"/>
      <point x="75.3232" y="552"/>
      <point x="93.5" y="552" type="curve" smooth="yes"/>
      <point x="122.799" y="552"/>
      <point x="142.832" y="528"/>
      <point x="177.5" y="528" type="curve" smooth="yes"/>
      <point x="195.338" y="528"/>
      <point x="204.5" y="522.852"/>
      <point x="204.5" y="543" type="curve" smooth="yes"/>
      <point x="204.5" y="556.039"/>
      <point x="197.327" y="556.173"/>
      <point x="192.5" y="561" type="curve" smooth="yes"/>
    </contour>
  </outline>
</glyph>
<glyph name="Q" format="1">
  <advance width="1181"/>
  <unicode hex="0051"/>
  <outline>
    <contour>
      <point x="309.408" y="579" type="curve" smooth="yes"/>
      <point x="371.408" y="567"/>
      <point x="417.831" y="605.148"/>
      <point x="471.408" y="594" type="curve" smooth="yes"/>
      <point x="619.229" y="563.241"/>
      <point x="762.186" y="502.478"/>
      <point x="918.408" y="507" type="curve"/>
      <point x="1068.11" y="549.832"/>
      <point x="1139.55" y="380.928"/>
      <point x="1125.41" y="258" type="curve"/>
      <point x="1142.6" y="203.164"/>
      <point x="1101.79" y="183.204"/>
      <point x="1053.41" y="198" type="curve" smooth="yes"/>
      <point x="988.51" y="217.848"/>
      <point x="929.919" y="179.147"/>
      <point x="870.408" y="165" type="curve" smooth="yes"/>
      <point x="823.107" y="153.755"/>
      <point x="772.697" y="138.897"/>
      <point x="723.408" y="126" type="curve" smooth="yes"/>
      <point x="634.538" y="99.54"/>
      <point x="575.575" y="151.837"/>
      <point x="507.408" y="180" type="curve" smooth="yes"/>
      <point x="442.263" y="206.914"/>
      <point x="412.622" y="276.61"/>
      <point x="348.408" y="288" type="curve" smooth="yes"/>
      <point x="284.149" y="299.397"/>
      <point x="219.643" y="307.406"/>
      <point x="156.408" y="300" type="curve" smooth="yes"/>
      <point x="53.5537" y="287.953"/>
      <point x="45.2002" y="412.672"/>
      <point x="54.4082" y="486" type="curve" smooth="yes"/>
      <point x="60.333" y="533.187"/>
      <point x="52.2168" y="681"/>
      <point x="135.408" y="681" type="curve" smooth="yes"/>
      <point x="156.62" y="681.795"/>
      <point x="163.765" y="659.197"/>
      <point x="180.408" y="651" type="curve" smooth="yes"/>
      <point x="193.566" y="644.519"/>
      <point x="252.408" y="590"/>
    </contour>
  </outline>
</glyph>
<glyph name="R" format="1">
  <advance width="803"/>
  <unicode hex="0052"/>
  <outline>
    <contour>
      <point x="106" y="636" type="curve" smooth="yes"/>
      <point x="106" y="725"/>
      <point x="189" y="798"/>
      <point x="293" y="798" type="curve" smooth="yes"/>
      <point x="374.523" y="798"/>
      <point x="443.758" y="753.144"/>
      <point x="469.876" y="690.887" type="curve"/>
      <point x="478.621" y="692.272"/>
      <point x="487.692" y="693"/>
      <point x="497" y="693" type="curve" smooth="yes"/>
      <point x="513.353" y="693"/>
      <point x="529.021" y="690.754"/>
      <point x="543.511" y="686.639" type="curve"/>
      <point x="559.8" y="718.236"/>
      <point x="583.147" y="738"/>
      <point x="609" y="738" type="curve" smooth="yes"/>
      <point x="647.924" y="738"/>
      <point x="680.537" y="693.199"/>
      <point x="692.305" y="630.663" type="curve"/>
      <point x="706.91" y="623.902"/>
      <point x="718.709" y="603.015"/>
      <point x="723.995" y="575.164" type="curve"/>
      <point x="741.214" y="554.824"/>
      <point x="751" y="531.591"/>
      <point x="751" y="507" type="curve" smooth="yes"/>
      <point x="751" y="428"/>
      <point x="650" y="363"/>
      <point x="526" y="363" type="curve" smooth="yes"/>
      <point x="474.737" y="363"/>
      <point x="427.406" y="374.108"/>
      <point x="389.516" y="392.724" type="curve"/>
      <point x="353.973" y="376.346"/>
      <point x="302.36" y="366"/>
      <point x="245" y="366" type="curve" smooth="yes"/>
      <point x="138" y="366"/>
      <point x="52" y="402"/>
      <point x="52" y="446" type="curve" smooth="yes"/>
      <point x="52" y="455.899"/>
      <point x="56.3535" y="465.343"/>
      <point x="64.3193" y="474.035" type="curve"/>
      <point x="56.6523" y="488.04"/>
      <point x="52" y="506.211"/>
      <point x="52" y="526" type="curve" smooth="yes"/>
      <point x="52" y="563.594"/>
      <point x="68.79" y="595.348"/>
      <point x="91.1436" y="603.797" type="curve"/>
      <point x="94.7119" y="613.109"/>
      <point x="99.7656" y="621.99"/>
      <point x="106.113" y="630.306" type="curve" smooth="yes"/>
      <point x="106.038" y="632.196"/>
      <point x="106" y="634.095"/>
    </contour>
  </outline>
</glyph>
<glyph name="S" format="1">
  <advance width="912"/>
  <unicode hex="0053"/>
  <outline>
    <contour>
      <point x="362.318" y="561" type="line"/>
      <point x="365.318" y="558" type="line"/>
      <point x="434.318" y="558" type="line"/>
      <point x="439.728" y="577.834"/>
      <point x="446.318" y="579.472"/>
      <point x="446.318" y="603" type="curve" smooth="yes"/>
      <point x="446.318" y="654.419"/>
      <point x="365.318" y="640.835"/>
      <point x="365.318" y="696" type="curve" smooth="yes"/>
      <point x="365.318" y="734.963"/>
      <point x="381.618" y="753"/>
      <point x="419.318" y="753" type="curve" smooth="yes"/>
      <point x="486.188" y="753"/>
      <point x="659.318" y="761.905"/>
      <point x="659.318" y="657" type="curve" smooth="yes"/>
      <point x="659.318" y="596.013"/>
      <point x="587.318" y="566.476"/>
      <point x="587.318" y="498" type="curve" smooth="yes"/>
      <point x="587.318" y="470.843"/>
      <point x="604.441" y="390"/>
      <point x="647.318" y="390" type="curve" smooth="yes"/>
      <point x="671.318" y="390" type="line" smooth="yes"/>
      <point x="815.627" y="390"/>
      <point x="860.318" y="337.712"/>
      <point x="860.318" y="195" type="curve"/>
      <point x="860.318" y="195"/>
      <point x="867.65" y="69"/>
      <point x="848.318" y="69" type="curve" smooth="yes"/>
      <point x="806.714" y="69"/>
      <point x="777.075" y="168"/>
      <point x="719.318" y="168" type="curve" smooth="yes"/>
      <point x="612.634" y="168"/>
      <point x="529.372" y="39"/>
      <point x="407.318" y="39" type="curve" smooth="yes"/>
      <point x="341.377" y="39"/>
      <point x="56.3184" y="29.3135"/>
      <point x="56.3184" y="144" type="curve" smooth="yes"/>
      <point x="56.3184" y="146.325"/>
      <point x="52.8076" y="168"/>
      <point x="59.3184" y="168" type="curve" smooth="yes"/>
      <point x="96.6953" y="168"/>
      <point x="161.021" y="111"/>
      <point x="215.318" y="111" type="curve" smooth="yes"/>
      <point x="232.737" y="111"/>
      <point x="338.318" y="286.52"/>
      <point x="338.318" y="309" type="curve" smooth="yes"/>
      <point x="338.318" y="418.648"/>
      <point x="50.3184" y="429.102"/>
      <point x="50.3184" y="507" type="curve" smooth="yes"/>
      <point x="50.3184" y="605.06"/>
      <point x="201.607" y="594"/>
      <point x="272.318" y="594" type="curve"/>
    </contour>
  </outline>
</glyph>
<glyph name="T" format="1">
  <advance width="884"/>
  <unicode hex="0054"/>
  <outline>
    <contour>
      <point x="370" y="636" type="curve"/>
      <point x="373" y="627" type="line"/>
      <point x="439" y="618" type="line"/>
      <point x="448" y="696" type="line"/>
      <point x="496.225" y="714.668"/>
      <point x="523.679" y="756"/>
      <point x="604" y="756" type="curve" smooth="yes"/>
      <point x="634.194" y="756"/>
      <point x="748" y="767.541"/>
      <point x="748" y="714" type="curve" smooth="yes"/>
      <point x="748" y="651.79"/>
      <point x="707.804" y="629.828"/>
      <point x="673" y="591" type="curve" smooth="yes"/>
      <point x="628.807" y="541.696"/>
      <point x="603.129" y="473.638"/>
      <point x="589" y="411" type="curve"/>
      <point x="589" y="386.936"/>
      <point x="577.428" y="351"/>
      <point x="610" y="351" type="curve" smooth="yes"/>
      <point x="645.159" y="351"/>
      <point x="684.537" y="366"/>
      <point x="724" y="366" type="curve" smooth="yes"/>
      <point x="764.53" y="366"/>
      <point x="838" y="327.915"/>
      <point x="838" y="282" type="curve" smooth="yes"/>
      <point x="838" y="230.041"/>
      <point x="815.441" y="120"/>
      <point x="748" y="120" type="curve" smooth="yes"/>
      <point x="680.354" y="120"/>
      <point x="651.194" y="198"/>
      <point x="583" y="198" type="curve" smooth="yes"/>
      <point x="524.371" y="198"/>
      <point x="526.824" y="66"/>
      <point x="445" y="66" type="curve" smooth="yes"/>
      <point x="364.748" y="66"/>
      <point x="46" y="37.792"/>
      <point x="46" y="174" type="curve" smooth="yes"/>
      <point x="46" y="296.69"/>
      <point x="211" y="297.052"/>
      <point x="211" y="378" type="curve" smooth="yes"/>
      <point x="211" y="465.315"/>
      <point x="100" y="504.297"/>
      <point x="100" y="591" type="curve" smooth="yes"/>
      <point x="100" y="651.931"/>
      <point x="227.513" y="645"/>
      <point x="265" y="645" type="curve" smooth="yes"/>
      <point x="290.05" y="645"/>
      <point x="344.35" y="636"/>
    </contour>
  </outline>
</glyph>
<glyph name="U" format="1">
  <advance width="1019"/>
  <unicode hex="0055"/>
  <outline>
    <contour>
      <point x="311.5" y="711" type="curve"/>
      <point x="260.5" y="651" type="line"/>
      <point x="260.5" y="639" type="line" smooth="yes"/>
      <point x="260.5" y="600.315"/>
      <point x="296.309" y="579"/>
      <point x="332.5" y="579" type="curve" smooth="yes"/>
      <point x="413.109" y="579"/>
      <point x="446.662" y="753"/>
      <point x="593.5" y="753" type="curve" smooth="yes"/>
      <point x="657.069" y="753"/>
      <point x="698.5" y="696.335"/>
      <point x="698.5" y="636" type="curve" smooth="yes"/>
      <point x="698.5" y="469.85"/>
      <point x="443.5" y="536.246"/>
      <point x="443.5" y="378" type="curve" smooth="yes"/>
      <point x="443.5" y="350.552"/>
      <point x="450.873" y="270"/>
      <point x="485.5" y="270" type="curve" smooth="yes"/>
      <point x="536.041" y="270"/>
      <point x="578.179" y="321"/>
      <point x="632.5" y="321" type="curve" smooth="yes"/>
      <point x="731.722" y="321"/>
      <point x="971.5" y="328.844"/>
      <point x="971.5" y="183" type="curve" smooth="yes"/>
      <point x="971.5" y="156.974"/>
      <point x="966.045" y="48"/>
      <point x="935.5" y="48" type="curve" smooth="yes"/>
      <point x="869.675" y="48"/>
      <point x="835.456" y="135"/>
      <point x="764.5" y="135" type="curve" smooth="yes"/>
      <point x="595.737" y="135"/>
      <point x="451.662" y="63.2529"/>
      <point x="269.5" y="57" type="curve" smooth="yes"/>
      <point x="195.677" y="54.4658"/>
      <point x="65.9189" y="59.2441"/>
      <point x="65.5" y="156" type="curve" smooth="yes"/>
      <point x="65.5" y="253.491"/>
      <point x="158.5" y="336.653"/>
      <point x="158.5" y="429" type="curve" smooth="yes"/>
      <point x="158.5" y="510.881"/>
      <point x="47.5" y="520.307"/>
      <point x="47.5" y="603" type="curve" smooth="yes"/>
      <point x="47.5" y="705.509"/>
      <point x="233.036" y="685.735"/>
    </contour>
  </outline>
</glyph>
<glyph name="V" format="1">
  <advance width="1320"/>
  <unicode hex="0056"/>
  <outline>
    <contour>
      <point x="116.359" y="450" type="curve" smooth="yes"/>
      <point x="189.287" y="517.011"/>
      <point x="279.302" y="606"/>
      <point x="389.359" y="606" type="curve" smooth="yes"/>
      <point x="493.734" y="606"/>
      <point x="547.845" y="510"/>
      <point x="641.359" y="510" type="curve" smooth="yes"/>
      <point x="760.749" y="510"/>
      <point x="871.956" y="567"/>
      <point x="995.359" y="567" type="curve" smooth="yes"/>
      <point x="1074.78" y="567"/>
      <point x="1268.36" y="509.993"/>
      <point x="1268.36" y="402" type="curve" smooth="yes"/>
      <point x="1268.36" y="374.826"/>
      <point x="1109.36" y="342.505"/>
      <point x="1109.36" y="243" type="curve" smooth="yes"/>
      <point x="1109.36" y="180.425"/>
      <point x="1187.36" y="189.254"/>
      <point x="1187.36" y="132" type="curve" smooth="yes"/>
      <point x="1187.36" y="45.6328"/>
      <point x="1117.15" y="48"/>
      <point x="1052.36" y="48" type="curve" smooth="yes"/>
      <point x="843.781" y="48"/>
      <point x="870.147" y="282"/>
      <point x="677.359" y="282" type="curve" smooth="yes"/>
      <point x="522.811" y="282"/>
      <point x="377.592" y="190.801"/>
      <point x="218.359" y="210" type="curve"/>
      <point x="112.615" y="179.099"/>
      <point x="39.333" y="267.103"/>
      <point x="53.3594" y="363" type="curve"/>
      <point x="66.5645" y="384.768"/>
      <point x="65.5156" y="403.282"/>
    </contour>
  </outline>
</glyph>
<glyph name="W" format="1">
  <advance width="1374"/>
  <unicode hex="0057"/>
  <outline>
    <contour>
      <point x="256.655" y="456" type="line" smooth="yes"/>
      <point x="248.989" y="462.672"/>
      <point x="253.655" y="472.047"/>
      <point x="253.655" y="480" type="curve" smooth="yes"/>
      <point x="253.655" y="565.363"/>
      <point x="447.026" y="636"/>
      <point x="526.655" y="636" type="curve"/>
      <point x="619.863" y="583.047"/>
      <point x="729.317" y="596.517"/>
      <point x="835.655" y="597" type="curve" smooth="yes"/>
      <point x="1003.83" y="597.265"/>
      <point x="1237.5" y="601.334"/>
      <point x="1312.66" y="420" type="curve" smooth="yes"/>
      <point x="1321.28" y="399.182"/>
      <point x="1324.66" y="386.227"/>
      <point x="1324.66" y="363" type="curve" smooth="yes"/>
      <point x="1324.66" y="325.989"/>
      <point x="729.235" y="96"/>
      <point x="592.655" y="96" type="curve" smooth="yes"/>
      <point x="509.125" y="96"/>
      <point x="397.655" y="203.86"/>
      <point x="397.655" y="288" type="curve" smooth="yes"/>
      <point x="397.655" y="330" type="line" smooth="yes"/>
      <point x="397.655" y="365.513"/>
      <point x="351.787" y="354"/>
      <point x="331.655" y="354" type="curve" smooth="yes"/>
      <point x="281.383" y="358.378"/>
      <point x="231.832" y="349.946"/>
      <point x="187.655" y="330" type="curve" smooth="yes"/>
      <point x="160.735" y="317.845"/>
      <point x="125.549" y="315"/>
      <point x="97.6553" y="315" type="curve" smooth="yes"/>
      <point x="64.9004" y="315"/>
      <point x="49.6553" y="337.391"/>
      <point x="49.6553" y="366" type="curve" smooth="yes"/>
      <point x="43.8301" y="418.877"/>
      <point x="121.659" y="404.113"/>
      <point x="154.655" y="396" type="curve" smooth="yes"/>
      <point x="187.772" y="387.857"/>
      <point x="217.284" y="384"/>
      <point x="253.655" y="384" type="curve" smooth="yes"/>
      <point x="265.639" y="384"/>
      <point x="286.655" y="395.986"/>
      <point x="286.655" y="411" type="curve" smooth="yes"/>
      <point x="286.655" y="417" type="line"/>
    </contour>
  </outline>
</glyph>
<glyph name="X" format="1">
  <advance width="1177"/>
  <unicode hex="0058"/>
  <outline>
    <contour>
      <point x="261.809" y="516" type="line"/>
      <point x="246.809" y="560"/>
      <point x="496.921" y="536.184"/>
      <point x="594.809" y="540" type="curve" smooth="yes"/>
      <point x="635.973" y="541.605"/>
      <point x="674.937" y="523.151"/>
      <point x="717.809" y="525" type="curve" smooth="yes"/>
      <point x="846.13" y="530.764"/>
      <point x="975.895" y="518.329"/>
      <point x="1086.81" y="450" type="curve" smooth="yes"/>
      <point x="1101.35" y="441.039"/>
      <point x="1125.81" y="426.413"/>
      <point x="1125.81" y="402" type="curve" smooth="yes"/>
      <point x="1122.61" y="385.639"/>
      <point x="1118.2" y="363.597"/>
      <point x="1098.81" y="366" type="curve" smooth="yes"/>
      <point x="1073.41" y="369.147"/>
      <point x="1032.81" y="342.63"/>
      <point x="1032.81" y="318" type="curve" smooth="yes"/>
      <point x="1032.81" y="305.364"/>
      <point x="1038.81" y="302.02"/>
      <point x="1038.81" y="291" type="curve" smooth="yes"/>
      <point x="1038.81" y="223.029"/>
      <point x="913.616" y="225"/>
      <point x="873.809" y="225" type="curve" smooth="yes"/>
      <point x="806.147" y="222.534"/>
      <point x="753.409" y="275.195"/>
      <point x="690.809" y="285" type="curve" smooth="yes"/>
      <point x="573.201" y="303.42"/>
      <point x="467.522" y="264"/>
      <point x="351.809" y="264" type="curve" smooth="yes"/>
      <point x="241.895" y="264"/>
      <point x="69.0527" y="300.947"/>
      <point x="51.8086" y="426" type="curve" smooth="yes"/>
      <point x="43.46" y="486.536"/>
      <point x="121.914" y="471.086"/>
      <point x="153.809" y="462" type="curve" smooth="yes"/>
      <point x="177.68" y="455.199"/>
      <point x="228.809" y="453.223"/>
      <point x="228.809" y="480" type="curve" smooth="yes"/>
      <point x="228.809" y="492.683"/>
      <point x="226.591" y="502.431"/>
      <point x="225.809" y="510" type="curve"/>
    </contour>
  </outline>
</glyph>
<glyph name="Y" format="1">
  <advance width="774"/>
  <unicode hex="0059"/>
  <outline>
    <contour>
      <point x="166.5" y="666" type="curve"/>
      <point x="191.516" y="659.016"/>
      <point x="216.673" y="652.173"/>
      <point x="241.5" y="645" type="curve"/>
      <point x="334.5" y="642" type="line" smooth="yes"/>
      <point x="341.713" y="638.183"/>
      <point x="374.876" y="673.974"/>
      <point x="379.5" y="681" type="curve" smooth="yes"/>
      <point x="410.161" y="727.592"/>
      <point x="463.9" y="747"/>
      <point x="523.5" y="747" type="curve" smooth="yes"/>
      <point x="587.196" y="747"/>
      <point x="670.5" y="738.314"/>
      <point x="670.5" y="660" type="curve" smooth="yes"/>
      <point x="670.5" y="534.502"/>
      <point x="388.5" y="600.516"/>
      <point x="388.5" y="477" type="curve" smooth="yes"/>
      <point x="388.5" y="376.706"/>
      <point x="730.5" y="420.617"/>
      <point x="730.5" y="258" type="curve" smooth="yes"/>
      <point x="730.5" y="192.683"/>
      <point x="669.07" y="153"/>
      <point x="607.5" y="153" type="curve" smooth="yes"/>
      <point x="455.11" y="153"/>
      <point x="43.5" y="407.45"/>
      <point x="43.5" y="573" type="curve" smooth="yes"/>
      <point x="43.5" y="633.544"/>
      <point x="166.5" y="655.003"/>
    </contour>
  </outline>
</glyph>
<glyph name="Z" format="1">
  <advance width="1250"/>
  <unicode hex="005A"/>
  <outline>
    <contour>
      <point x="487.611" y="603" type="line"/>
      <point x="535.611" y="603" type="line" smooth="yes"/>
      <point x="621.76" y="603"/>
      <point x="705.338" y="630"/>
      <point x="793.611" y="630" type="curve" smooth="yes"/>
      <point x="1081" y="630"/>
      <point x="1018.51" y="412.034"/>
      <point x="1111.61" y="174" type="curve" smooth="yes"/>
      <point x="1124.22" y="141.774"/>
      <point x="1204.61" y="94.9805"/>
      <point x="1204.61" y="63" type="curve"/>
      <point x="1189.58" y="33.4346"/>
      <point x="1146.1" y="19.8369"/>
      <point x="1114.61" y="15" type="curve" smooth="yes"/>
      <point x="973.078" y="-6.73535"/>
      <point x="966.702" y="196.973"/>
      <point x="859.611" y="228" type="curve"/>
      <point x="751.22" y="204.226"/>
      <point x="582.06" y="233.651"/>
      <point x="529.611" y="123" type="curve" smooth="yes"/>
      <point x="505.362" y="71.8428"/>
      <point x="436.484" y="80.8574"/>
      <point x="388.611" y="75" type="curve" smooth="yes"/>
      <point x="213.028" y="53.5156"/>
      <point x="90.9941" y="203.141"/>
      <point x="70.6113" y="366" type="curve" smooth="yes"/>
      <point x="63.0469" y="426.437"/>
      <point x="39.8428" y="485.847"/>
      <point x="46.6113" y="549" type="curve" smooth="yes"/>
      <point x="55.4512" y="631.491"/>
      <point x="39.9951" y="708"/>
      <point x="145.611" y="708" type="curve" smooth="yes"/>
      <point x="188.378" y="704.659"/>
      <point x="220.732" y="667.779"/>
      <point x="217.611" y="627" type="curve" smooth="yes"/>
      <point x="213.478" y="573.012"/>
      <point x="280.305" y="569.593"/>
      <point x="322.611" y="576" type="curve" smooth="yes"/>
      <point x="352.393" y="580.51"/>
      <point x="379.053" y="582.123"/>
      <point x="409.611" y="588" type="curve" smooth="yes"/>
    </contour>
  </outline>
</glyph>
<glyph name="bracketleft" format="1">
  <advance width="1208"/>
  <unicode hex="005B"/>
  <outline>
    <contour>
      <point x="74.3037" y="477" type="line"/>
      <point x="-60.6963" y="492"/>
      <point x="303.303" y="557.762"/>
      <point x="416.304" y="597" type="curve" smooth="yes"/>
      <point x="558.931" y="646.525"/>
      <point x="1163.3" y="412.803"/>
      <point x="1163.3" y="222" type="curve" smooth="yes"/>
      <point x="1163.3" y="129.427"/>
      <point x="1038.88" y="114"/>
      <point x="968.304" y="114" type="curve" smooth="yes"/>
      <point x="808.126" y="114"/>
      <point x="719.701" y="315"/>
      <point x="566.304" y="315" type="curve" smooth="yes"/>
      <point x="450.624" y="315"/>
      <point x="363.278" y="213"/>
      <point x="248.304" y="213" type="curve" smooth="yes"/>
      <point x="165.266" y="213"/>
      <point x="86.3037" y="224.535"/>
      <point x="86.3037" y="315" type="curve" smooth="yes"/>
      <point x="86.3037" y="414.291"/>
      <point x="206.749" y="449.117"/>
      <point x="296.304" y="435" type="curve" smooth="yes"/>
      <point x="321.024" y="431.103"/>
      <point x="365.304" y="426.026"/>
      <point x="365.304" y="456" type="curve" smooth="yes"/>
      <point x="365.304" y="469.536"/>
      <point x="363.979" y="459.062"/>
      <point x="356.304" y="471" type="curve"/>
    </contour>
  </outline>
</glyph>
<glyph name="backslash" format="1">
  <advance width="1332"/>
  <unicode hex="005C"/>
  <outline>
    <contour>
      <point x="130.739" y="474" type="line"/>
      <point x="132.528" y="467.586"/>
      <point x="155.191" y="495"/>
      <point x="160.739" y="495" type="curve" smooth="yes"/>
      <point x="329.276" y="495"/>
      <point x="489.915" y="561"/>
      <point x="658.739" y="561" type="curve" smooth="yes"/>
      <point x="766.038" y="561"/>
      <point x="1279.74" y="523.111"/>
      <point x="1279.74" y="372" type="curve" smooth="yes"/>
      <point x="1279.74" y="329.594"/>
      <point x="1190.95" y="318"/>
      <point x="1162.74" y="318" type="curve" smooth="yes"/>
      <point x="1123.74" y="318" type="line" smooth="yes"/>
      <point x="987.402" y="318"/>
      <point x="885.436" y="180"/>
      <point x="733.739" y="180" type="curve" smooth="yes"/>
      <point x="534.448" y="180"/>
      <point x="375.915" y="302.108"/>
      <point x="175.739" y="270" type="curve" smooth="yes"/>
      <point x="108.195" y="257.693"/>
      <point x="35.375" y="275.996"/>
      <point x="55.7393" y="360" type="curve" smooth="yes"/>
      <point x="58.1133" y="369.791"/>
      <point x="67.7393" y="399.824"/>
      <point x="67.7393" y="408" type="curve" smooth="yes"/>
      <point x="67.7393" y="429" type="line" smooth="yes"/>
      <point x="67.7393" y="439.775"/>
      <point x="114.578" y="452.552"/>
      <point x="121.739" y="456" type="curve"/>
    </contour>
  </outline>
</glyph>
<glyph name="bracketright" format="1">
  <advance width="1066"/>
  <unicode hex="005D"/>
  <outline>
    <contour>
      <point x="207.891" y="471" type="line"/>
      <point x="279.891" y="471" type="line" smooth="yes"/>
      <point x="308.688" y="471"/>
      <point x="334.305" y="477"/>
      <point x="363.891" y="477" type="curve" smooth="yes"/>
      <point x="465.916" y="477"/>
      <point x="1014.89" y="364.172"/>
      <point x="1014.89" y="222" type="curve" smooth="yes"/>
      <point x="1014.89" y="177.811"/>
      <point x="957.927" y="180"/>
      <point x="927.891" y="180" type="curve" smooth="yes"/>
      <point x="829.195" y="180"/>
      <point x="733.71" y="192"/>
      <point x="636.891" y="192" type="curve" smooth="yes"/>
      <point x="549.197" y="189.004"/>
      <point x="470.69" y="141.414"/>
      <point x="381.891" y="153" type="curve"/>
      <point x="141.057" y="94.3936"/>
      <point x="20.2178" y="358.843"/>
      <point x="57.8906" y="558" type="curve" smooth="yes"/>
      <point x="61.6709" y="577.985"/>
      <point x="43.2393" y="624"/>
      <point x="72.8906" y="624" type="curve" smooth="yes"/>
      <point x="107.549" y="624"/>
      <point x="126.342" y="587.216"/>
      <point x="150.891" y="570" type="curve"/>
      <point x="165.891" y="501" type="line"/>
    </contour>
  </outline>
</glyph>
<glyph name="asciicircum" format="1">
  <advance width="1121"/>
  <unicode hex="005E"/>
  <outline>
    <contour>
      <point x="229" y="564" type="line" smooth="yes"/>
      <point x="231.837" y="548.424"/>
      <point x="261.373" y="561"/>
      <point x="289" y="561" type="curve" smooth="yes"/>
      <point x="455.63" y="561"/>
      <point x="621.446" y="576"/>
      <point x="790" y="576" type="curve" smooth="yes"/>
      <point x="880.072" y="576"/>
      <point x="1075" y="351.055"/>
      <point x="1075" y="246" type="curve" smooth="yes"/>
      <point x="1075" y="106.555"/>
      <point x="855.762" y="126"/>
      <point x="763" y="126" type="curve" smooth="yes"/>
      <point x="637.37" y="126"/>
      <point x="595.001" y="348"/>
      <point x="565" y="348" type="curve" smooth="yes"/>
      <point x="536.822" y="348"/>
      <point x="262" y="303.901"/>
      <point x="262" y="258" type="curve" smooth="yes"/>
      <point x="262" y="234" type="line" smooth="yes"/>
      <point x="262" y="340.326"/>
      <point x="46" y="542.16"/>
      <point x="46" y="669" type="curve" smooth="yes"/>
      <point x="46" y="703.008"/>
      <point x="100.084" y="720"/>
      <point x="133" y="720" type="curve" smooth="yes"/>
      <point x="161.546" y="720"/>
      <point x="171.068" y="693.612"/>
      <point x="193" y="678" type="curve"/>
    </contour>
  </outline>
</glyph>
<glyph name="underscore" format="1">
  <advance width="815"/>
  <unicode hex="005F"/>
  <outline>
    <contour>
      <point x="158.669" y="615" type="curve" smooth="yes"/>
      <point x="203.669" y="621" type="line" smooth="yes"/>
      <point x="231.977" y="621"/>
      <point x="253.833" y="625.866"/>
      <point x="281.669" y="636" type="curve" smooth="yes"/>
      <point x="372.516" y="669.073"/>
      <point x="474.546" y="720"/>
      <point x="593.669" y="720" type="curve" smooth="yes"/>
      <point x="648.473" y="720"/>
      <point x="645.811" y="693.907"/>
      <point x="683.669" y="663" type="curve" smooth="yes"/>
      <point x="732.518" y="623.121"/>
      <point x="764.669" y="568.757"/>
      <point x="764.669" y="498" type="curve" smooth="yes"/>
      <point x="764.669" y="439.627"/>
      <point x="689.669" y="418.145"/>
      <point x="689.669" y="357" type="curve" smooth="yes"/>
      <point x="689.669" y="321.215"/>
      <point x="746.669" y="322.275"/>
      <point x="746.669" y="279" type="curve" smooth="yes"/>
      <point x="746.669" y="193.993"/>
      <point x="701.803" y="150"/>
      <point x="611.669" y="150" type="curve" smooth="yes"/>
      <point x="523.359" y="150"/>
      <point x="164.669" y="164.347"/>
      <point x="164.669" y="309" type="curve" smooth="yes"/>
      <point x="164.669" y="333.461"/>
      <point x="176.669" y="351.2"/>
      <point x="176.669" y="369" type="curve" smooth="yes"/>
      <point x="176.669" y="441.048"/>
      <point x="60.8623" y="458.481"/>
      <point x="50.6689" y="531" type="curve" smooth="yes"/>
      <point x="44.5215" y="574.74"/>
      <point x="124" y="610.377"/>
    </contour>
  </outline>
</glyph>
<glyph name="grave" format="1">
  <advance width="1298"/>
  <unicode hex="0060"/>
  <outline>
    <contour>
      <point x="194.7" y="579" type="line" smooth="yes"/>
      <point x="231.7" y="592"/>
      <point x="377.336" y="607.064"/>
      <point x="440.7" y="606" type="curve" smooth="yes"/>
      <point x="572.438" y="603.786"/>
      <point x="700.705" y="583.63"/>
      <point x="839.7" y="591" type="curve" smooth="yes"/>
      <point x="867.887" y="592.494"/>
      <point x="1052.7" y="592.604"/>
      <point x="1052.7" y="582" type="curve" smooth="yes"/>
      <point x="1052.7" y="570.406"/>
      <point x="977.7" y="553.843"/>
      <point x="977.7" y="546" type="curve" smooth="yes"/>
      <point x="977.7" y="543.166"/>
      <point x="1043.7" y="545.537"/>
      <point x="1043.7" y="528" type="curve" smooth="yes"/>
      <point x="1043.7" y="517.942"/>
      <point x="1040.7" y="506.571"/>
      <point x="1040.7" y="495" type="curve" smooth="yes"/>
      <point x="1040.7" y="460.946"/>
      <point x="797.7" y="470.758"/>
      <point x="797.7" y="429" type="curve" smooth="yes"/>
      <point x="797.7" y="421.983"/>
      <point x="845.7" y="423"/>
      <point x="845.7" y="423" type="curve"/>
      <point x="845.7" y="423"/>
      <point x="1022.7" y="399.099"/>
      <point x="1022.7" y="399" type="curve" smooth="yes"/>
      <point x="991.425" y="388.475"/>
      <point x="1013.12" y="366.261"/>
      <point x="1037.7" y="375" type="curve" smooth="yes"/>
      <point x="1100.02" y="397.162"/>
      <point x="1160.7" y="290"/>
      <point x="1130.7" y="348" type="curve" smooth="yes"/>
      <point x="1074.99" y="455.709"/>
      <point x="1118" y="549"/>
      <point x="1133.7" y="549" type="curve" smooth="yes"/>
      <point x="1142.05" y="549"/>
      <point x="1127.57" y="465"/>
      <point x="1145.7" y="465" type="curve" smooth="yes"/>
      <point x="1165.72" y="465"/>
      <point x="1150.75" y="498"/>
      <point x="1160.7" y="498" type="curve"/>
      <point x="1236.64" y="340.371"/>
      <point x="1247.26" y="364.718"/>
      <point x="1247.7" y="219" type="curve" smooth="yes"/>
      <point x="1247.73" y="210.442"/>
      <point x="1256.49" y="150"/>
      <point x="1241.7" y="150" type="curve" smooth="yes"/>
      <point x="1240.49" y="150"/>
      <point x="1232.4" y="159"/>
      <point x="1223.7" y="159" type="curve" smooth="yes"/>
      <point x="1205.13" y="159"/>
      <point x="1195.66" y="132"/>
      <point x="1181.7" y="132" type="curve" smooth="yes"/>
      <point x="1155.24" y="132"/>
      <point x="1160.68" y="180"/>
      <point x="1139.7" y="180" type="curve" smooth="yes"/>
      <point x="1106.72" y="180"/>
      <point x="1096.41" y="123"/>
      <point x="1082.7" y="123" type="curve" smooth="yes"/>
      <point x="1047.15" y="123"/>
      <point x="1037.2" y="186"/>
      <point x="989.7" y="186" type="curve" smooth="yes"/>
      <point x="963.058" y="186"/>
      <point x="939.758" y="162"/>
      <point x="920.7" y="162" type="curve" smooth="yes"/>
      <point x="883.539" y="162"/>
      <point x="881.356" y="345"/>
      <point x="854.7" y="345" type="curve" smooth="yes"/>
      <point x="788.663" y="345"/>
      <point x="789.372" y="162"/>
      <point x="749.7" y="162" type="curve" smooth="yes"/>
      <point x="714.818" y="162"/>
      <point x="740.097" y="228"/>
      <point x="707.7" y="228" type="curve" smooth="yes"/>
      <point x="680.192" y="228"/>
      <point x="682.547" y="132"/>
      <point x="659.7" y="132" type="curve" smooth="yes"/>
      <point x="598.178" y="132"/>
      <point x="576.547" y="531"/>
      <point x="536.7" y="531" type="curve" smooth="yes"/>
      <point x="492.272" y="531"/>
      <point x="480.641" y="183"/>
      <point x="443.7" y="183" type="curve" smooth="yes"/>
      <point x="419.373" y="183"/>
      <point x="391.23" y="333"/>
      <point x="356.7" y="333" type="curve" smooth="yes"/>
      <point x="317.896" y="333"/>
      <point x="341.787" y="297"/>
      <point x="290.7" y="297" type="curve" smooth="yes"/>
      <point x="270.221" y="297"/>
      <point x="47.7002" y="369.779"/>
      <point x="47.7002" y="399" type="curve"/>
      <point x="272.7" y="399" type="line" smooth="yes"/>
      <point x="288.317" y="399"/>
      <point x="313.083" y="408"/>
      <point x="326.7" y="408" type="curve" smooth="yes"/>
      <point x="344.7" y="408" type="line"/>
      <point x="344.7" y="408"/>
      <point x="413.7" y="413.582"/>
      <point x="413.7" y="423" type="curve"/>
      <point x="413.7" y="423"/>
      <point x="170.7" y="452.489"/>
      <point x="170.7" y="486" type="curve" smooth="yes"/>
      <point x="170.7" y="512.028"/>
      <point x="380.7" y="516.85"/>
      <point x="380.7" y="525" type="curve"/>
      <point x="380.7" y="524.8"/>
      <point x="378.4" y="525"/>
      <point x="368.7" y="525" type="curve" smooth="yes"/>
      <point x="260.7" y="525" type="line" smooth="yes"/>
      <point x="189.422" y="525"/>
      <point x="168.386" y="550.438"/>
      <point x="119.7" y="564" type="curve"/>
      <point x="182.7" y="576" type="line"/>
    </contour>
  </outline>
</glyph>
<glyph name="a" format="1">
  <advance width="981"/>
  <unicode hex="0061"/>
  <outline>
    <contour>
      <point x="198" y="641" type="curve" smooth="yes"/>
      <point x="198" y="663"/>
      <point x="233.169" y="641"/>
      <point x="255" y="641" type="curve" smooth="yes"/>
      <point x="527.649" y="641"/>
      <point x="897" y="487.131"/>
      <point x="897" y="170" type="curve" smooth="yes"/>
      <point x="897" y="100.587"/>
      <point x="796.072" y="24"/>
      <point x="718" y="24" type="curve" smooth="yes"/>
      <point x="643.908" y="26.9717"/>
      <point x="670.181" y="90.6514"/>
      <point x="594" y="80" type="curve" smooth="yes"/>
      <point x="537.112" y="72.0459"/>
      <point x="516.069" y="149"/>
      <point x="458" y="149" type="curve" smooth="yes"/>
      <point x="387.541" y="149"/>
      <point x="283.738" y="53"/>
      <point x="210" y="53" type="curve" smooth="yes"/>
      <point x="145.092" y="53"/>
      <point x="144" y="134.3"/>
      <point x="144" y="188" type="curve" smooth="yes"/>
      <point x="144" y="232.744"/>
      <point x="225" y="273.13"/>
      <point x="225" y="356" type="curve" smooth="yes"/>
      <point x="225" y="464.764"/>
      <point x="84" y="491.005"/>
      <point x="84" y="599" type="curve" smooth="yes"/>
      <point x="87.668" y="615.468"/>
      <point x="119.079" y="601.295"/>
      <point x="132" y="602" type="curve" smooth="yes"/>
      <point x="180.921" y="604.67"/>
      <point x="211.388" y="548"/>
      <point x="255" y="548" type="curve" smooth="yes"/>
      <point x="275.503" y="548"/>
      <point x="198" y="598"/>
    </contour>
  </outline>
</glyph>
<glyph name="b" format="1">
  <advance width="886"/>
  <unicode hex="0062"/>
  <outline>
    <contour>
      <point x="399.5" y="608" type="curve" smooth="yes"/>
      <point x="399.286" y="596.688"/>
      <point x="386.19" y="593"/>
      <point x="375.5" y="593" type="curve" smooth="yes"/>
      <point x="362.198" y="593"/>
      <point x="358.604" y="605"/>
      <point x="345.5" y="605" type="curve" smooth="yes"/>
      <point x="336.286" y="605"/>
      <point x="303.5" y="603.428"/>
      <point x="303.5" y="599" type="curve" smooth="yes"/>
      <point x="303.5" y="562.385"/>
      <point x="472.997" y="416"/>
      <point x="507.5" y="416" type="curve" smooth="yes"/>
      <point x="546.345" y="416"/>
      <point x="555.5" y="471.86"/>
      <point x="555.5" y="497" type="curve" smooth="yes"/>
      <point x="555.5" y="588.694"/>
      <point x="538.023" y="704"/>
      <point x="429.5" y="704" type="curve" smooth="yes"/>
      <point x="355.567" y="704"/>
      <point x="288.403" y="686"/>
      <point x="219.5" y="686" type="curve" smooth="yes"/>
      <point x="178.99" y="686"/>
      <point x="93.5" y="678.895"/>
      <point x="93.5" y="731" type="curve" smooth="yes"/>
      <point x="93.5" y="772.828"/>
      <point x="408.911" y="761"/>
      <point x="441.5" y="761" type="curve" smooth="yes"/>
      <point x="535.143" y="761"/>
      <point x="624.194" y="782"/>
      <point x="714.5" y="782" type="curve" smooth="yes"/>
      <point x="746.672" y="782"/>
      <point x="792.5" y="775.427"/>
      <point x="792.5" y="737" type="curve" smooth="yes"/>
      <point x="792.5" y="581.415"/>
      <point x="660.5" y="478.132"/>
      <point x="660.5" y="317" type="curve" smooth="yes"/>
      <point x="660.5" y="303.875"/>
      <point x="765.5" y="267.405"/>
      <point x="765.5" y="200" type="curve" smooth="yes"/>
      <point x="765.5" y="181.202"/>
      <point x="781.692" y="56"/>
      <point x="750.5" y="56" type="curve" smooth="yes"/>
      <point x="718.676" y="56"/>
      <point x="647.172" y="194"/>
      <point x="600.5" y="194" type="curve" smooth="yes"/>
      <point x="521.472" y="194"/>
      <point x="459.958" y="83"/>
      <point x="354.5" y="83" type="curve" smooth="yes"/>
      <point x="303.72" y="83"/>
      <point x="153.5" y="71.5459"/>
      <point x="153.5" y="149" type="curve" smooth="yes"/>
      <point x="153.5" y="309.999"/>
      <point x="408.5" y="227.492"/>
      <point x="408.5" y="335" type="curve" smooth="yes"/>
      <point x="408.5" y="422.919"/>
      <point x="213.5" y="433.903"/>
      <point x="213.5" y="569" type="curve" smooth="yes"/>
      <point x="213.5" y="618.306"/>
      <point x="234.614" y="671"/>
      <point x="294.5" y="671" type="curve" smooth="yes"/>
      <point x="316.168" y="671"/>
      <point x="400.5" y="661"/>
    </contour>
  </outline>
</glyph>
<glyph name="c" format="1">
  <advance width="696"/>
  <unicode hex="0063"/>
  <outline>
    <contour>
      <point x="328.866" y="720" type="curve" smooth="yes"/>
      <point x="351.826" y="731.863"/>
      <point x="277.866" y="675.513"/>
      <point x="277.866" y="633" type="curve" smooth="yes"/>
      <point x="277.866" y="588.426"/>
      <point x="361.866" y="613.204"/>
      <point x="361.866" y="552" type="curve" smooth="yes"/>
      <point x="361.866" y="517.229"/>
      <point x="301.866" y="390"/>
      <point x="301.866" y="390" type="curve"/>
      <point x="431.64" y="390"/>
      <point x="476.492" y="645"/>
      <point x="550.866" y="645" type="curve" smooth="yes"/>
      <point x="572.32" y="645"/>
      <point x="583.866" y="584.563"/>
      <point x="583.866" y="567" type="curve" smooth="yes"/>
      <point x="583.866" y="476.9"/>
      <point x="475.866" y="401.662"/>
      <point x="475.866" y="369" type="curve" smooth="yes"/>
      <point x="475.866" y="276.401"/>
      <point x="625.866" y="341.766"/>
      <point x="625.866" y="273" type="curve" smooth="yes"/>
      <point x="625.866" y="173.886"/>
      <point x="468.62" y="69"/>
      <point x="394.866" y="69" type="curve" smooth="yes"/>
      <point x="370.749" y="69"/>
      <point x="331.866" y="288"/>
      <point x="331.866" y="288" type="curve"/>
      <point x="308.737" y="288"/>
      <point x="275.02" y="222"/>
      <point x="229.866" y="222" type="curve" smooth="yes"/>
      <point x="193.377" y="222"/>
      <point x="172.299" y="250.265"/>
      <point x="148.866" y="276" type="curve" smooth="yes"/>
      <point x="110.267" y="318.395"/>
      <point x="82.0977" y="353.537"/>
      <point x="71.8662" y="412" type="curve" smooth="yes"/>
      <point x="57.8662" y="492"/>
      <point x="133.326" y="525.756"/>
      <point x="131.866" y="517" type="curve" smooth="yes"/>
      <point x="129.866" y="505"/>
      <point x="96.8662" y="483.262"/>
      <point x="96.8662" y="462" type="curve" smooth="yes"/>
      <point x="96.8662" y="437.2"/>
      <point x="94.29" y="423"/>
      <point x="118.866" y="423" type="curve" smooth="yes"/>
      <point x="172.459" y="423"/>
      <point x="277.866" y="458.979"/>
      <point x="277.866" y="522" type="curve" smooth="yes"/>
      <point x="277.866" y="564.502"/>
      <point x="187.866" y="569.521"/>
      <point x="187.866" y="630" type="curve" smooth="yes"/>
      <point x="187.866" y="653.96"/>
      <point x="221.368" y="675"/>
      <point x="244.866" y="675" type="curve" smooth="yes"/>
      <point x="265.866" y="675"/>
      <point x="310.021" y="710.263"/>
    </contour>
  </outline>
</glyph>
<glyph name="d" format="1">
  <advance width="747"/>
  <unicode hex="0064"/>
  <outline>
    <contour>
      <point x="421.5" y="252" type="curve" smooth="yes"/>
      <point x="383.5" y="289"/>
      <point x="345.257" y="291"/>
      <point x="291.5" y="291" type="curve" smooth="yes"/>
      <point x="275.096" y="291"/>
      <point x="276.882" y="153"/>
      <point x="189.5" y="153" type="curve" smooth="yes"/>
      <point x="148.187" y="153"/>
      <point x="141.5" y="245.321"/>
      <point x="141.5" y="270" type="curve" smooth="yes"/>
      <point x="141.5" y="354.386"/>
      <point x="237.5" y="396.704"/>
      <point x="237.5" y="483" type="curve" smooth="yes"/>
      <point x="237.5" y="536.825"/>
      <point x="91.5" y="565.285"/>
      <point x="91.5" y="621" type="curve" smooth="yes"/>
      <point x="91.5" y="667.235"/>
      <point x="121.148" y="714"/>
      <point x="165.5" y="714" type="curve" smooth="yes"/>
      <point x="245.551" y="714"/>
      <point x="327.5" y="671.468"/>
      <point x="327.5" y="591" type="curve" smooth="yes"/>
      <point x="327.5" y="572.319"/>
      <point x="276.521" y="582"/>
      <point x="265.5" y="582" type="curve" smooth="yes"/>
      <point x="224.485" y="582"/>
      <point x="205.387" y="648"/>
      <point x="189.5" y="648" type="curve" smooth="yes"/>
      <point x="178.264" y="648"/>
      <point x="175.5" y="605.582"/>
      <point x="175.5" y="597" type="curve" smooth="yes"/>
      <point x="175.5" y="582.868"/>
      <point x="297.5" y="558.825"/>
      <point x="297.5" y="483" type="curve" smooth="yes"/>
      <point x="297.5" y="456.815"/>
      <point x="247.5" y="433.84"/>
      <point x="247.5" y="405" type="curve" smooth="yes"/>
      <point x="247.5" y="384" type="line" smooth="yes"/>
      <point x="247.5" y="357.532"/>
      <point x="213.5" y="350.337"/>
      <point x="213.5" y="327" type="curve" smooth="yes"/>
      <point x="213.5" y="310.646"/>
      <point x="221.191" y="312"/>
      <point x="235.5" y="312" type="curve" smooth="yes"/>
      <point x="294.504" y="312"/>
      <point x="302.568" y="393"/>
      <point x="345.5" y="393" type="curve"/>
      <point x="388.42" y="380.208"/>
      <point x="394.279" y="320.98"/>
      <point x="441.5" y="336" type="curve" smooth="yes"/>
      <point x="471.879" y="345.662"/>
      <point x="464.612" y="321"/>
      <point x="487.5" y="321" type="curve" smooth="yes"/>
      <point x="501.581" y="321"/>
      <point x="505.5" y="344.37"/>
      <point x="505.5" y="360" type="curve" smooth="yes"/>
      <point x="505.5" y="401.411"/>
      <point x="391.5" y="384.365"/>
      <point x="391.5" y="435" type="curve" smooth="yes"/>
      <point x="391.5" y="458.933"/>
      <point x="413.224" y="474"/>
      <point x="429.5" y="474" type="curve" smooth="yes"/>
      <point x="479.957" y="474"/>
      <point x="477.97" y="417"/>
      <point x="511.5" y="417" type="curve" smooth="yes"/>
      <point x="542.668" y="417"/>
      <point x="565.5" y="457.024"/>
      <point x="565.5" y="492" type="curve" smooth="yes"/>
      <point x="565.5" y="527.733"/>
      <point x="505.5" y="508.763"/>
      <point x="505.5" y="558" type="curve" smooth="yes"/>
      <point x="505.5" y="567.77"/>
      <point x="506.993" y="591"/>
      <point x="523.5" y="591" type="curve" smooth="yes"/>
      <point x="592.66" y="591"/>
      <point x="627.5" y="527.48"/>
      <point x="627.5" y="468" type="curve" smooth="yes"/>
      <point x="627.5" y="445.025"/>
      <point x="594.67" y="405"/>
      <point x="571.5" y="405" type="curve" smooth="yes"/>
      <point x="547.5" y="405" type="line" smooth="yes"/>
      <point x="535.849" y="405"/>
      <point x="525.5" y="392.254"/>
      <point x="525.5" y="387" type="curve" smooth="yes"/>
      <point x="525.5" y="359.018"/>
      <point x="585.655" y="318"/>
      <point x="609.5" y="318" type="curve" smooth="yes"/>
      <point x="623.225" y="318"/>
      <point x="624.973" y="330"/>
      <point x="643.5" y="330" type="curve" smooth="yes"/>
      <point x="651.719" y="330"/>
      <point x="655.5" y="266.533"/>
      <point x="655.5" y="258" type="curve" smooth="yes"/>
      <point x="655.5" y="245.582"/>
      <point x="644.029" y="240"/>
      <point x="633.5" y="240" type="curve" smooth="yes"/>
      <point x="607.567" y="240"/>
      <point x="575.042" y="288"/>
      <point x="553.5" y="288" type="curve" smooth="yes"/>
      <point x="543.027" y="288"/>
      <point x="547.5" y="267.844"/>
      <point x="547.5" y="264" type="curve" smooth="yes"/>
      <point x="547.5" y="246.392"/>
      <point x="555.5" y="230.461"/>
      <point x="555.5" y="210" type="curve" smooth="yes"/>
      <point x="555.5" y="173.01"/>
      <point x="550.965" y="159"/>
      <point x="513.5" y="159" type="curve" smooth="yes"/>
      <point x="491.047" y="159"/>
      <point x="463.5" y="176.495"/>
      <point x="463.5" y="198" type="curve" smooth="yes"/>
      <point x="463.5" y="206.277"/>
      <point x="471.5" y="213.094"/>
      <point x="471.5" y="228" type="curve" smooth="yes"/>
      <point x="471.5" y="237.884"/>
      <point x="467.586" y="237"/>
      <point x="453.5" y="237" type="curve" smooth="yes"/>
      <point x="430.621" y="237"/>
      <point x="436.35" y="198"/>
      <point x="411.5" y="198" type="curve" smooth="yes"/>
      <point x="391.5" y="198" type="line" smooth="yes"/>
      <point x="368.491" y="198"/>
      <point x="375.661" y="186"/>
      <point x="351.5" y="186" type="curve" smooth="yes"/>
      <point x="319.9" y="186"/>
      <point x="309.5" y="203.352"/>
      <point x="309.5" y="234" type="curve" smooth="yes"/>
      <point x="309.5" y="240.084"/>
      <point x="326.407" y="246"/>
      <point x="337.5" y="246" type="curve" smooth="yes"/>
      <point x="348.883" y="246"/>
      <point x="444.5" y="229"/>
    </contour>
  </outline>
</glyph>
<glyph name="e" format="1">
  <advance width="894"/>
  <unicode hex="0065"/>
  <outline>
    <contour>
      <point x="425.045" y="630" type="curve"/>
      <point x="485.045" y="639" type="line"/>
      <point x="485.045" y="692.366"/>
      <point x="469.312" y="691.239"/>
      <point x="422.045" y="690" type="curve" smooth="yes"/>
      <point x="364.698" y="688.496"/>
      <point x="304.064" y="682.741"/>
      <point x="257.045" y="720" type="curve"/>
      <point x="249.614" y="720"/>
      <point x="188.045" y="711"/>
      <point x="188.045" y="711" type="curve"/>
      <point x="188.045" y="754.268"/>
      <point x="268.401" y="774"/>
      <point x="299.045" y="774" type="curve" smooth="yes"/>
      <point x="365.178" y="774"/>
      <point x="671.045" y="757.967"/>
      <point x="671.045" y="690" type="curve" smooth="yes"/>
      <point x="671.045" y="662.821"/>
      <point x="587.045" y="652.59"/>
      <point x="587.045" y="609" type="curve" smooth="yes"/>
      <point x="587.045" y="586.159"/>
      <point x="586.643" y="549"/>
      <point x="617.045" y="549" type="curve" smooth="yes"/>
      <point x="694.351" y="549"/>
      <point x="735.057" y="612"/>
      <point x="800.045" y="612" type="curve" smooth="yes"/>
      <point x="822.797" y="612"/>
      <point x="863.045" y="617.97"/>
      <point x="863.045" y="585" type="curve" smooth="yes"/>
      <point x="863.045" y="510.873"/>
      <point x="649.072" y="426"/>
      <point x="596.045" y="426" type="curve" smooth="yes"/>
      <point x="521.18" y="426"/>
      <point x="547.385" y="525"/>
      <point x="485.045" y="525" type="curve" smooth="yes"/>
      <point x="440.045" y="525" type="line" smooth="yes"/>
      <point x="419.917" y="525"/>
      <point x="405.062" y="576"/>
      <point x="368.045" y="576" type="curve" smooth="yes"/>
      <point x="368.045" y="576"/>
      <point x="299.045" y="579.369"/>
      <point x="299.045" y="570" type="curve" smooth="yes"/>
      <point x="299.045" y="480.751"/>
      <point x="509.796" y="459.691"/>
      <point x="509.045" y="342" type="curve" smooth="yes"/>
      <point x="508.838" y="309.634"/>
      <point x="499.062" y="248.09"/>
      <point x="545.045" y="255" type="curve"/>
      <point x="602.558" y="255"/>
      <point x="658.271" y="297"/>
      <point x="722.045" y="297" type="curve" smooth="yes"/>
      <point x="740.534" y="297"/>
      <point x="827.045" y="302.427"/>
      <point x="827.045" y="276" type="curve" smooth="yes"/>
      <point x="827.045" y="275.45"/>
      <point x="783.868" y="225.75"/>
      <point x="779.045" y="216" type="curve" smooth="yes"/>
      <point x="761.054" y="179.633"/>
      <point x="753.553" y="127.492"/>
      <point x="707.045" y="117" type="curve"/>
      <point x="642.747" y="117"/>
      <point x="639.455" y="180"/>
      <point x="581.045" y="180" type="curve" smooth="yes"/>
      <point x="488.165" y="180"/>
      <point x="409.09" y="123"/>
      <point x="326.045" y="123" type="curve" smooth="yes"/>
      <point x="291.896" y="123"/>
      <point x="267.652" y="156"/>
      <point x="239.045" y="156" type="curve" smooth="yes"/>
      <point x="221.168" y="156"/>
      <point x="205.176" y="147"/>
      <point x="188.045" y="147" type="curve" smooth="yes"/>
      <point x="166.79" y="147"/>
      <point x="154.979" y="163.138"/>
      <point x="137.045" y="171" type="curve" smooth="yes"/>
      <point x="92.7871" y="190.4"/>
      <point x="52.7578" y="209.484"/>
      <point x="53.0449" y="270" type="curve" smooth="yes"/>
      <point x="53.0449" y="306" type="line" smooth="yes"/>
      <point x="53.0449" y="316.457"/>
      <point x="41.0449" y="322.3"/>
      <point x="41.0449" y="336" type="curve" smooth="yes"/>
      <point x="41.0449" y="372.316"/>
      <point x="38.0566" y="423.185"/>
      <point x="47.0449" y="459" type="curve" smooth="yes"/>
      <point x="53.7783" y="485.833"/>
      <point x="25.1152" y="500.497"/>
      <point x="32.0449" y="528" type="curve" smooth="yes"/>
      <point x="32.0449" y="534.041"/>
      <point x="37.6377" y="591"/>
      <point x="41.0449" y="591" type="curve" smooth="yes"/>
      <point x="62.5889" y="591"/>
      <point x="254.045" y="423"/>
      <point x="254.045" y="423" type="curve"/>
      <point x="254.045" y="387" type="line" smooth="yes"/>
      <point x="254.045" y="342.989"/>
      <point x="296.045" y="305.61"/>
      <point x="296.045" y="285" type="curve" smooth="yes"/>
      <point x="296.045" y="276.778"/>
      <point x="295.028" y="279"/>
      <point x="287.045" y="279" type="curve" smooth="yes"/>
      <point x="246.035" y="279"/>
      <point x="233.045" y="399"/>
      <point x="233.045" y="399" type="curve"/>
      <point x="198.001" y="399"/>
      <point x="89.0449" y="341.654"/>
      <point x="89.0449" y="309" type="curve" smooth="yes"/>
      <point x="89.0449" y="252.469"/>
      <point x="78.3584" y="255"/>
      <point x="143.045" y="255" type="curve" smooth="yes"/>
      <point x="185.308" y="255"/>
      <point x="437.045" y="248.604"/>
      <point x="437.045" y="327" type="curve" smooth="yes"/>
      <point x="437.045" y="486.673"/>
      <point x="86.0449" y="522.932"/>
      <point x="86.0449" y="615" type="curve" smooth="yes"/>
      <point x="86.0449" y="655.427"/>
      <point x="139.628" y="645"/>
      <point x="179.045" y="645" type="curve" smooth="yes"/>
      <point x="265.516" y="645"/>
      <point x="342.31" y="624.199"/>
    </contour>
  </outline>
</glyph>
<glyph name="f" format="1">
  <advance width="1410"/>
  <unicode hex="0066"/>
  <outline>
    <contour>
      <point x="1054.3" y="506" type="curve" smooth="yes"/>
      <point x="967.296" y="568"/>
      <point x="879.304" y="530"/>
      <point x="850.296" y="530" type="curve" smooth="yes"/>
      <point x="822.889" y="530"/>
      <point x="698.296" y="528.704"/>
      <point x="698.296" y="470" type="curve" smooth="yes"/>
      <point x="698.296" y="373.93"/>
      <point x="854.296" y="359.103"/>
      <point x="854.296" y="266" type="curve" smooth="yes"/>
      <point x="854.296" y="208.927"/>
      <point x="442.114" y="174"/>
      <point x="390.296" y="174" type="curve" smooth="yes"/>
      <point x="335.446" y="174"/>
      <point x="358.296" y="382.239"/>
      <point x="358.296" y="422" type="curve" smooth="yes"/>
      <point x="358.296" y="459.739"/>
      <point x="347.006" y="570"/>
      <point x="306.296" y="570" type="curve" smooth="yes"/>
      <point x="286.296" y="570" type="line" smooth="yes"/>
      <point x="275.494" y="570"/>
      <point x="214.296" y="590.256"/>
      <point x="214.296" y="594" type="curve" smooth="yes"/>
      <point x="214.296" y="629.785"/>
      <point x="328.818" y="678"/>
      <point x="358.296" y="678" type="curve" smooth="yes"/>
      <point x="416.183" y="678"/>
      <point x="468.81" y="422"/>
      <point x="518.296" y="422" type="curve" smooth="yes"/>
      <point x="545.498" y="422"/>
      <point x="561.138" y="690"/>
      <point x="598.296" y="690" type="curve"/>
      <point x="640.016" y="697.34"/>
      <point x="682.27" y="702.242"/>
      <point x="730.296" y="698" type="curve" smooth="yes"/>
      <point x="1098.34" y="665.49"/>
      <point x="1194.3" y="709.286"/>
      <point x="1194.3" y="278" type="curve" smooth="yes"/>
      <point x="1194.3" y="248.227"/>
      <point x="1204.44" y="222"/>
      <point x="1170.3" y="222" type="curve"/>
      <point x="1088.97" y="236.56"/>
      <point x="1036.58" y="322.81"/>
      <point x="978.296" y="378" type="curve" smooth="yes"/>
      <point x="940.858" y="413.45"/>
      <point x="918.146" y="450"/>
      <point x="862.296" y="450" type="curve" smooth="yes"/>
      <point x="830.296" y="450" type="line" smooth="yes"/>
      <point x="822.824" y="450"/>
      <point x="826.296" y="461.041"/>
      <point x="826.296" y="466" type="curve" smooth="yes"/>
      <point x="826.296" y="478.003"/>
      <point x="896.523" y="506"/>
      <point x="910.296" y="506" type="curve"/>
      <point x="947.54" y="517.715"/>
      <point x="961.94" y="474.909"/>
      <point x="986.296" y="458" type="curve" smooth="yes"/>
      <point x="1006.03" y="444.298"/>
      <point x="1014.93" y="418"/>
      <point x="1046.3" y="418" type="curve" smooth="yes"/>
      <point x="1073.9" y="418"/>
      <point x="1074.3" y="442.389"/>
      <point x="1074.3" y="466" type="curve" smooth="yes"/>
      <point x="1074.3" y="501.808"/>
      <point x="1068.73" y="495.716"/>
    </contour>
  </outline>
</glyph>
<glyph name="g" format="1">
  <advance width="637"/>
  <unicode hex="0067"/>
  <outline>
    <contour>
      <point x="62.6143" y="414" type="curve" smooth="yes"/>
      <point x="63.9482" y="434.666"/>
      <point x="75.9482" y="445.999"/>
      <point x="98.6143" y="448" type="curve" smooth="yes"/>
      <point x="112.622" y="449.236"/>
      <point x="118.614" y="429.445"/>
      <point x="118.614" y="422" type="curve" smooth="yes"/>
      <point x="118.614" y="408" type="line" smooth="yes"/>
      <point x="118.614" y="377.752"/>
      <point x="167.015" y="360"/>
      <point x="188.614" y="360" type="curve" smooth="yes"/>
      <point x="196.835" y="360"/>
      <point x="204.614" y="372.63"/>
      <point x="204.614" y="380" type="curve" smooth="yes"/>
      <point x="204.614" y="413.014"/>
      <point x="152.614" y="422.68"/>
      <point x="152.614" y="464" type="curve" smooth="yes"/>
      <point x="152.614" y="476.045"/>
      <point x="158.21" y="492"/>
      <point x="172.614" y="492" type="curve" smooth="yes"/>
      <point x="182.614" y="492" type="line" smooth="yes"/>
      <point x="196.449" y="492"/>
      <point x="208.614" y="493.567"/>
      <point x="208.614" y="510" type="curve" smooth="yes"/>
      <point x="208.614" y="542.104"/>
      <point x="156.614" y="552.211"/>
      <point x="156.614" y="584" type="curve" smooth="yes"/>
      <point x="156.614" y="644.473"/>
      <point x="272.236" y="664"/>
      <point x="318.614" y="664" type="curve" smooth="yes"/>
      <point x="364.913" y="664"/>
      <point x="468.614" y="693.738"/>
      <point x="468.614" y="630" type="curve" smooth="yes"/>
      <point x="468.614" y="620.573"/>
      <point x="473.408" y="596"/>
      <point x="456.614" y="596" type="curve" smooth="yes"/>
      <point x="436.472" y="596"/>
      <point x="371.903" y="620"/>
      <point x="344.614" y="620" type="curve" smooth="yes"/>
      <point x="339.563" y="620"/>
      <point x="286.614" y="628.045"/>
      <point x="286.614" y="606" type="curve" smooth="yes"/>
      <point x="286.614" y="519.469"/>
      <point x="399.584" y="432"/>
      <point x="460.614" y="432" type="curve" smooth="yes"/>
      <point x="481.263" y="432"/>
      <point x="574.614" y="538"/>
      <point x="574.614" y="538" type="curve"/>
      <point x="574.614" y="522.963"/>
      <point x="560.614" y="507.766"/>
      <point x="560.614" y="494" type="curve" smooth="yes"/>
      <point x="560.614" y="456" type="line" smooth="yes"/>
      <point x="560.614" y="430.407"/>
      <point x="544.614" y="403.467"/>
      <point x="544.614" y="376" type="curve" smooth="yes"/>
      <point x="544.614" y="346" type="line" smooth="yes"/>
      <point x="544.614" y="334.464"/>
      <point x="514.614" y="244"/>
      <point x="514.614" y="244" type="curve"/>
      <point x="493.597" y="244"/>
      <point x="481.523" y="264"/>
      <point x="462.614" y="264" type="curve" smooth="yes"/>
      <point x="440.555" y="264"/>
      <point x="415.856" y="248"/>
      <point x="394.614" y="248" type="curve" smooth="yes"/>
      <point x="342.326" y="248"/>
      <point x="333.878" y="314"/>
      <point x="300.614" y="314" type="curve" smooth="yes"/>
      <point x="264.444" y="314"/>
      <point x="210.812" y="252"/>
      <point x="172.614" y="252" type="curve" smooth="yes"/>
      <point x="105.129" y="252"/>
      <point x="58.7158" y="353.619"/>
    </contour>
  </outline>
</glyph>
<glyph name="h" format="1">
  <advance width="983"/>
  <unicode hex="0068"/>
  <outline>
    <contour>
      <point x="105.204" y="328" type="curve"/>
      <point x="84.2041" y="328" type="line" smooth="yes"/>
      <point x="81.0723" y="328"/>
      <point x="75.2041" y="326.04"/>
      <point x="75.2041" y="331" type="curve" smooth="yes"/>
      <point x="75.2041" y="373.219"/>
      <point x="115.246" y="418"/>
      <point x="156.204" y="418" type="curve" smooth="yes"/>
      <point x="232.155" y="418"/>
      <point x="266.951" y="496"/>
      <point x="333.204" y="496" type="curve" smooth="yes"/>
      <point x="374.279" y="496"/>
      <point x="524.931" y="476.455"/>
      <point x="561.204" y="463" type="curve" smooth="yes"/>
      <point x="715.834" y="405.644"/>
      <point x="671.669" y="652.016"/>
      <point x="798.204" y="649" type="curve" smooth="yes"/>
      <point x="803.432" y="649"/>
      <point x="867.204" y="650.148"/>
      <point x="867.204" y="640" type="curve" smooth="yes"/>
      <point x="867.204" y="616.423"/>
      <point x="846.204" y="588.986"/>
      <point x="846.204" y="559" type="curve" smooth="yes"/>
      <point x="846.204" y="495.969"/>
      <point x="906.204" y="428.498"/>
      <point x="906.204" y="352" type="curve" smooth="yes"/>
      <point x="906.204" y="344.634"/>
      <point x="916.393" y="265"/>
      <point x="885.204" y="265" type="curve" smooth="yes"/>
      <point x="866.559" y="265"/>
      <point x="854.001" y="442"/>
      <point x="798.204" y="442" type="curve" smooth="yes"/>
      <point x="767.63" y="442"/>
      <point x="708.204" y="363.713"/>
      <point x="708.204" y="340" type="curve" smooth="yes"/>
      <point x="708.204" y="284.248"/>
      <point x="795.204" y="310.42"/>
      <point x="795.204" y="253" type="curve" smooth="yes"/>
      <point x="795.204" y="210.032"/>
      <point x="762.691" y="184"/>
      <point x="717.204" y="184" type="curve" smooth="yes"/>
      <point x="660.992" y="184"/>
      <point x="614.486" y="316"/>
      <point x="531.204" y="316" type="curve" smooth="yes"/>
      <point x="423.908" y="316"/>
      <point x="318.264" y="292"/>
      <point x="210.204" y="292" type="curve" smooth="yes"/>
      <point x="182.639" y="292"/>
      <point x="123.45" y="319.325"/>
    </contour>
  </outline>
</glyph>
<glyph name="i" format="1">
  <advance width="945"/>
  <unicode hex="0069"/>
  <outline>
    <contour>
      <point x="608.5" y="489" type="curve"/>
      <point x="612.5" y="555" type="line"/>
      <point x="632.705" y="564.246"/>
      <point x="637.521" y="582"/>
      <point x="672.5" y="582" type="curve" smooth="yes"/>
      <point x="698.543" y="582"/>
      <point x="710.5" y="507.219"/>
      <point x="710.5" y="480" type="curve" smooth="yes"/>
      <point x="710.5" y="426" type="line" smooth="yes"/>
      <point x="710.5" y="387.178"/>
      <point x="738.5" y="356.993"/>
      <point x="738.5" y="309" type="curve" smooth="yes"/>
      <point x="738.5" y="258.183"/>
      <point x="690.5" y="261.495"/>
      <point x="690.5" y="213" type="curve" smooth="yes"/>
      <point x="690.5" y="174.546"/>
      <point x="750.5" y="186.467"/>
      <point x="750.5" y="153" type="curve" smooth="yes"/>
      <point x="750.5" y="128.3"/>
      <point x="720.748" y="129"/>
      <point x="698.5" y="129" type="curve" smooth="yes"/>
      <point x="656.006" y="129"/>
      <point x="590.627" y="144.542"/>
      <point x="546.5" y="144" type="curve" smooth="yes"/>
      <point x="511.093" y="143.565"/>
      <point x="505.103" y="141.697"/>
      <point x="470.5" y="153" type="curve"/>
      <point x="419.188" y="153"/>
      <point x="374.256" y="87"/>
      <point x="330.5" y="87" type="curve" smooth="yes"/>
      <point x="277.628" y="87"/>
      <point x="194.5" y="97.9961"/>
      <point x="194.5" y="168" type="curve" smooth="yes"/>
      <point x="194.5" y="205.302"/>
      <point x="258.5" y="204.922"/>
      <point x="258.5" y="237" type="curve" smooth="yes"/>
      <point x="258.5" y="270" type="line" smooth="yes"/>
      <point x="258.5" y="294.319"/>
      <point x="282.5" y="305.211"/>
      <point x="282.5" y="336" type="curve" smooth="yes"/>
      <point x="282.5" y="396" type="line" smooth="yes"/>
      <point x="282.5" y="461.161"/>
      <point x="478.222" y="476.371"/>
      <point x="421.5" y="527" type="curve" smooth="yes"/>
      <point x="403.301" y="543.244"/>
      <point x="570.996" y="530.021"/>
    </contour>
  </outline>
</glyph>
<glyph name="j" format="1">
  <advance width="982"/>
  <unicode hex="006A"/>
  <outline>
    <contour>
      <point x="477.5" y="604" type="curve" smooth="yes"/>
      <point x="509.5" y="590"/>
      <point x="432.973" y="579.511"/>
      <point x="390.5" y="578" type="curve" smooth="yes"/>
      <point x="363.286" y="577.032"/>
      <point x="305.226" y="580.229"/>
      <point x="306.5" y="548" type="curve" smooth="yes"/>
      <point x="306.5" y="522.303"/>
      <point x="353.447" y="518"/>
      <point x="366.5" y="518" type="curve" smooth="yes"/>
      <point x="426.228" y="518"/>
      <point x="480.449" y="574"/>
      <point x="543.5" y="574" type="curve" smooth="yes"/>
      <point x="550.5" y="574"/>
      <point x="557.5" y="578"/>
      <point x="564.5" y="578" type="curve" smooth="yes"/>
      <point x="683.355" y="578"/>
      <point x="675.459" y="754"/>
      <point x="831.5" y="754" type="curve" smooth="yes"/>
      <point x="855.17" y="754"/>
      <point x="876.5" y="756.139"/>
      <point x="876.5" y="734" type="curve" smooth="yes"/>
      <point x="876.5" y="685.393"/>
      <point x="774.5" y="730.332"/>
      <point x="774.5" y="686" type="curve" smooth="yes"/>
      <point x="774.5" y="668" type="line" smooth="yes"/>
      <point x="774.5" y="550.476"/>
      <point x="555.5" y="531.564"/>
      <point x="555.5" y="458" type="curve" smooth="yes"/>
      <point x="555.5" y="420.703"/>
      <point x="565.146" y="398"/>
      <point x="606.5" y="398" type="curve" smooth="yes"/>
      <point x="669.5" y="398" type="line" smooth="yes"/>
      <point x="719.843" y="398"/>
      <point x="867.5" y="346.112"/>
      <point x="867.5" y="286" type="curve" smooth="yes"/>
      <point x="867.5" y="267.866"/>
      <point x="840.823" y="160"/>
      <point x="816.5" y="160" type="curve" smooth="yes"/>
      <point x="744.226" y="160"/>
      <point x="670.27" y="226"/>
      <point x="624.5" y="226" type="curve" smooth="yes"/>
      <point x="490.597" y="226"/>
      <point x="424.865" y="128"/>
      <point x="306.5" y="128" type="curve" smooth="yes"/>
      <point x="228.662" y="128"/>
      <point x="132.5" y="248.099"/>
      <point x="132.5" y="326" type="curve" smooth="yes"/>
      <point x="132.5" y="374.861"/>
      <point x="252.5" y="375.729"/>
      <point x="252.5" y="442" type="curve" smooth="yes"/>
      <point x="252.5" y="494.997"/>
      <point x="105.5" y="505.355"/>
      <point x="105.5" y="574" type="curve" smooth="yes"/>
      <point x="105.5" y="614.361"/>
      <point x="106.623" y="682"/>
      <point x="153.5" y="682" type="curve" smooth="yes"/>
      <point x="238.747" y="682"/>
      <point x="358.5" y="656"/>
    </contour>
  </outline>
</glyph>
<glyph name="k" format="1">
  <advance width="989"/>
  <unicode hex="006B"/>
  <outline>
    <contour>
      <point x="251.5" y="362" type="curve" smooth="yes"/>
      <point x="393.726" y="383.609"/>
      <point x="530.037" y="538"/>
      <point x="680.5" y="538" type="curve" smooth="yes"/>
      <point x="755.152" y="538"/>
      <point x="830.5" y="416.578"/>
      <point x="830.5" y="340" type="curve" smooth="yes"/>
      <point x="830.5" y="294.714"/>
      <point x="772.121" y="196"/>
      <point x="707.5" y="196" type="curve" smooth="yes"/>
      <point x="662.119" y="196"/>
      <point x="696.157" y="332"/>
      <point x="620.5" y="332" type="curve" smooth="yes"/>
      <point x="578.5" y="332" type="line" smooth="yes"/>
      <point x="416.804" y="332"/>
      <point x="537.405" y="170"/>
      <point x="365.5" y="170" type="curve" smooth="yes"/>
      <point x="254.251" y="170"/>
      <point x="155.5" y="309.788"/>
      <point x="155.5" y="406" type="curve" smooth="yes"/>
      <point x="155.5" y="656.772"/>
      <point x="604.036" y="722"/>
      <point x="767.5" y="722" type="curve" smooth="yes"/>
      <point x="795.598" y="722"/>
      <point x="833.5" y="643.936"/>
      <point x="833.5" y="626" type="curve" smooth="yes"/>
      <point x="833.5" y="601.332"/>
      <point x="755.899" y="604"/>
      <point x="740.5" y="604" type="curve" smooth="yes"/>
      <point x="686.203" y="604"/>
      <point x="640.426" y="574"/>
      <point x="593.5" y="574" type="curve" smooth="yes"/>
      <point x="564.909" y="574"/>
      <point x="564.426" y="596"/>
      <point x="539.5" y="596" type="curve" smooth="yes"/>
      <point x="532.179" y="596"/>
      <point x="520.98" y="610"/>
      <point x="509.5" y="610" type="curve" smooth="yes"/>
      <point x="487.637" y="610"/>
      <point x="446.484" y="566"/>
      <point x="437.5" y="566" type="curve" smooth="yes"/>
      <point x="361.912" y="555.654"/>
      <point x="342.328" y="486.695"/>
      <point x="275.5" y="472" type="curve" smooth="yes"/>
      <point x="217.607" y="459.27"/>
      <point x="241.137" y="360.426"/>
    </contour>
  </outline>
</glyph>
<glyph name="l" format="1">
  <advance width="953"/>
  <unicode hex="006C"/>
  <outline>
    <contour>
      <point x="308.5" y="575" type="curve"/>
      <point x="326.5" y="575" type="line" smooth="yes"/>
      <point x="333.647" y="575"/>
      <point x="344.5" y="574.226"/>
      <point x="344.5" y="581" type="curve" smooth="yes"/>
      <point x="344.5" y="636.276"/>
      <point x="278.5" y="632.344"/>
      <point x="278.5" y="683" type="curve" smooth="yes"/>
      <point x="278.5" y="704.566"/>
      <point x="276.734" y="719"/>
      <point x="299.5" y="719" type="curve" smooth="yes"/>
      <point x="357.932" y="719"/>
      <point x="397.969" y="620"/>
      <point x="410.5" y="620" type="curve" smooth="yes"/>
      <point x="434.5" y="620" type="line" smooth="yes"/>
      <point x="465.937" y="620"/>
      <point x="494.5" y="585.514"/>
      <point x="494.5" y="557" type="curve" smooth="yes"/>
      <point x="494.5" y="536.028"/>
      <point x="491.748" y="518"/>
      <point x="461.5" y="518" type="curve" smooth="yes"/>
      <point x="424.871" y="518"/>
      <point x="406.946" y="545"/>
      <point x="371.5" y="545" type="curve" smooth="yes"/>
      <point x="342.441" y="545"/>
      <point x="266.5" y="544.513"/>
      <point x="266.5" y="509" type="curve" smooth="yes"/>
      <point x="266.5" y="471.415"/>
      <point x="464.5" y="410"/>
      <point x="464.5" y="410" type="curve"/>
      <point x="629.4" y="410"/>
      <point x="602.024" y="671"/>
      <point x="785.5" y="671" type="curve" smooth="yes"/>
      <point x="796.966" y="671"/>
      <point x="833.5" y="615.608"/>
      <point x="833.5" y="611" type="curve" smooth="yes"/>
      <point x="833.5" y="511.495"/>
      <point x="629.5" y="491.856"/>
      <point x="629.5" y="386" type="curve" smooth="yes"/>
      <point x="629.5" y="385.115"/>
      <point x="627.718" y="335"/>
      <point x="632.5" y="335" type="curve" smooth="yes"/>
      <point x="683.5" y="335" type="line" smooth="yes"/>
      <point x="717.823" y="335"/>
      <point x="851.5" y="310.082"/>
      <point x="851.5" y="275" type="curve" smooth="yes"/>
      <point x="851.5" y="237.848"/>
      <point x="814.48" y="113"/>
      <point x="761.5" y="113" type="curve" smooth="yes"/>
      <point x="684.265" y="113"/>
      <point x="623.115" y="179"/>
      <point x="548.5" y="179" type="curve" smooth="yes"/>
      <point x="461.265" y="179"/>
      <point x="376.822" y="128"/>
      <point x="293.5" y="128" type="curve" smooth="yes"/>
      <point x="253.678" y="128"/>
      <point x="101.5" y="105.403"/>
      <point x="101.5" y="179" type="curve" smooth="yes"/>
      <point x="101.5" y="252.572"/>
      <point x="263.5" y="242.052"/>
      <point x="263.5" y="299" type="curve" smooth="yes"/>
      <point x="263.5" y="341.431"/>
      <point x="149.5" y="394.734"/>
      <point x="149.5" y="464" type="curve" smooth="yes"/>
      <point x="149.5" y="502.6"/>
      <point x="148.051" y="614"/>
      <point x="212.5" y="614" type="curve" smooth="yes"/>
      <point x="233.251" y="614"/>
      <point x="291.5" y="614"/>
    </contour>
  </outline>
</glyph>
<glyph name="m" format="1">
  <advance width="909"/>
  <unicode hex="006D"/>
  <outline>
    <contour>
      <point x="286.912" y="493" type="curve" smooth="yes"/>
      <point x="312.912" y="508"/>
      <point x="284.848" y="559"/>
      <point x="246.912" y="559" type="curve" smooth="yes"/>
      <point x="241.654" y="559"/>
      <point x="205.208" y="556"/>
      <point x="192.912" y="556" type="curve" smooth="yes"/>
      <point x="165.256" y="556"/>
      <point x="64.9121" y="572.323"/>
      <point x="64.9121" y="613" type="curve" smooth="yes"/>
      <point x="64.9121" y="633.095"/>
      <point x="54.9844" y="646"/>
      <point x="82.9121" y="646" type="curve" smooth="yes"/>
      <point x="144.019" y="646"/>
      <point x="205.002" y="580"/>
      <point x="280.912" y="580" type="curve" smooth="yes"/>
      <point x="293.438" y="580"/>
      <point x="388.912" y="595.188"/>
      <point x="388.912" y="610" type="curve" smooth="yes"/>
      <point x="388.912" y="617.092"/>
      <point x="340.912" y="650.389"/>
      <point x="340.912" y="673" type="curve" smooth="yes"/>
      <point x="340.912" y="683.176"/>
      <point x="340.912" y="715"/>
      <point x="364.912" y="715" type="curve" smooth="yes"/>
      <point x="526.505" y="715"/>
      <point x="491.98" y="559"/>
      <point x="598.912" y="559" type="curve" smooth="yes"/>
      <point x="634.038" y="559"/>
      <point x="624.417" y="619"/>
      <point x="688.912" y="619" type="curve" smooth="yes"/>
      <point x="688.912" y="619"/>
      <point x="808.912" y="625.355"/>
      <point x="808.912" y="613" type="curve" smooth="yes"/>
      <point x="808.912" y="562" type="line"/>
      <point x="808.912" y="562"/>
      <point x="844.912" y="523.952"/>
      <point x="844.912" y="487" type="curve" smooth="yes"/>
      <point x="844.912" y="364.624"/>
      <point x="868.488" y="17.6113"/>
      <point x="672.912" y="34" type="curve" smooth="yes"/>
      <point x="604.438" y="39.7383"/>
      <point x="426.231" y="-4.22363"/>
      <point x="444.912" y="127" type="curve" smooth="yes"/>
      <point x="444.912" y="151.696"/>
      <point x="544.47" y="253"/>
      <point x="556.912" y="253" type="curve"/>
      <point x="556.912" y="253"/>
      <point x="551.832" y="79"/>
      <point x="660.912" y="79" type="curve" smooth="yes"/>
      <point x="740.916" y="79"/>
      <point x="748.912" y="160.002"/>
      <point x="748.912" y="223" type="curve" smooth="yes"/>
      <point x="748.912" y="354.543"/>
      <point x="538.111" y="526"/>
      <point x="438.912" y="526" type="curve" smooth="yes"/>
      <point x="400.212" y="526"/>
      <point x="304.912" y="500.271"/>
      <point x="304.912" y="448" type="curve" smooth="yes"/>
      <point x="304.912" y="411.038"/>
      <point x="303.166" y="385"/>
      <point x="340.912" y="385" type="curve" smooth="yes"/>
      <point x="382.015" y="385"/>
      <point x="498.912" y="391.563"/>
      <point x="498.912" y="319" type="curve" smooth="yes"/>
      <point x="498.912" y="252.226"/>
      <point x="383.466" y="181"/>
      <point x="318.912" y="181" type="curve" smooth="yes"/>
      <point x="318.912" y="181"/>
      <point x="228.912" y="175.348"/>
      <point x="228.912" y="184" type="curve" smooth="yes"/>
      <point x="228.912" y="209.287"/>
      <point x="274.912" y="203.37"/>
      <point x="274.912" y="235" type="curve" smooth="yes"/>
      <point x="274.912" y="309.418"/>
      <point x="132.912" y="412.705"/>
      <point x="132.912" y="460" type="curve" smooth="yes"/>
      <point x="132.912" y="476.051"/>
      <point x="130.966" y="502"/>
      <point x="150.912" y="502" type="curve" smooth="yes"/>
      <point x="192.034" y="502"/>
      <point x="240.912" y="466"/>
    </contour>
  </outline>
</glyph>
<glyph name="n" format="1">
  <advance width="1396"/>
  <unicode hex="006E"/>
  <outline>
    <contour>
      <point x="444" y="651" type="curve"/>
      <point x="432.85" y="642.985"/>
      <point x="396" y="583.812"/>
      <point x="396" y="571" type="curve" smooth="yes"/>
      <point x="396" y="506.397"/>
      <point x="448.921" y="544.196"/>
      <point x="480" y="555" type="curve" smooth="yes"/>
      <point x="512.423" y="566.271"/>
      <point x="543.621" y="600.84"/>
      <point x="584" y="603" type="curve" smooth="yes"/>
      <point x="608.638" y="603"/>
      <point x="684" y="591.63"/>
      <point x="684" y="563" type="curve" smooth="yes"/>
      <point x="684" y="541.316"/>
      <point x="649.027" y="535"/>
      <point x="632" y="535" type="curve" smooth="yes"/>
      <point x="576" y="535" type="line" smooth="yes"/>
      <point x="547.058" y="535"/>
      <point x="536" y="520.069"/>
      <point x="536" y="495" type="curve" smooth="yes"/>
      <point x="536" y="488.878"/>
      <point x="532.026" y="451"/>
      <point x="544" y="451" type="curve" smooth="yes"/>
      <point x="564.943" y="451"/>
      <point x="581.818" y="475"/>
      <point x="604" y="475" type="curve" smooth="yes"/>
      <point x="632.151" y="475"/>
      <point x="603.352" y="423"/>
      <point x="624" y="423" type="curve" smooth="yes"/>
      <point x="659.679" y="423"/>
      <point x="707.312" y="467"/>
      <point x="748" y="467" type="curve" smooth="yes"/>
      <point x="780" y="467" type="line" smooth="yes"/>
      <point x="825.203" y="467"/>
      <point x="870.584" y="495"/>
      <point x="912" y="495" type="curve" smooth="yes"/>
      <point x="921.7" y="495"/>
      <point x="924" y="494.8"/>
      <point x="924" y="495" type="curve"/>
      <point x="924" y="485.269"/>
      <point x="902.403" y="411"/>
      <point x="932" y="411" type="curve" smooth="yes"/>
      <point x="976" y="411" type="line" smooth="yes"/>
      <point x="1048.26" y="411"/>
      <point x="1192" y="381.715"/>
      <point x="1192" y="291" type="curve" smooth="yes"/>
      <point x="1192" y="180.59"/>
      <point x="1110.79" y="219"/>
      <point x="1012" y="219" type="curve" smooth="yes"/>
      <point x="924.415" y="219"/>
      <point x="875.732" y="319"/>
      <point x="760" y="319" type="curve" smooth="yes"/>
      <point x="618.601" y="319"/>
      <point x="478.477" y="159"/>
      <point x="396" y="159" type="curve" smooth="yes"/>
      <point x="340.195" y="159"/>
      <point x="216" y="204.29"/>
      <point x="216" y="275" type="curve" smooth="yes"/>
      <point x="216" y="305.782"/>
      <point x="380" y="302.142"/>
      <point x="380" y="395" type="curve" smooth="yes"/>
      <point x="380" y="478.121"/>
      <point x="204" y="488.163"/>
      <point x="204" y="583" type="curve" smooth="yes"/>
      <point x="204" y="685.999"/>
      <point x="348.879" y="594.767"/>
      <point x="400" y="651" type="curve" smooth="yes"/>
      <point x="450" y="706"/>
      <point x="444" y="651"/>
    </contour>
  </outline>
</glyph>
